%TF.GenerationSoftware,KiCad,Pcbnew,(6.0.8)*%
%TF.CreationDate,2022-10-27T20:00:02-05:00*%
%TF.ProjectId,STM32RFBoardPhil,53544d33-3252-4464-926f-617264506869,rev?*%
%TF.SameCoordinates,Original*%
%TF.FileFunction,Copper,L2,Bot*%
%TF.FilePolarity,Positive*%
%FSLAX46Y46*%
G04 Gerber Fmt 4.6, Leading zero omitted, Abs format (unit mm)*
G04 Created by KiCad (PCBNEW (6.0.8)) date 2022-10-27 20:00:02*
%MOMM*%
%LPD*%
G01*
G04 APERTURE LIST*
%ADD10C,0.100000*%
%ADD11C,0.150000*%
%ADD12C,0.300000*%
%ADD13C,0.400000*%
%TA.AperFunction,ComponentPad*%
%ADD14R,1.700000X1.700000*%
%TD*%
%TA.AperFunction,ComponentPad*%
%ADD15O,1.700000X1.700000*%
%TD*%
%TA.AperFunction,ComponentPad*%
%ADD16O,1.800000X1.150000*%
%TD*%
%TA.AperFunction,ComponentPad*%
%ADD17O,2.000000X1.450000*%
%TD*%
%TA.AperFunction,SMDPad,CuDef*%
%ADD18R,0.900000X1.600000*%
%TD*%
%TA.AperFunction,ComponentPad*%
%ADD19C,0.600000*%
%TD*%
%TA.AperFunction,ViaPad*%
%ADD20C,0.700000*%
%TD*%
%TA.AperFunction,ViaPad*%
%ADD21C,0.800000*%
%TD*%
%TA.AperFunction,Conductor*%
%ADD22C,0.300000*%
%TD*%
%TA.AperFunction,Conductor*%
%ADD23C,0.500000*%
%TD*%
G04 APERTURE END LIST*
D10*
D11*
X177002200Y-166007200D02*
X177002200Y-198007200D01*
X285002200Y-198007200D01*
X285002200Y-166007200D01*
X177002200Y-166007200D01*
D10*
D11*
X10000000Y-10000000D02*
X10000000Y-200007200D01*
X287002200Y-200007200D01*
X287002200Y-10000000D01*
X10000000Y-10000000D01*
D10*
D11*
X12000000Y-12000000D02*
X12000000Y-198007200D01*
X285002200Y-198007200D01*
X285002200Y-12000000D01*
X12000000Y-12000000D01*
D10*
D11*
X60000000Y-12000000D02*
X60000000Y-10000000D01*
D10*
D11*
X110000000Y-12000000D02*
X110000000Y-10000000D01*
D10*
D11*
X160000000Y-12000000D02*
X160000000Y-10000000D01*
D10*
D11*
X210000000Y-12000000D02*
X210000000Y-10000000D01*
D10*
D11*
X260000000Y-12000000D02*
X260000000Y-10000000D01*
D10*
D11*
X36065476Y-11588095D02*
X35322619Y-11588095D01*
X35694047Y-11588095D02*
X35694047Y-10288095D01*
X35570238Y-10473809D01*
X35446428Y-10597619D01*
X35322619Y-10659523D01*
D10*
D11*
X85322619Y-10411904D02*
X85384523Y-10350000D01*
X85508333Y-10288095D01*
X85817857Y-10288095D01*
X85941666Y-10350000D01*
X86003571Y-10411904D01*
X86065476Y-10535714D01*
X86065476Y-10659523D01*
X86003571Y-10845238D01*
X85260714Y-11588095D01*
X86065476Y-11588095D01*
D10*
D11*
X135260714Y-10288095D02*
X136065476Y-10288095D01*
X135632142Y-10783333D01*
X135817857Y-10783333D01*
X135941666Y-10845238D01*
X136003571Y-10907142D01*
X136065476Y-11030952D01*
X136065476Y-11340476D01*
X136003571Y-11464285D01*
X135941666Y-11526190D01*
X135817857Y-11588095D01*
X135446428Y-11588095D01*
X135322619Y-11526190D01*
X135260714Y-11464285D01*
D10*
D11*
X185941666Y-10721428D02*
X185941666Y-11588095D01*
X185632142Y-10226190D02*
X185322619Y-11154761D01*
X186127380Y-11154761D01*
D10*
D11*
X236003571Y-10288095D02*
X235384523Y-10288095D01*
X235322619Y-10907142D01*
X235384523Y-10845238D01*
X235508333Y-10783333D01*
X235817857Y-10783333D01*
X235941666Y-10845238D01*
X236003571Y-10907142D01*
X236065476Y-11030952D01*
X236065476Y-11340476D01*
X236003571Y-11464285D01*
X235941666Y-11526190D01*
X235817857Y-11588095D01*
X235508333Y-11588095D01*
X235384523Y-11526190D01*
X235322619Y-11464285D01*
D10*
D11*
X285941666Y-10288095D02*
X285694047Y-10288095D01*
X285570238Y-10350000D01*
X285508333Y-10411904D01*
X285384523Y-10597619D01*
X285322619Y-10845238D01*
X285322619Y-11340476D01*
X285384523Y-11464285D01*
X285446428Y-11526190D01*
X285570238Y-11588095D01*
X285817857Y-11588095D01*
X285941666Y-11526190D01*
X286003571Y-11464285D01*
X286065476Y-11340476D01*
X286065476Y-11030952D01*
X286003571Y-10907142D01*
X285941666Y-10845238D01*
X285817857Y-10783333D01*
X285570238Y-10783333D01*
X285446428Y-10845238D01*
X285384523Y-10907142D01*
X285322619Y-11030952D01*
D10*
D11*
X60000000Y-198007200D02*
X60000000Y-200007200D01*
D10*
D11*
X110000000Y-198007200D02*
X110000000Y-200007200D01*
D10*
D11*
X160000000Y-198007200D02*
X160000000Y-200007200D01*
D10*
D11*
X210000000Y-198007200D02*
X210000000Y-200007200D01*
D10*
D11*
X260000000Y-198007200D02*
X260000000Y-200007200D01*
D10*
D11*
X36065476Y-199595295D02*
X35322619Y-199595295D01*
X35694047Y-199595295D02*
X35694047Y-198295295D01*
X35570238Y-198481009D01*
X35446428Y-198604819D01*
X35322619Y-198666723D01*
D10*
D11*
X85322619Y-198419104D02*
X85384523Y-198357200D01*
X85508333Y-198295295D01*
X85817857Y-198295295D01*
X85941666Y-198357200D01*
X86003571Y-198419104D01*
X86065476Y-198542914D01*
X86065476Y-198666723D01*
X86003571Y-198852438D01*
X85260714Y-199595295D01*
X86065476Y-199595295D01*
D10*
D11*
X135260714Y-198295295D02*
X136065476Y-198295295D01*
X135632142Y-198790533D01*
X135817857Y-198790533D01*
X135941666Y-198852438D01*
X136003571Y-198914342D01*
X136065476Y-199038152D01*
X136065476Y-199347676D01*
X136003571Y-199471485D01*
X135941666Y-199533390D01*
X135817857Y-199595295D01*
X135446428Y-199595295D01*
X135322619Y-199533390D01*
X135260714Y-199471485D01*
D10*
D11*
X185941666Y-198728628D02*
X185941666Y-199595295D01*
X185632142Y-198233390D02*
X185322619Y-199161961D01*
X186127380Y-199161961D01*
D10*
D11*
X236003571Y-198295295D02*
X235384523Y-198295295D01*
X235322619Y-198914342D01*
X235384523Y-198852438D01*
X235508333Y-198790533D01*
X235817857Y-198790533D01*
X235941666Y-198852438D01*
X236003571Y-198914342D01*
X236065476Y-199038152D01*
X236065476Y-199347676D01*
X236003571Y-199471485D01*
X235941666Y-199533390D01*
X235817857Y-199595295D01*
X235508333Y-199595295D01*
X235384523Y-199533390D01*
X235322619Y-199471485D01*
D10*
D11*
X285941666Y-198295295D02*
X285694047Y-198295295D01*
X285570238Y-198357200D01*
X285508333Y-198419104D01*
X285384523Y-198604819D01*
X285322619Y-198852438D01*
X285322619Y-199347676D01*
X285384523Y-199471485D01*
X285446428Y-199533390D01*
X285570238Y-199595295D01*
X285817857Y-199595295D01*
X285941666Y-199533390D01*
X286003571Y-199471485D01*
X286065476Y-199347676D01*
X286065476Y-199038152D01*
X286003571Y-198914342D01*
X285941666Y-198852438D01*
X285817857Y-198790533D01*
X285570238Y-198790533D01*
X285446428Y-198852438D01*
X285384523Y-198914342D01*
X285322619Y-199038152D01*
D10*
D11*
X10000000Y-60000000D02*
X12000000Y-60000000D01*
D10*
D11*
X10000000Y-110000000D02*
X12000000Y-110000000D01*
D10*
D11*
X10000000Y-160000000D02*
X12000000Y-160000000D01*
D10*
D11*
X10690476Y-35216666D02*
X11309523Y-35216666D01*
X10566666Y-35588095D02*
X11000000Y-34288095D01*
X11433333Y-35588095D01*
D10*
D11*
X11092857Y-84907142D02*
X11278571Y-84969047D01*
X11340476Y-85030952D01*
X11402380Y-85154761D01*
X11402380Y-85340476D01*
X11340476Y-85464285D01*
X11278571Y-85526190D01*
X11154761Y-85588095D01*
X10659523Y-85588095D01*
X10659523Y-84288095D01*
X11092857Y-84288095D01*
X11216666Y-84350000D01*
X11278571Y-84411904D01*
X11340476Y-84535714D01*
X11340476Y-84659523D01*
X11278571Y-84783333D01*
X11216666Y-84845238D01*
X11092857Y-84907142D01*
X10659523Y-84907142D01*
D10*
D11*
X11402380Y-135464285D02*
X11340476Y-135526190D01*
X11154761Y-135588095D01*
X11030952Y-135588095D01*
X10845238Y-135526190D01*
X10721428Y-135402380D01*
X10659523Y-135278571D01*
X10597619Y-135030952D01*
X10597619Y-134845238D01*
X10659523Y-134597619D01*
X10721428Y-134473809D01*
X10845238Y-134350000D01*
X11030952Y-134288095D01*
X11154761Y-134288095D01*
X11340476Y-134350000D01*
X11402380Y-134411904D01*
D10*
D11*
X10659523Y-185588095D02*
X10659523Y-184288095D01*
X10969047Y-184288095D01*
X11154761Y-184350000D01*
X11278571Y-184473809D01*
X11340476Y-184597619D01*
X11402380Y-184845238D01*
X11402380Y-185030952D01*
X11340476Y-185278571D01*
X11278571Y-185402380D01*
X11154761Y-185526190D01*
X10969047Y-185588095D01*
X10659523Y-185588095D01*
D10*
D11*
X287002200Y-60000000D02*
X285002200Y-60000000D01*
D10*
D11*
X287002200Y-110000000D02*
X285002200Y-110000000D01*
D10*
D11*
X287002200Y-160000000D02*
X285002200Y-160000000D01*
D10*
D11*
X285692676Y-35216666D02*
X286311723Y-35216666D01*
X285568866Y-35588095D02*
X286002200Y-34288095D01*
X286435533Y-35588095D01*
D10*
D11*
X286095057Y-84907142D02*
X286280771Y-84969047D01*
X286342676Y-85030952D01*
X286404580Y-85154761D01*
X286404580Y-85340476D01*
X286342676Y-85464285D01*
X286280771Y-85526190D01*
X286156961Y-85588095D01*
X285661723Y-85588095D01*
X285661723Y-84288095D01*
X286095057Y-84288095D01*
X286218866Y-84350000D01*
X286280771Y-84411904D01*
X286342676Y-84535714D01*
X286342676Y-84659523D01*
X286280771Y-84783333D01*
X286218866Y-84845238D01*
X286095057Y-84907142D01*
X285661723Y-84907142D01*
D10*
D11*
X286404580Y-135464285D02*
X286342676Y-135526190D01*
X286156961Y-135588095D01*
X286033152Y-135588095D01*
X285847438Y-135526190D01*
X285723628Y-135402380D01*
X285661723Y-135278571D01*
X285599819Y-135030952D01*
X285599819Y-134845238D01*
X285661723Y-134597619D01*
X285723628Y-134473809D01*
X285847438Y-134350000D01*
X286033152Y-134288095D01*
X286156961Y-134288095D01*
X286342676Y-134350000D01*
X286404580Y-134411904D01*
D10*
D11*
X285661723Y-185588095D02*
X285661723Y-184288095D01*
X285971247Y-184288095D01*
X286156961Y-184350000D01*
X286280771Y-184473809D01*
X286342676Y-184597619D01*
X286404580Y-184845238D01*
X286404580Y-185030952D01*
X286342676Y-185278571D01*
X286280771Y-185402380D01*
X286156961Y-185526190D01*
X285971247Y-185588095D01*
X285661723Y-185588095D01*
D10*
D11*
X200434342Y-193785771D02*
X200434342Y-192285771D01*
X200791485Y-192285771D01*
X201005771Y-192357200D01*
X201148628Y-192500057D01*
X201220057Y-192642914D01*
X201291485Y-192928628D01*
X201291485Y-193142914D01*
X201220057Y-193428628D01*
X201148628Y-193571485D01*
X201005771Y-193714342D01*
X200791485Y-193785771D01*
X200434342Y-193785771D01*
X202577200Y-193785771D02*
X202577200Y-193000057D01*
X202505771Y-192857200D01*
X202362914Y-192785771D01*
X202077200Y-192785771D01*
X201934342Y-192857200D01*
X202577200Y-193714342D02*
X202434342Y-193785771D01*
X202077200Y-193785771D01*
X201934342Y-193714342D01*
X201862914Y-193571485D01*
X201862914Y-193428628D01*
X201934342Y-193285771D01*
X202077200Y-193214342D01*
X202434342Y-193214342D01*
X202577200Y-193142914D01*
X203077200Y-192785771D02*
X203648628Y-192785771D01*
X203291485Y-192285771D02*
X203291485Y-193571485D01*
X203362914Y-193714342D01*
X203505771Y-193785771D01*
X203648628Y-193785771D01*
X204720057Y-193714342D02*
X204577200Y-193785771D01*
X204291485Y-193785771D01*
X204148628Y-193714342D01*
X204077200Y-193571485D01*
X204077200Y-193000057D01*
X204148628Y-192857200D01*
X204291485Y-192785771D01*
X204577200Y-192785771D01*
X204720057Y-192857200D01*
X204791485Y-193000057D01*
X204791485Y-193142914D01*
X204077200Y-193285771D01*
X205434342Y-193642914D02*
X205505771Y-193714342D01*
X205434342Y-193785771D01*
X205362914Y-193714342D01*
X205434342Y-193642914D01*
X205434342Y-193785771D01*
X205434342Y-192857200D02*
X205505771Y-192928628D01*
X205434342Y-193000057D01*
X205362914Y-192928628D01*
X205434342Y-192857200D01*
X205434342Y-193000057D01*
D10*
D11*
X177002200Y-194507200D02*
X285002200Y-194507200D01*
D10*
D11*
X178434342Y-196585771D02*
X178434342Y-195085771D01*
X179291485Y-196585771D02*
X178648628Y-195728628D01*
X179291485Y-195085771D02*
X178434342Y-195942914D01*
X179934342Y-196585771D02*
X179934342Y-195585771D01*
X179934342Y-195085771D02*
X179862914Y-195157200D01*
X179934342Y-195228628D01*
X180005771Y-195157200D01*
X179934342Y-195085771D01*
X179934342Y-195228628D01*
X181505771Y-196442914D02*
X181434342Y-196514342D01*
X181220057Y-196585771D01*
X181077200Y-196585771D01*
X180862914Y-196514342D01*
X180720057Y-196371485D01*
X180648628Y-196228628D01*
X180577200Y-195942914D01*
X180577200Y-195728628D01*
X180648628Y-195442914D01*
X180720057Y-195300057D01*
X180862914Y-195157200D01*
X181077200Y-195085771D01*
X181220057Y-195085771D01*
X181434342Y-195157200D01*
X181505771Y-195228628D01*
X182791485Y-196585771D02*
X182791485Y-195800057D01*
X182720057Y-195657200D01*
X182577200Y-195585771D01*
X182291485Y-195585771D01*
X182148628Y-195657200D01*
X182791485Y-196514342D02*
X182648628Y-196585771D01*
X182291485Y-196585771D01*
X182148628Y-196514342D01*
X182077200Y-196371485D01*
X182077200Y-196228628D01*
X182148628Y-196085771D01*
X182291485Y-196014342D01*
X182648628Y-196014342D01*
X182791485Y-195942914D01*
X184148628Y-196585771D02*
X184148628Y-195085771D01*
X184148628Y-196514342D02*
X184005771Y-196585771D01*
X183720057Y-196585771D01*
X183577200Y-196514342D01*
X183505771Y-196442914D01*
X183434342Y-196300057D01*
X183434342Y-195871485D01*
X183505771Y-195728628D01*
X183577200Y-195657200D01*
X183720057Y-195585771D01*
X184005771Y-195585771D01*
X184148628Y-195657200D01*
X186005771Y-195800057D02*
X186505771Y-195800057D01*
X186720057Y-196585771D02*
X186005771Y-196585771D01*
X186005771Y-195085771D01*
X186720057Y-195085771D01*
X187362914Y-196442914D02*
X187434342Y-196514342D01*
X187362914Y-196585771D01*
X187291485Y-196514342D01*
X187362914Y-196442914D01*
X187362914Y-196585771D01*
X188077200Y-196585771D02*
X188077200Y-195085771D01*
X188434342Y-195085771D01*
X188648628Y-195157200D01*
X188791485Y-195300057D01*
X188862914Y-195442914D01*
X188934342Y-195728628D01*
X188934342Y-195942914D01*
X188862914Y-196228628D01*
X188791485Y-196371485D01*
X188648628Y-196514342D01*
X188434342Y-196585771D01*
X188077200Y-196585771D01*
X189577200Y-196442914D02*
X189648628Y-196514342D01*
X189577200Y-196585771D01*
X189505771Y-196514342D01*
X189577200Y-196442914D01*
X189577200Y-196585771D01*
X190220057Y-196157200D02*
X190934342Y-196157200D01*
X190077200Y-196585771D02*
X190577200Y-195085771D01*
X191077200Y-196585771D01*
X191577200Y-196442914D02*
X191648628Y-196514342D01*
X191577200Y-196585771D01*
X191505771Y-196514342D01*
X191577200Y-196442914D01*
X191577200Y-196585771D01*
X194577200Y-196585771D02*
X194577200Y-195085771D01*
X194720057Y-196014342D02*
X195148628Y-196585771D01*
X195148628Y-195585771D02*
X194577200Y-196157200D01*
X195791485Y-196585771D02*
X195791485Y-195585771D01*
X195791485Y-195085771D02*
X195720057Y-195157200D01*
X195791485Y-195228628D01*
X195862914Y-195157200D01*
X195791485Y-195085771D01*
X195791485Y-195228628D01*
X197148628Y-196514342D02*
X197005771Y-196585771D01*
X196720057Y-196585771D01*
X196577200Y-196514342D01*
X196505771Y-196442914D01*
X196434342Y-196300057D01*
X196434342Y-195871485D01*
X196505771Y-195728628D01*
X196577200Y-195657200D01*
X196720057Y-195585771D01*
X197005771Y-195585771D01*
X197148628Y-195657200D01*
X198434342Y-196585771D02*
X198434342Y-195800057D01*
X198362914Y-195657200D01*
X198220057Y-195585771D01*
X197934342Y-195585771D01*
X197791485Y-195657200D01*
X198434342Y-196514342D02*
X198291485Y-196585771D01*
X197934342Y-196585771D01*
X197791485Y-196514342D01*
X197720057Y-196371485D01*
X197720057Y-196228628D01*
X197791485Y-196085771D01*
X197934342Y-196014342D01*
X198291485Y-196014342D01*
X198434342Y-195942914D01*
X199791485Y-196585771D02*
X199791485Y-195085771D01*
X199791485Y-196514342D02*
X199648628Y-196585771D01*
X199362914Y-196585771D01*
X199220057Y-196514342D01*
X199148628Y-196442914D01*
X199077200Y-196300057D01*
X199077200Y-195871485D01*
X199148628Y-195728628D01*
X199220057Y-195657200D01*
X199362914Y-195585771D01*
X199648628Y-195585771D01*
X199791485Y-195657200D01*
X202077200Y-197157200D02*
X202005771Y-197085771D01*
X201862914Y-196871485D01*
X201791485Y-196728628D01*
X201720057Y-196514342D01*
X201648628Y-196157200D01*
X201648628Y-195871485D01*
X201720057Y-195514342D01*
X201791485Y-195300057D01*
X201862914Y-195157200D01*
X202005771Y-194942914D01*
X202077200Y-194871485D01*
X203291485Y-195085771D02*
X203005771Y-195085771D01*
X202862914Y-195157200D01*
X202791485Y-195228628D01*
X202648628Y-195442914D01*
X202577200Y-195728628D01*
X202577200Y-196300057D01*
X202648628Y-196442914D01*
X202720057Y-196514342D01*
X202862914Y-196585771D01*
X203148628Y-196585771D01*
X203291485Y-196514342D01*
X203362914Y-196442914D01*
X203434342Y-196300057D01*
X203434342Y-195942914D01*
X203362914Y-195800057D01*
X203291485Y-195728628D01*
X203148628Y-195657200D01*
X202862914Y-195657200D01*
X202720057Y-195728628D01*
X202648628Y-195800057D01*
X202577200Y-195942914D01*
X204077200Y-196442914D02*
X204148628Y-196514342D01*
X204077200Y-196585771D01*
X204005771Y-196514342D01*
X204077200Y-196442914D01*
X204077200Y-196585771D01*
X205077200Y-195085771D02*
X205220057Y-195085771D01*
X205362914Y-195157200D01*
X205434342Y-195228628D01*
X205505771Y-195371485D01*
X205577200Y-195657200D01*
X205577200Y-196014342D01*
X205505771Y-196300057D01*
X205434342Y-196442914D01*
X205362914Y-196514342D01*
X205220057Y-196585771D01*
X205077200Y-196585771D01*
X204934342Y-196514342D01*
X204862914Y-196442914D01*
X204791485Y-196300057D01*
X204720057Y-196014342D01*
X204720057Y-195657200D01*
X204791485Y-195371485D01*
X204862914Y-195228628D01*
X204934342Y-195157200D01*
X205077200Y-195085771D01*
X206220057Y-196442914D02*
X206291485Y-196514342D01*
X206220057Y-196585771D01*
X206148628Y-196514342D01*
X206220057Y-196442914D01*
X206220057Y-196585771D01*
X207148628Y-195728628D02*
X207005771Y-195657200D01*
X206934342Y-195585771D01*
X206862914Y-195442914D01*
X206862914Y-195371485D01*
X206934342Y-195228628D01*
X207005771Y-195157200D01*
X207148628Y-195085771D01*
X207434342Y-195085771D01*
X207577200Y-195157200D01*
X207648628Y-195228628D01*
X207720057Y-195371485D01*
X207720057Y-195442914D01*
X207648628Y-195585771D01*
X207577200Y-195657200D01*
X207434342Y-195728628D01*
X207148628Y-195728628D01*
X207005771Y-195800057D01*
X206934342Y-195871485D01*
X206862914Y-196014342D01*
X206862914Y-196300057D01*
X206934342Y-196442914D01*
X207005771Y-196514342D01*
X207148628Y-196585771D01*
X207434342Y-196585771D01*
X207577200Y-196514342D01*
X207648628Y-196442914D01*
X207720057Y-196300057D01*
X207720057Y-196014342D01*
X207648628Y-195871485D01*
X207577200Y-195800057D01*
X207434342Y-195728628D01*
X208220057Y-197157200D02*
X208291485Y-197085771D01*
X208434342Y-196871485D01*
X208505771Y-196728628D01*
X208577200Y-196514342D01*
X208648628Y-196157200D01*
X208648628Y-195871485D01*
X208577200Y-195514342D01*
X208505771Y-195300057D01*
X208434342Y-195157200D01*
X208291485Y-194942914D01*
X208220057Y-194871485D01*
D10*
D11*
X177002200Y-191507200D02*
X285002200Y-191507200D01*
D10*
D12*
X264411485Y-193785771D02*
X263911485Y-193071485D01*
X263554342Y-193785771D02*
X263554342Y-192285771D01*
X264125771Y-192285771D01*
X264268628Y-192357200D01*
X264340057Y-192428628D01*
X264411485Y-192571485D01*
X264411485Y-192785771D01*
X264340057Y-192928628D01*
X264268628Y-193000057D01*
X264125771Y-193071485D01*
X263554342Y-193071485D01*
X265625771Y-193714342D02*
X265482914Y-193785771D01*
X265197200Y-193785771D01*
X265054342Y-193714342D01*
X264982914Y-193571485D01*
X264982914Y-193000057D01*
X265054342Y-192857200D01*
X265197200Y-192785771D01*
X265482914Y-192785771D01*
X265625771Y-192857200D01*
X265697200Y-193000057D01*
X265697200Y-193142914D01*
X264982914Y-193285771D01*
X266197200Y-192785771D02*
X266554342Y-193785771D01*
X266911485Y-192785771D01*
X267482914Y-193642914D02*
X267554342Y-193714342D01*
X267482914Y-193785771D01*
X267411485Y-193714342D01*
X267482914Y-193642914D01*
X267482914Y-193785771D01*
X267482914Y-192857200D02*
X267554342Y-192928628D01*
X267482914Y-193000057D01*
X267411485Y-192928628D01*
X267482914Y-192857200D01*
X267482914Y-193000057D01*
D10*
D11*
X178362914Y-193714342D02*
X178577200Y-193785771D01*
X178934342Y-193785771D01*
X179077200Y-193714342D01*
X179148628Y-193642914D01*
X179220057Y-193500057D01*
X179220057Y-193357200D01*
X179148628Y-193214342D01*
X179077200Y-193142914D01*
X178934342Y-193071485D01*
X178648628Y-193000057D01*
X178505771Y-192928628D01*
X178434342Y-192857200D01*
X178362914Y-192714342D01*
X178362914Y-192571485D01*
X178434342Y-192428628D01*
X178505771Y-192357200D01*
X178648628Y-192285771D01*
X179005771Y-192285771D01*
X179220057Y-192357200D01*
X179862914Y-193785771D02*
X179862914Y-192785771D01*
X179862914Y-192285771D02*
X179791485Y-192357200D01*
X179862914Y-192428628D01*
X179934342Y-192357200D01*
X179862914Y-192285771D01*
X179862914Y-192428628D01*
X180434342Y-192785771D02*
X181220057Y-192785771D01*
X180434342Y-193785771D01*
X181220057Y-193785771D01*
X182362914Y-193714342D02*
X182220057Y-193785771D01*
X181934342Y-193785771D01*
X181791485Y-193714342D01*
X181720057Y-193571485D01*
X181720057Y-193000057D01*
X181791485Y-192857200D01*
X181934342Y-192785771D01*
X182220057Y-192785771D01*
X182362914Y-192857200D01*
X182434342Y-193000057D01*
X182434342Y-193142914D01*
X181720057Y-193285771D01*
X183077200Y-193642914D02*
X183148628Y-193714342D01*
X183077200Y-193785771D01*
X183005771Y-193714342D01*
X183077200Y-193642914D01*
X183077200Y-193785771D01*
X183077200Y-192857200D02*
X183148628Y-192928628D01*
X183077200Y-193000057D01*
X183005771Y-192928628D01*
X183077200Y-192857200D01*
X183077200Y-193000057D01*
X184862914Y-193357200D02*
X185577200Y-193357200D01*
X184720057Y-193785771D02*
X185220057Y-192285771D01*
X185720057Y-193785771D01*
X186862914Y-192785771D02*
X186862914Y-193785771D01*
X186505771Y-192214342D02*
X186148628Y-193285771D01*
X187077200Y-193285771D01*
D10*
D11*
X263434342Y-196585771D02*
X263434342Y-195085771D01*
X264791485Y-196585771D02*
X264791485Y-195085771D01*
X264791485Y-196514342D02*
X264648628Y-196585771D01*
X264362914Y-196585771D01*
X264220057Y-196514342D01*
X264148628Y-196442914D01*
X264077200Y-196300057D01*
X264077200Y-195871485D01*
X264148628Y-195728628D01*
X264220057Y-195657200D01*
X264362914Y-195585771D01*
X264648628Y-195585771D01*
X264791485Y-195657200D01*
X265505771Y-196442914D02*
X265577200Y-196514342D01*
X265505771Y-196585771D01*
X265434342Y-196514342D01*
X265505771Y-196442914D01*
X265505771Y-196585771D01*
X265505771Y-195657200D02*
X265577200Y-195728628D01*
X265505771Y-195800057D01*
X265434342Y-195728628D01*
X265505771Y-195657200D01*
X265505771Y-195800057D01*
X268148628Y-196585771D02*
X267291485Y-196585771D01*
X267720057Y-196585771D02*
X267720057Y-195085771D01*
X267577200Y-195300057D01*
X267434342Y-195442914D01*
X267291485Y-195514342D01*
X269862914Y-195014342D02*
X268577200Y-196942914D01*
X271148628Y-196585771D02*
X270291485Y-196585771D01*
X270720057Y-196585771D02*
X270720057Y-195085771D01*
X270577200Y-195300057D01*
X270434342Y-195442914D01*
X270291485Y-195514342D01*
D10*
D11*
X177002200Y-187507200D02*
X285002200Y-187507200D01*
D10*
D13*
X178714580Y-188211961D02*
X179857438Y-188211961D01*
X179036009Y-190211961D02*
X179286009Y-188211961D01*
X180274104Y-190211961D02*
X180440771Y-188878628D01*
X180524104Y-188211961D02*
X180416961Y-188307200D01*
X180500295Y-188402438D01*
X180607438Y-188307200D01*
X180524104Y-188211961D01*
X180500295Y-188402438D01*
X181107438Y-188878628D02*
X181869342Y-188878628D01*
X181476485Y-188211961D02*
X181262200Y-189926247D01*
X181333628Y-190116723D01*
X181512200Y-190211961D01*
X181702676Y-190211961D01*
X182655057Y-190211961D02*
X182476485Y-190116723D01*
X182405057Y-189926247D01*
X182619342Y-188211961D01*
X184190771Y-190116723D02*
X183988390Y-190211961D01*
X183607438Y-190211961D01*
X183428866Y-190116723D01*
X183357438Y-189926247D01*
X183452676Y-189164342D01*
X183571723Y-188973866D01*
X183774104Y-188878628D01*
X184155057Y-188878628D01*
X184333628Y-188973866D01*
X184405057Y-189164342D01*
X184381247Y-189354819D01*
X183405057Y-189545295D01*
X185155057Y-190021485D02*
X185238390Y-190116723D01*
X185131247Y-190211961D01*
X185047914Y-190116723D01*
X185155057Y-190021485D01*
X185131247Y-190211961D01*
X185286009Y-188973866D02*
X185369342Y-189069104D01*
X185262200Y-189164342D01*
X185178866Y-189069104D01*
X185286009Y-188973866D01*
X185262200Y-189164342D01*
D10*
D11*
X178934342Y-185600057D02*
X178434342Y-185600057D01*
X178434342Y-186385771D02*
X178434342Y-184885771D01*
X179148628Y-184885771D01*
X179720057Y-186385771D02*
X179720057Y-185385771D01*
X179720057Y-184885771D02*
X179648628Y-184957200D01*
X179720057Y-185028628D01*
X179791485Y-184957200D01*
X179720057Y-184885771D01*
X179720057Y-185028628D01*
X180648628Y-186385771D02*
X180505771Y-186314342D01*
X180434342Y-186171485D01*
X180434342Y-184885771D01*
X181791485Y-186314342D02*
X181648628Y-186385771D01*
X181362914Y-186385771D01*
X181220057Y-186314342D01*
X181148628Y-186171485D01*
X181148628Y-185600057D01*
X181220057Y-185457200D01*
X181362914Y-185385771D01*
X181648628Y-185385771D01*
X181791485Y-185457200D01*
X181862914Y-185600057D01*
X181862914Y-185742914D01*
X181148628Y-185885771D01*
X182505771Y-186242914D02*
X182577200Y-186314342D01*
X182505771Y-186385771D01*
X182434342Y-186314342D01*
X182505771Y-186242914D01*
X182505771Y-186385771D01*
X182505771Y-185457200D02*
X182577200Y-185528628D01*
X182505771Y-185600057D01*
X182434342Y-185528628D01*
X182505771Y-185457200D01*
X182505771Y-185600057D01*
X184291485Y-186314342D02*
X184505771Y-186385771D01*
X184862914Y-186385771D01*
X185005771Y-186314342D01*
X185077200Y-186242914D01*
X185148628Y-186100057D01*
X185148628Y-185957200D01*
X185077200Y-185814342D01*
X185005771Y-185742914D01*
X184862914Y-185671485D01*
X184577200Y-185600057D01*
X184434342Y-185528628D01*
X184362914Y-185457200D01*
X184291485Y-185314342D01*
X184291485Y-185171485D01*
X184362914Y-185028628D01*
X184434342Y-184957200D01*
X184577200Y-184885771D01*
X184934342Y-184885771D01*
X185148628Y-184957200D01*
X185577200Y-184885771D02*
X186434342Y-184885771D01*
X186005771Y-186385771D02*
X186005771Y-184885771D01*
X186934342Y-186385771D02*
X186934342Y-184885771D01*
X187434342Y-185957200D01*
X187934342Y-184885771D01*
X187934342Y-186385771D01*
X188505771Y-184885771D02*
X189434342Y-184885771D01*
X188934342Y-185457200D01*
X189148628Y-185457200D01*
X189291485Y-185528628D01*
X189362914Y-185600057D01*
X189434342Y-185742914D01*
X189434342Y-186100057D01*
X189362914Y-186242914D01*
X189291485Y-186314342D01*
X189148628Y-186385771D01*
X188720057Y-186385771D01*
X188577200Y-186314342D01*
X188505771Y-186242914D01*
X190005771Y-185028628D02*
X190077200Y-184957200D01*
X190220057Y-184885771D01*
X190577200Y-184885771D01*
X190720057Y-184957200D01*
X190791485Y-185028628D01*
X190862914Y-185171485D01*
X190862914Y-185314342D01*
X190791485Y-185528628D01*
X189934342Y-186385771D01*
X190862914Y-186385771D01*
X192362914Y-186385771D02*
X191862914Y-185671485D01*
X191505771Y-186385771D02*
X191505771Y-184885771D01*
X192077200Y-184885771D01*
X192220057Y-184957200D01*
X192291485Y-185028628D01*
X192362914Y-185171485D01*
X192362914Y-185385771D01*
X192291485Y-185528628D01*
X192220057Y-185600057D01*
X192077200Y-185671485D01*
X191505771Y-185671485D01*
X193505771Y-185600057D02*
X193005771Y-185600057D01*
X193005771Y-186385771D02*
X193005771Y-184885771D01*
X193720057Y-184885771D01*
X194791485Y-185600057D02*
X195005771Y-185671485D01*
X195077200Y-185742914D01*
X195148628Y-185885771D01*
X195148628Y-186100057D01*
X195077200Y-186242914D01*
X195005771Y-186314342D01*
X194862914Y-186385771D01*
X194291485Y-186385771D01*
X194291485Y-184885771D01*
X194791485Y-184885771D01*
X194934342Y-184957200D01*
X195005771Y-185028628D01*
X195077200Y-185171485D01*
X195077200Y-185314342D01*
X195005771Y-185457200D01*
X194934342Y-185528628D01*
X194791485Y-185600057D01*
X194291485Y-185600057D01*
X196005771Y-186385771D02*
X195862914Y-186314342D01*
X195791485Y-186242914D01*
X195720057Y-186100057D01*
X195720057Y-185671485D01*
X195791485Y-185528628D01*
X195862914Y-185457200D01*
X196005771Y-185385771D01*
X196220057Y-185385771D01*
X196362914Y-185457200D01*
X196434342Y-185528628D01*
X196505771Y-185671485D01*
X196505771Y-186100057D01*
X196434342Y-186242914D01*
X196362914Y-186314342D01*
X196220057Y-186385771D01*
X196005771Y-186385771D01*
X197791485Y-186385771D02*
X197791485Y-185600057D01*
X197720057Y-185457200D01*
X197577200Y-185385771D01*
X197291485Y-185385771D01*
X197148628Y-185457200D01*
X197791485Y-186314342D02*
X197648628Y-186385771D01*
X197291485Y-186385771D01*
X197148628Y-186314342D01*
X197077200Y-186171485D01*
X197077200Y-186028628D01*
X197148628Y-185885771D01*
X197291485Y-185814342D01*
X197648628Y-185814342D01*
X197791485Y-185742914D01*
X198505771Y-186385771D02*
X198505771Y-185385771D01*
X198505771Y-185671485D02*
X198577200Y-185528628D01*
X198648628Y-185457200D01*
X198791485Y-185385771D01*
X198934342Y-185385771D01*
X200077200Y-186385771D02*
X200077200Y-184885771D01*
X200077200Y-186314342D02*
X199934342Y-186385771D01*
X199648628Y-186385771D01*
X199505771Y-186314342D01*
X199434342Y-186242914D01*
X199362914Y-186100057D01*
X199362914Y-185671485D01*
X199434342Y-185528628D01*
X199505771Y-185457200D01*
X199648628Y-185385771D01*
X199934342Y-185385771D01*
X200077200Y-185457200D01*
X200791485Y-186385771D02*
X200791485Y-184885771D01*
X201362914Y-184885771D01*
X201505771Y-184957200D01*
X201577200Y-185028628D01*
X201648628Y-185171485D01*
X201648628Y-185385771D01*
X201577200Y-185528628D01*
X201505771Y-185600057D01*
X201362914Y-185671485D01*
X200791485Y-185671485D01*
X202291485Y-186385771D02*
X202291485Y-184885771D01*
X202934342Y-186385771D02*
X202934342Y-185600057D01*
X202862914Y-185457200D01*
X202720057Y-185385771D01*
X202505771Y-185385771D01*
X202362914Y-185457200D01*
X202291485Y-185528628D01*
X203648628Y-186385771D02*
X203648628Y-185385771D01*
X203648628Y-184885771D02*
X203577200Y-184957200D01*
X203648628Y-185028628D01*
X203720057Y-184957200D01*
X203648628Y-184885771D01*
X203648628Y-185028628D01*
X204577200Y-186385771D02*
X204434342Y-186314342D01*
X204362914Y-186171485D01*
X204362914Y-184885771D01*
X205148628Y-186242914D02*
X205220057Y-186314342D01*
X205148628Y-186385771D01*
X205077200Y-186314342D01*
X205148628Y-186242914D01*
X205148628Y-186385771D01*
X205862914Y-186385771D02*
X205862914Y-184885771D01*
X206005771Y-185814342D02*
X206434342Y-186385771D01*
X206434342Y-185385771D02*
X205862914Y-185957200D01*
X207077200Y-186385771D02*
X207077200Y-185385771D01*
X207077200Y-184885771D02*
X207005771Y-184957200D01*
X207077200Y-185028628D01*
X207148628Y-184957200D01*
X207077200Y-184885771D01*
X207077200Y-185028628D01*
X208434342Y-186314342D02*
X208291485Y-186385771D01*
X208005771Y-186385771D01*
X207862914Y-186314342D01*
X207791485Y-186242914D01*
X207720057Y-186100057D01*
X207720057Y-185671485D01*
X207791485Y-185528628D01*
X207862914Y-185457200D01*
X208005771Y-185385771D01*
X208291485Y-185385771D01*
X208434342Y-185457200D01*
X209720057Y-186385771D02*
X209720057Y-185600057D01*
X209648628Y-185457200D01*
X209505771Y-185385771D01*
X209220057Y-185385771D01*
X209077200Y-185457200D01*
X209720057Y-186314342D02*
X209577200Y-186385771D01*
X209220057Y-186385771D01*
X209077200Y-186314342D01*
X209005771Y-186171485D01*
X209005771Y-186028628D01*
X209077200Y-185885771D01*
X209220057Y-185814342D01*
X209577200Y-185814342D01*
X209720057Y-185742914D01*
X211077200Y-186385771D02*
X211077200Y-184885771D01*
X211077200Y-186314342D02*
X210934342Y-186385771D01*
X210648628Y-186385771D01*
X210505771Y-186314342D01*
X210434342Y-186242914D01*
X210362914Y-186100057D01*
X210362914Y-185671485D01*
X210434342Y-185528628D01*
X210505771Y-185457200D01*
X210648628Y-185385771D01*
X210934342Y-185385771D01*
X211077200Y-185457200D01*
X211434342Y-186528628D02*
X212577200Y-186528628D01*
X212934342Y-185385771D02*
X212934342Y-186885771D01*
X212934342Y-185457200D02*
X213077200Y-185385771D01*
X213362914Y-185385771D01*
X213505771Y-185457200D01*
X213577200Y-185528628D01*
X213648628Y-185671485D01*
X213648628Y-186100057D01*
X213577200Y-186242914D01*
X213505771Y-186314342D01*
X213362914Y-186385771D01*
X213077200Y-186385771D01*
X212934342Y-186314342D01*
X214934342Y-186314342D02*
X214791485Y-186385771D01*
X214505771Y-186385771D01*
X214362914Y-186314342D01*
X214291485Y-186242914D01*
X214220057Y-186100057D01*
X214220057Y-185671485D01*
X214291485Y-185528628D01*
X214362914Y-185457200D01*
X214505771Y-185385771D01*
X214791485Y-185385771D01*
X214934342Y-185457200D01*
X215577200Y-186385771D02*
X215577200Y-184885771D01*
X215577200Y-185457200D02*
X215720057Y-185385771D01*
X216005771Y-185385771D01*
X216148628Y-185457200D01*
X216220057Y-185528628D01*
X216291485Y-185671485D01*
X216291485Y-186100057D01*
X216220057Y-186242914D01*
X216148628Y-186314342D01*
X216005771Y-186385771D01*
X215720057Y-186385771D01*
X215577200Y-186314342D01*
D10*
D11*
X177002200Y-181507200D02*
X285002200Y-181507200D01*
D10*
D11*
X178362914Y-183614342D02*
X178577200Y-183685771D01*
X178934342Y-183685771D01*
X179077200Y-183614342D01*
X179148628Y-183542914D01*
X179220057Y-183400057D01*
X179220057Y-183257200D01*
X179148628Y-183114342D01*
X179077200Y-183042914D01*
X178934342Y-182971485D01*
X178648628Y-182900057D01*
X178505771Y-182828628D01*
X178434342Y-182757200D01*
X178362914Y-182614342D01*
X178362914Y-182471485D01*
X178434342Y-182328628D01*
X178505771Y-182257200D01*
X178648628Y-182185771D01*
X179005771Y-182185771D01*
X179220057Y-182257200D01*
X179862914Y-183685771D02*
X179862914Y-182185771D01*
X180505771Y-183685771D02*
X180505771Y-182900057D01*
X180434342Y-182757200D01*
X180291485Y-182685771D01*
X180077200Y-182685771D01*
X179934342Y-182757200D01*
X179862914Y-182828628D01*
X181791485Y-183614342D02*
X181648628Y-183685771D01*
X181362914Y-183685771D01*
X181220057Y-183614342D01*
X181148628Y-183471485D01*
X181148628Y-182900057D01*
X181220057Y-182757200D01*
X181362914Y-182685771D01*
X181648628Y-182685771D01*
X181791485Y-182757200D01*
X181862914Y-182900057D01*
X181862914Y-183042914D01*
X181148628Y-183185771D01*
X183077200Y-183614342D02*
X182934342Y-183685771D01*
X182648628Y-183685771D01*
X182505771Y-183614342D01*
X182434342Y-183471485D01*
X182434342Y-182900057D01*
X182505771Y-182757200D01*
X182648628Y-182685771D01*
X182934342Y-182685771D01*
X183077200Y-182757200D01*
X183148628Y-182900057D01*
X183148628Y-183042914D01*
X182434342Y-183185771D01*
X183577200Y-182685771D02*
X184148628Y-182685771D01*
X183791485Y-182185771D02*
X183791485Y-183471485D01*
X183862914Y-183614342D01*
X184005771Y-183685771D01*
X184148628Y-183685771D01*
X184648628Y-183542914D02*
X184720057Y-183614342D01*
X184648628Y-183685771D01*
X184577200Y-183614342D01*
X184648628Y-183542914D01*
X184648628Y-183685771D01*
X184648628Y-182757200D02*
X184720057Y-182828628D01*
X184648628Y-182900057D01*
X184577200Y-182828628D01*
X184648628Y-182757200D01*
X184648628Y-182900057D01*
D10*
D12*
D10*
D11*
D10*
D11*
D10*
D11*
D10*
D11*
D10*
D11*
X197002200Y-191507200D02*
X197002200Y-194507200D01*
D10*
D11*
X261002200Y-191507200D02*
X261002200Y-198007200D01*
D14*
%TO.P,J5,1,Pin_1*%
%TO.N,/PB8*%
X143735800Y-126033400D03*
D15*
%TO.P,J5,2,Pin_2*%
%TO.N,/PB9*%
X146275800Y-126033400D03*
%TO.P,J5,3,Pin_3*%
%TO.N,/PB10*%
X148815800Y-126033400D03*
%TO.P,J5,4,Pin_4*%
%TO.N,/PB11*%
X151355800Y-126033400D03*
%TO.P,J5,5,Pin_5*%
%TO.N,/PB12*%
X153895800Y-126033400D03*
%TO.P,J5,6,Pin_6*%
%TO.N,/PB13*%
X156435800Y-126033400D03*
%TO.P,J5,7,Pin_7*%
%TO.N,/PB14*%
X158975800Y-126033400D03*
%TO.P,J5,8,Pin_8*%
%TO.N,/PB15*%
X161515800Y-126033400D03*
%TD*%
D14*
%TO.P,J6,1,Pin_1*%
%TO.N,+3.3V*%
X172500000Y-95750000D03*
D15*
%TO.P,J6,2,Pin_2*%
%TO.N,/SWIO*%
X172500000Y-93210000D03*
%TO.P,J6,3,Pin_3*%
%TO.N,/SWCK*%
X172500000Y-90670000D03*
%TO.P,J6,4,Pin_4*%
%TO.N,GND*%
X172500000Y-88130000D03*
%TD*%
D14*
%TO.P,J2,1,Pin_1*%
%TO.N,/PA0*%
X137122600Y-104413400D03*
D15*
%TO.P,J2,2,Pin_2*%
%TO.N,/PA1*%
X137122600Y-106953400D03*
%TO.P,J2,3,Pin_3*%
%TO.N,/PA2*%
X137122600Y-109493400D03*
%TO.P,J2,4,Pin_4*%
%TO.N,/PA3*%
X137122600Y-112033400D03*
%TO.P,J2,5,Pin_5*%
%TO.N,/PA4*%
X137122600Y-114573400D03*
%TO.P,J2,6,Pin_6*%
%TO.N,/PA5*%
X137122600Y-117113400D03*
%TO.P,J2,7,Pin_7*%
%TO.N,/PA6*%
X137122600Y-119653400D03*
%TO.P,J2,8,Pin_8*%
%TO.N,/PA7*%
X137122600Y-122193400D03*
%TD*%
D14*
%TO.P,J1,1,Pin_1*%
%TO.N,/PB0*%
X163975000Y-96200000D03*
D15*
%TO.P,J1,2,Pin_2*%
%TO.N,/PB1*%
X161435000Y-96200000D03*
%TO.P,J1,3,Pin_3*%
%TO.N,/PB2*%
X158895000Y-96200000D03*
%TO.P,J1,4,Pin_4*%
%TO.N,/PB3*%
X156355000Y-96200000D03*
%TO.P,J1,5,Pin_5*%
%TO.N,/PB4*%
X153815000Y-96200000D03*
%TO.P,J1,6,Pin_6*%
%TO.N,/PB5*%
X151275000Y-96200000D03*
%TO.P,J1,7,Pin_7*%
%TO.N,/PB6*%
X148735000Y-96200000D03*
%TO.P,J1,8,Pin_8*%
%TO.N,/PB7*%
X146195000Y-96200000D03*
%TD*%
D14*
%TO.P,J7,1,Pin_1*%
%TO.N,Net-(D2-Pad1)*%
X180579600Y-99850000D03*
D15*
%TO.P,J7,2,Pin_2*%
%TO.N,GND*%
X180579600Y-102390000D03*
%TD*%
D16*
%TO.P,J4,6,Shield*%
%TO.N,unconnected-(J4-Pad6)*%
X181895000Y-113330000D03*
D17*
X178095000Y-120930000D03*
D16*
X181895000Y-121080000D03*
D17*
X178095000Y-113480000D03*
%TD*%
D14*
%TO.P,J3,1,Pin_1*%
%TO.N,+3.3V*%
X172854600Y-135175400D03*
D15*
%TO.P,J3,2,Pin_2*%
%TO.N,/PA8*%
X172854600Y-132635400D03*
%TO.P,J3,3,Pin_3*%
%TO.N,/PA9*%
X172854600Y-130095400D03*
%TO.P,J3,4,Pin_4*%
%TO.N,/PA10*%
X172854600Y-127555400D03*
%TO.P,J3,5,Pin_5*%
%TO.N,GND*%
X172854600Y-125015400D03*
%TD*%
D18*
%TO.P,U2,9,PAD*%
%TO.N,GND*%
X172754600Y-107675400D03*
D19*
X172754600Y-107175400D03*
X172754600Y-108175400D03*
%TD*%
D20*
%TO.N,+3.3V*%
X157000000Y-119400000D03*
X147800000Y-107500000D03*
X159850000Y-106300000D03*
X165600000Y-110500000D03*
X150284314Y-103584314D03*
X157900000Y-113300000D03*
X149600000Y-115500000D03*
D21*
%TO.N,GND*%
X143700000Y-114600000D03*
D20*
X142700000Y-111900000D03*
X153200000Y-108300000D03*
D21*
X131100000Y-95700000D03*
D20*
X149200000Y-106000000D03*
X157700000Y-117600000D03*
D21*
X174900000Y-106200000D03*
D20*
X168000000Y-112100000D03*
X165000000Y-108600000D03*
D21*
X173800000Y-113000000D03*
D20*
X144400000Y-109700000D03*
X153100000Y-111600000D03*
X149855400Y-105144600D03*
%TO.N,/PB0*%
X154817758Y-112471614D03*
%TO.N,/PB1*%
X155571317Y-112962790D03*
%TO.N,/PB2*%
X156650000Y-112950000D03*
X157800000Y-103500000D03*
%TO.N,/PA2*%
X154075915Y-113419864D03*
%TO.N,/PA1*%
X153294237Y-112796980D03*
%TO.N,/PA0*%
X152202192Y-112388999D03*
%TD*%
D22*
%TO.N,/PB0*%
X163975000Y-96825000D02*
X163975000Y-96200000D01*
X162350000Y-98450000D02*
X163975000Y-96825000D01*
X160050000Y-108500000D02*
X162350000Y-106200000D01*
X162350000Y-106200000D02*
X162350000Y-98450000D01*
X160050000Y-113650000D02*
X160050000Y-108500000D01*
X155500000Y-116800000D02*
X156900000Y-116800000D01*
X154800000Y-116100000D02*
X155500000Y-116800000D01*
X156900000Y-116800000D02*
X160050000Y-113650000D01*
X154800000Y-112489372D02*
X154800000Y-116100000D01*
X154817758Y-112471614D02*
X154800000Y-112489372D01*
%TO.N,/PB1*%
X155300000Y-113234107D02*
X155571317Y-112962790D01*
X155746447Y-116246447D02*
X155300000Y-115800000D01*
X156746447Y-116246447D02*
X155746447Y-116246447D01*
X158850000Y-114142894D02*
X156746447Y-116246447D01*
X155300000Y-115800000D02*
X155300000Y-113234107D01*
X158850000Y-108550000D02*
X158850000Y-114142894D01*
X161435000Y-96200000D02*
X161435000Y-105965000D01*
X161435000Y-105965000D02*
X158850000Y-108550000D01*
%TO.N,+3.3V*%
X157900000Y-108250000D02*
X157900000Y-113300000D01*
X159850000Y-106300000D02*
X157900000Y-108250000D01*
D23*
X151368629Y-102500000D02*
X150284314Y-103584314D01*
X159850000Y-103650000D02*
X158700000Y-102500000D01*
X159850000Y-106300000D02*
X159850000Y-103650000D01*
X158700000Y-102500000D02*
X151368629Y-102500000D01*
X147800000Y-106068629D02*
X150284314Y-103584314D01*
X153500000Y-119400000D02*
X149600000Y-115500000D01*
X165600000Y-127920800D02*
X165600000Y-110500000D01*
X147800000Y-107500000D02*
X147800000Y-106068629D01*
X157000000Y-119400000D02*
X153500000Y-119400000D01*
X172854600Y-135175400D02*
X165600000Y-127920800D01*
D22*
%TO.N,/PB2*%
X157400000Y-112200000D02*
X156650000Y-112950000D01*
X157400000Y-103900000D02*
X157400000Y-112200000D01*
X157800000Y-103500000D02*
X157400000Y-103900000D01*
%TO.N,/PA2*%
X154075915Y-113419864D02*
X153895779Y-113600000D01*
X141229200Y-113600000D02*
X137122600Y-109493400D01*
X153895779Y-113600000D02*
X141229200Y-113600000D01*
%TO.N,/PA1*%
X140619200Y-110450000D02*
X137122600Y-106953400D01*
X152991217Y-113100000D02*
X148153555Y-113100000D01*
X148153555Y-113100000D02*
X145503555Y-110450000D01*
X145503555Y-110450000D02*
X140619200Y-110450000D01*
X153294237Y-112796980D02*
X152991217Y-113100000D01*
%TO.N,/PA0*%
X148360661Y-112600000D02*
X151991191Y-112600000D01*
X151991191Y-112600000D02*
X152202192Y-112388999D01*
X140174061Y-104413400D02*
X137122600Y-104413400D01*
X148360661Y-112600000D02*
X140174061Y-104413400D01*
%TD*%
%TA.AperFunction,Conductor*%
%TO.N,GND*%
G36*
X182733622Y-85946396D02*
G01*
X182748456Y-85948706D01*
X182748457Y-85948706D01*
X182757326Y-85950087D01*
X182766227Y-85948923D01*
X182775201Y-85949033D01*
X182775199Y-85949237D01*
X182796647Y-85949247D01*
X182848481Y-85956071D01*
X182880253Y-85964584D01*
X182944030Y-85991001D01*
X182972511Y-86007444D01*
X183027279Y-86049470D01*
X183050530Y-86072721D01*
X183092556Y-86127489D01*
X183108998Y-86155969D01*
X183135416Y-86219746D01*
X183143930Y-86251521D01*
X183150269Y-86299676D01*
X183151338Y-86317656D01*
X183151294Y-86321252D01*
X183149913Y-86330122D01*
X183151077Y-86339023D01*
X183151077Y-86339025D01*
X183154070Y-86361908D01*
X183155134Y-86378155D01*
X183174027Y-112417256D01*
X183174049Y-112448218D01*
X183154096Y-112516353D01*
X183100474Y-112562885D01*
X183030208Y-112573039D01*
X182960918Y-112539327D01*
X182898918Y-112479975D01*
X182894585Y-112475827D01*
X182889546Y-112472573D01*
X182889543Y-112472571D01*
X182725935Y-112366932D01*
X182725936Y-112366932D01*
X182720894Y-112363677D01*
X182715331Y-112361435D01*
X182715327Y-112361433D01*
X182534699Y-112288638D01*
X182534696Y-112288637D01*
X182529130Y-112286394D01*
X182408814Y-112262898D01*
X182330658Y-112247635D01*
X182330655Y-112247635D01*
X182326212Y-112246767D01*
X182320753Y-112246500D01*
X181518349Y-112246500D01*
X181364183Y-112261209D01*
X181165793Y-112319410D01*
X181160466Y-112322154D01*
X181160465Y-112322154D01*
X180987318Y-112411330D01*
X180987315Y-112411332D01*
X180981987Y-112414076D01*
X180819399Y-112541791D01*
X180815468Y-112546321D01*
X180815467Y-112546322D01*
X180792283Y-112573039D01*
X180683894Y-112697947D01*
X180580362Y-112876908D01*
X180512539Y-113072219D01*
X180511678Y-113078154D01*
X180511678Y-113078156D01*
X180489819Y-113228916D01*
X180482871Y-113276831D01*
X180492431Y-113483361D01*
X180493835Y-113489186D01*
X180493835Y-113489187D01*
X180537074Y-113668600D01*
X180540871Y-113684357D01*
X180543353Y-113689815D01*
X180543354Y-113689819D01*
X180583415Y-113777929D01*
X180626445Y-113872568D01*
X180746065Y-114041201D01*
X180750388Y-114045339D01*
X180750392Y-114045344D01*
X180878579Y-114168056D01*
X180895415Y-114184173D01*
X180900454Y-114187427D01*
X180900457Y-114187429D01*
X181016026Y-114262050D01*
X181069106Y-114296323D01*
X181074669Y-114298565D01*
X181074673Y-114298567D01*
X181255301Y-114371362D01*
X181255304Y-114371363D01*
X181260870Y-114373606D01*
X181361561Y-114393269D01*
X181459342Y-114412365D01*
X181459345Y-114412365D01*
X181463788Y-114413233D01*
X181469247Y-114413500D01*
X182271651Y-114413500D01*
X182425817Y-114398791D01*
X182624207Y-114340590D01*
X182649194Y-114327721D01*
X182802682Y-114248670D01*
X182802685Y-114248668D01*
X182808013Y-114245924D01*
X182970601Y-114118209D01*
X182972157Y-114120190D01*
X183025576Y-114092700D01*
X183096246Y-114099500D01*
X183152021Y-114143427D01*
X183175332Y-114216349D01*
X183175446Y-114373606D01*
X183179646Y-120160640D01*
X183179677Y-120203606D01*
X183159724Y-120271741D01*
X183106102Y-120318273D01*
X183035836Y-120328427D01*
X182966546Y-120294715D01*
X182943257Y-120272420D01*
X182894585Y-120225827D01*
X182889546Y-120222573D01*
X182889543Y-120222571D01*
X182753983Y-120135042D01*
X182720894Y-120113677D01*
X182715331Y-120111435D01*
X182715327Y-120111433D01*
X182534699Y-120038638D01*
X182534696Y-120038637D01*
X182529130Y-120036394D01*
X182408814Y-120012898D01*
X182330658Y-119997635D01*
X182330655Y-119997635D01*
X182326212Y-119996767D01*
X182320753Y-119996500D01*
X181518349Y-119996500D01*
X181364183Y-120011209D01*
X181165793Y-120069410D01*
X181160466Y-120072154D01*
X181160465Y-120072154D01*
X180987318Y-120161330D01*
X180987315Y-120161332D01*
X180981987Y-120164076D01*
X180819399Y-120291791D01*
X180683894Y-120447947D01*
X180580362Y-120626908D01*
X180512539Y-120822219D01*
X180511678Y-120828154D01*
X180511678Y-120828156D01*
X180488971Y-120984764D01*
X180482871Y-121026831D01*
X180492431Y-121233361D01*
X180493835Y-121239186D01*
X180493835Y-121239187D01*
X180522435Y-121357857D01*
X180540871Y-121434357D01*
X180543353Y-121439815D01*
X180543354Y-121439819D01*
X180581981Y-121524775D01*
X180626445Y-121622568D01*
X180746065Y-121791201D01*
X180750388Y-121795339D01*
X180750392Y-121795344D01*
X180847252Y-121888067D01*
X180895415Y-121934173D01*
X180900454Y-121937427D01*
X180900457Y-121937429D01*
X180986126Y-121992744D01*
X181069106Y-122046323D01*
X181074669Y-122048565D01*
X181074673Y-122048567D01*
X181255301Y-122121362D01*
X181255304Y-122121363D01*
X181260870Y-122123606D01*
X181361561Y-122143269D01*
X181459342Y-122162365D01*
X181459345Y-122162365D01*
X181463788Y-122163233D01*
X181469247Y-122163500D01*
X182271651Y-122163500D01*
X182425817Y-122148791D01*
X182624207Y-122090590D01*
X182730989Y-122035594D01*
X182802682Y-121998670D01*
X182802685Y-121998668D01*
X182808013Y-121995924D01*
X182882480Y-121937429D01*
X182965884Y-121871915D01*
X182965888Y-121871911D01*
X182970601Y-121868209D01*
X182970783Y-121868441D01*
X183031184Y-121837351D01*
X183101855Y-121844145D01*
X183157634Y-121888067D01*
X183180951Y-121960998D01*
X183186668Y-129839970D01*
X183191451Y-136430893D01*
X183191465Y-136450768D01*
X183189965Y-136470245D01*
X183186309Y-136493724D01*
X183187473Y-136502625D01*
X183187363Y-136511600D01*
X183187159Y-136511598D01*
X183187149Y-136533044D01*
X183180325Y-136584880D01*
X183171812Y-136616652D01*
X183145397Y-136680425D01*
X183128949Y-136708913D01*
X183086929Y-136763673D01*
X183063673Y-136786929D01*
X183008911Y-136828950D01*
X182980426Y-136845396D01*
X182975437Y-136847463D01*
X182916652Y-136871812D01*
X182884881Y-136880325D01*
X182836723Y-136886665D01*
X182818740Y-136887734D01*
X182815146Y-136887690D01*
X182806276Y-136886309D01*
X182774965Y-136890403D01*
X182758535Y-136891466D01*
X149771120Y-136865370D01*
X127145688Y-136847471D01*
X127126408Y-136845971D01*
X127102461Y-136842241D01*
X127093557Y-136843405D01*
X127084582Y-136843295D01*
X127084585Y-136843091D01*
X127063143Y-136843081D01*
X127011293Y-136836253D01*
X126979530Y-136827740D01*
X126915754Y-136801321D01*
X126887270Y-136784876D01*
X126859638Y-136763673D01*
X126832502Y-136742850D01*
X126809247Y-136719595D01*
X126801051Y-136708913D01*
X126767223Y-136664829D01*
X126750777Y-136636344D01*
X126724360Y-136572571D01*
X126715847Y-136540802D01*
X126709501Y-136492612D01*
X126708431Y-136474623D01*
X126708474Y-136471065D01*
X126709856Y-136462190D01*
X126705763Y-136430893D01*
X126704699Y-136414452D01*
X126712311Y-126931534D01*
X142377300Y-126931534D01*
X142384055Y-126993716D01*
X142435185Y-127130105D01*
X142522539Y-127246661D01*
X142639095Y-127334015D01*
X142775484Y-127385145D01*
X142837666Y-127391900D01*
X144633934Y-127391900D01*
X144696116Y-127385145D01*
X144832505Y-127334015D01*
X144949061Y-127246661D01*
X145036415Y-127130105D01*
X145041146Y-127117486D01*
X145080398Y-127012782D01*
X145123040Y-126956018D01*
X145189602Y-126931318D01*
X145258950Y-126946526D01*
X145293617Y-126974514D01*
X145322050Y-127007338D01*
X145493926Y-127150032D01*
X145686800Y-127262738D01*
X145895492Y-127342430D01*
X145900560Y-127343461D01*
X145900563Y-127343462D01*
X146007817Y-127365283D01*
X146114397Y-127386967D01*
X146119572Y-127387157D01*
X146119574Y-127387157D01*
X146332473Y-127394964D01*
X146332477Y-127394964D01*
X146337637Y-127395153D01*
X146342757Y-127394497D01*
X146342759Y-127394497D01*
X146554088Y-127367425D01*
X146554089Y-127367425D01*
X146559216Y-127366768D01*
X146564166Y-127365283D01*
X146768229Y-127304061D01*
X146768234Y-127304059D01*
X146773184Y-127302574D01*
X146973794Y-127204296D01*
X147155660Y-127074573D01*
X147313896Y-126916889D01*
X147341984Y-126877801D01*
X147444253Y-126735477D01*
X147445576Y-126736428D01*
X147492445Y-126693257D01*
X147562380Y-126681025D01*
X147627826Y-126708544D01*
X147655675Y-126740394D01*
X147715787Y-126838488D01*
X147862050Y-127007338D01*
X148033926Y-127150032D01*
X148226800Y-127262738D01*
X148435492Y-127342430D01*
X148440560Y-127343461D01*
X148440563Y-127343462D01*
X148547817Y-127365283D01*
X148654397Y-127386967D01*
X148659572Y-127387157D01*
X148659574Y-127387157D01*
X148872473Y-127394964D01*
X148872477Y-127394964D01*
X148877637Y-127395153D01*
X148882757Y-127394497D01*
X148882759Y-127394497D01*
X149094088Y-127367425D01*
X149094089Y-127367425D01*
X149099216Y-127366768D01*
X149104166Y-127365283D01*
X149308229Y-127304061D01*
X149308234Y-127304059D01*
X149313184Y-127302574D01*
X149513794Y-127204296D01*
X149695660Y-127074573D01*
X149853896Y-126916889D01*
X149881984Y-126877801D01*
X149984253Y-126735477D01*
X149985576Y-126736428D01*
X150032445Y-126693257D01*
X150102380Y-126681025D01*
X150167826Y-126708544D01*
X150195675Y-126740394D01*
X150255787Y-126838488D01*
X150402050Y-127007338D01*
X150573926Y-127150032D01*
X150766800Y-127262738D01*
X150975492Y-127342430D01*
X150980560Y-127343461D01*
X150980563Y-127343462D01*
X151087817Y-127365283D01*
X151194397Y-127386967D01*
X151199572Y-127387157D01*
X151199574Y-127387157D01*
X151412473Y-127394964D01*
X151412477Y-127394964D01*
X151417637Y-127395153D01*
X151422757Y-127394497D01*
X151422759Y-127394497D01*
X151634088Y-127367425D01*
X151634089Y-127367425D01*
X151639216Y-127366768D01*
X151644166Y-127365283D01*
X151848229Y-127304061D01*
X151848234Y-127304059D01*
X151853184Y-127302574D01*
X152053794Y-127204296D01*
X152235660Y-127074573D01*
X152393896Y-126916889D01*
X152421984Y-126877801D01*
X152524253Y-126735477D01*
X152525576Y-126736428D01*
X152572445Y-126693257D01*
X152642380Y-126681025D01*
X152707826Y-126708544D01*
X152735675Y-126740394D01*
X152795787Y-126838488D01*
X152942050Y-127007338D01*
X153113926Y-127150032D01*
X153306800Y-127262738D01*
X153515492Y-127342430D01*
X153520560Y-127343461D01*
X153520563Y-127343462D01*
X153627817Y-127365283D01*
X153734397Y-127386967D01*
X153739572Y-127387157D01*
X153739574Y-127387157D01*
X153952473Y-127394964D01*
X153952477Y-127394964D01*
X153957637Y-127395153D01*
X153962757Y-127394497D01*
X153962759Y-127394497D01*
X154174088Y-127367425D01*
X154174089Y-127367425D01*
X154179216Y-127366768D01*
X154184166Y-127365283D01*
X154388229Y-127304061D01*
X154388234Y-127304059D01*
X154393184Y-127302574D01*
X154593794Y-127204296D01*
X154775660Y-127074573D01*
X154933896Y-126916889D01*
X154961984Y-126877801D01*
X155064253Y-126735477D01*
X155065576Y-126736428D01*
X155112445Y-126693257D01*
X155182380Y-126681025D01*
X155247826Y-126708544D01*
X155275675Y-126740394D01*
X155335787Y-126838488D01*
X155482050Y-127007338D01*
X155653926Y-127150032D01*
X155846800Y-127262738D01*
X156055492Y-127342430D01*
X156060560Y-127343461D01*
X156060563Y-127343462D01*
X156167817Y-127365283D01*
X156274397Y-127386967D01*
X156279572Y-127387157D01*
X156279574Y-127387157D01*
X156492473Y-127394964D01*
X156492477Y-127394964D01*
X156497637Y-127395153D01*
X156502757Y-127394497D01*
X156502759Y-127394497D01*
X156714088Y-127367425D01*
X156714089Y-127367425D01*
X156719216Y-127366768D01*
X156724166Y-127365283D01*
X156928229Y-127304061D01*
X156928234Y-127304059D01*
X156933184Y-127302574D01*
X157133794Y-127204296D01*
X157315660Y-127074573D01*
X157473896Y-126916889D01*
X157501984Y-126877801D01*
X157604253Y-126735477D01*
X157605576Y-126736428D01*
X157652445Y-126693257D01*
X157722380Y-126681025D01*
X157787826Y-126708544D01*
X157815675Y-126740394D01*
X157875787Y-126838488D01*
X158022050Y-127007338D01*
X158193926Y-127150032D01*
X158386800Y-127262738D01*
X158595492Y-127342430D01*
X158600560Y-127343461D01*
X158600563Y-127343462D01*
X158707817Y-127365283D01*
X158814397Y-127386967D01*
X158819572Y-127387157D01*
X158819574Y-127387157D01*
X159032473Y-127394964D01*
X159032477Y-127394964D01*
X159037637Y-127395153D01*
X159042757Y-127394497D01*
X159042759Y-127394497D01*
X159254088Y-127367425D01*
X159254089Y-127367425D01*
X159259216Y-127366768D01*
X159264166Y-127365283D01*
X159468229Y-127304061D01*
X159468234Y-127304059D01*
X159473184Y-127302574D01*
X159673794Y-127204296D01*
X159855660Y-127074573D01*
X160013896Y-126916889D01*
X160041984Y-126877801D01*
X160144253Y-126735477D01*
X160145576Y-126736428D01*
X160192445Y-126693257D01*
X160262380Y-126681025D01*
X160327826Y-126708544D01*
X160355675Y-126740394D01*
X160415787Y-126838488D01*
X160562050Y-127007338D01*
X160733926Y-127150032D01*
X160926800Y-127262738D01*
X161135492Y-127342430D01*
X161140560Y-127343461D01*
X161140563Y-127343462D01*
X161247817Y-127365283D01*
X161354397Y-127386967D01*
X161359572Y-127387157D01*
X161359574Y-127387157D01*
X161572473Y-127394964D01*
X161572477Y-127394964D01*
X161577637Y-127395153D01*
X161582757Y-127394497D01*
X161582759Y-127394497D01*
X161794088Y-127367425D01*
X161794089Y-127367425D01*
X161799216Y-127366768D01*
X161804166Y-127365283D01*
X162008229Y-127304061D01*
X162008234Y-127304059D01*
X162013184Y-127302574D01*
X162213794Y-127204296D01*
X162395660Y-127074573D01*
X162553896Y-126916889D01*
X162581984Y-126877801D01*
X162681235Y-126739677D01*
X162684253Y-126735477D01*
X162704851Y-126693801D01*
X162780936Y-126539853D01*
X162780937Y-126539851D01*
X162783230Y-126535211D01*
X162848170Y-126321469D01*
X162877329Y-126099990D01*
X162878326Y-126059192D01*
X162878874Y-126036765D01*
X162878874Y-126036761D01*
X162878956Y-126033400D01*
X162860652Y-125810761D01*
X162806231Y-125594102D01*
X162717154Y-125389240D01*
X162664798Y-125308310D01*
X162598622Y-125206017D01*
X162598620Y-125206014D01*
X162595814Y-125201677D01*
X162445470Y-125036451D01*
X162441419Y-125033252D01*
X162441415Y-125033248D01*
X162274214Y-124901200D01*
X162274210Y-124901198D01*
X162270159Y-124897998D01*
X162074589Y-124790038D01*
X162069720Y-124788314D01*
X162069716Y-124788312D01*
X161868887Y-124717195D01*
X161868883Y-124717194D01*
X161864012Y-124715469D01*
X161858919Y-124714562D01*
X161858916Y-124714561D01*
X161649173Y-124677200D01*
X161649167Y-124677199D01*
X161644084Y-124676294D01*
X161570252Y-124675392D01*
X161425881Y-124673628D01*
X161425879Y-124673628D01*
X161420711Y-124673565D01*
X161199891Y-124707355D01*
X160987556Y-124776757D01*
X160789407Y-124879907D01*
X160785274Y-124883010D01*
X160785271Y-124883012D01*
X160614900Y-125010930D01*
X160610765Y-125014035D01*
X160607193Y-125017773D01*
X160499529Y-125130437D01*
X160456429Y-125175538D01*
X160349001Y-125333021D01*
X160294093Y-125378021D01*
X160223568Y-125386192D01*
X160159821Y-125354938D01*
X160139124Y-125330454D01*
X160058622Y-125206017D01*
X160058620Y-125206014D01*
X160055814Y-125201677D01*
X159905470Y-125036451D01*
X159901419Y-125033252D01*
X159901415Y-125033248D01*
X159734214Y-124901200D01*
X159734210Y-124901198D01*
X159730159Y-124897998D01*
X159534589Y-124790038D01*
X159529720Y-124788314D01*
X159529716Y-124788312D01*
X159328887Y-124717195D01*
X159328883Y-124717194D01*
X159324012Y-124715469D01*
X159318919Y-124714562D01*
X159318916Y-124714561D01*
X159109173Y-124677200D01*
X159109167Y-124677199D01*
X159104084Y-124676294D01*
X159030252Y-124675392D01*
X158885881Y-124673628D01*
X158885879Y-124673628D01*
X158880711Y-124673565D01*
X158659891Y-124707355D01*
X158447556Y-124776757D01*
X158249407Y-124879907D01*
X158245274Y-124883010D01*
X158245271Y-124883012D01*
X158074900Y-125010930D01*
X158070765Y-125014035D01*
X158067193Y-125017773D01*
X157959529Y-125130437D01*
X157916429Y-125175538D01*
X157809001Y-125333021D01*
X157754093Y-125378021D01*
X157683568Y-125386192D01*
X157619821Y-125354938D01*
X157599124Y-125330454D01*
X157518622Y-125206017D01*
X157518620Y-125206014D01*
X157515814Y-125201677D01*
X157365470Y-125036451D01*
X157361419Y-125033252D01*
X157361415Y-125033248D01*
X157194214Y-124901200D01*
X157194210Y-124901198D01*
X157190159Y-124897998D01*
X156994589Y-124790038D01*
X156989720Y-124788314D01*
X156989716Y-124788312D01*
X156788887Y-124717195D01*
X156788883Y-124717194D01*
X156784012Y-124715469D01*
X156778919Y-124714562D01*
X156778916Y-124714561D01*
X156569173Y-124677200D01*
X156569167Y-124677199D01*
X156564084Y-124676294D01*
X156490252Y-124675392D01*
X156345881Y-124673628D01*
X156345879Y-124673628D01*
X156340711Y-124673565D01*
X156119891Y-124707355D01*
X155907556Y-124776757D01*
X155709407Y-124879907D01*
X155705274Y-124883010D01*
X155705271Y-124883012D01*
X155534900Y-125010930D01*
X155530765Y-125014035D01*
X155527193Y-125017773D01*
X155419529Y-125130437D01*
X155376429Y-125175538D01*
X155269001Y-125333021D01*
X155214093Y-125378021D01*
X155143568Y-125386192D01*
X155079821Y-125354938D01*
X155059124Y-125330454D01*
X154978622Y-125206017D01*
X154978620Y-125206014D01*
X154975814Y-125201677D01*
X154825470Y-125036451D01*
X154821419Y-125033252D01*
X154821415Y-125033248D01*
X154654214Y-124901200D01*
X154654210Y-124901198D01*
X154650159Y-124897998D01*
X154454589Y-124790038D01*
X154449720Y-124788314D01*
X154449716Y-124788312D01*
X154248887Y-124717195D01*
X154248883Y-124717194D01*
X154244012Y-124715469D01*
X154238919Y-124714562D01*
X154238916Y-124714561D01*
X154029173Y-124677200D01*
X154029167Y-124677199D01*
X154024084Y-124676294D01*
X153950252Y-124675392D01*
X153805881Y-124673628D01*
X153805879Y-124673628D01*
X153800711Y-124673565D01*
X153579891Y-124707355D01*
X153367556Y-124776757D01*
X153169407Y-124879907D01*
X153165274Y-124883010D01*
X153165271Y-124883012D01*
X152994900Y-125010930D01*
X152990765Y-125014035D01*
X152987193Y-125017773D01*
X152879529Y-125130437D01*
X152836429Y-125175538D01*
X152729001Y-125333021D01*
X152674093Y-125378021D01*
X152603568Y-125386192D01*
X152539821Y-125354938D01*
X152519124Y-125330454D01*
X152438622Y-125206017D01*
X152438620Y-125206014D01*
X152435814Y-125201677D01*
X152285470Y-125036451D01*
X152281419Y-125033252D01*
X152281415Y-125033248D01*
X152114214Y-124901200D01*
X152114210Y-124901198D01*
X152110159Y-124897998D01*
X151914589Y-124790038D01*
X151909720Y-124788314D01*
X151909716Y-124788312D01*
X151708887Y-124717195D01*
X151708883Y-124717194D01*
X151704012Y-124715469D01*
X151698919Y-124714562D01*
X151698916Y-124714561D01*
X151489173Y-124677200D01*
X151489167Y-124677199D01*
X151484084Y-124676294D01*
X151410252Y-124675392D01*
X151265881Y-124673628D01*
X151265879Y-124673628D01*
X151260711Y-124673565D01*
X151039891Y-124707355D01*
X150827556Y-124776757D01*
X150629407Y-124879907D01*
X150625274Y-124883010D01*
X150625271Y-124883012D01*
X150454900Y-125010930D01*
X150450765Y-125014035D01*
X150447193Y-125017773D01*
X150339529Y-125130437D01*
X150296429Y-125175538D01*
X150189001Y-125333021D01*
X150134093Y-125378021D01*
X150063568Y-125386192D01*
X149999821Y-125354938D01*
X149979124Y-125330454D01*
X149898622Y-125206017D01*
X149898620Y-125206014D01*
X149895814Y-125201677D01*
X149745470Y-125036451D01*
X149741419Y-125033252D01*
X149741415Y-125033248D01*
X149574214Y-124901200D01*
X149574210Y-124901198D01*
X149570159Y-124897998D01*
X149374589Y-124790038D01*
X149369720Y-124788314D01*
X149369716Y-124788312D01*
X149168887Y-124717195D01*
X149168883Y-124717194D01*
X149164012Y-124715469D01*
X149158919Y-124714562D01*
X149158916Y-124714561D01*
X148949173Y-124677200D01*
X148949167Y-124677199D01*
X148944084Y-124676294D01*
X148870252Y-124675392D01*
X148725881Y-124673628D01*
X148725879Y-124673628D01*
X148720711Y-124673565D01*
X148499891Y-124707355D01*
X148287556Y-124776757D01*
X148089407Y-124879907D01*
X148085274Y-124883010D01*
X148085271Y-124883012D01*
X147914900Y-125010930D01*
X147910765Y-125014035D01*
X147907193Y-125017773D01*
X147799529Y-125130437D01*
X147756429Y-125175538D01*
X147649001Y-125333021D01*
X147594093Y-125378021D01*
X147523568Y-125386192D01*
X147459821Y-125354938D01*
X147439124Y-125330454D01*
X147358622Y-125206017D01*
X147358620Y-125206014D01*
X147355814Y-125201677D01*
X147205470Y-125036451D01*
X147201419Y-125033252D01*
X147201415Y-125033248D01*
X147034214Y-124901200D01*
X147034210Y-124901198D01*
X147030159Y-124897998D01*
X146834589Y-124790038D01*
X146829720Y-124788314D01*
X146829716Y-124788312D01*
X146628887Y-124717195D01*
X146628883Y-124717194D01*
X146624012Y-124715469D01*
X146618919Y-124714562D01*
X146618916Y-124714561D01*
X146409173Y-124677200D01*
X146409167Y-124677199D01*
X146404084Y-124676294D01*
X146330252Y-124675392D01*
X146185881Y-124673628D01*
X146185879Y-124673628D01*
X146180711Y-124673565D01*
X145959891Y-124707355D01*
X145747556Y-124776757D01*
X145549407Y-124879907D01*
X145545274Y-124883010D01*
X145545271Y-124883012D01*
X145374900Y-125010930D01*
X145370765Y-125014035D01*
X145314337Y-125073084D01*
X145290083Y-125098464D01*
X145228559Y-125133894D01*
X145157646Y-125130437D01*
X145099860Y-125089191D01*
X145081007Y-125055643D01*
X145039567Y-124945103D01*
X145036415Y-124936695D01*
X144949061Y-124820139D01*
X144832505Y-124732785D01*
X144696116Y-124681655D01*
X144633934Y-124674900D01*
X142837666Y-124674900D01*
X142775484Y-124681655D01*
X142639095Y-124732785D01*
X142522539Y-124820139D01*
X142435185Y-124936695D01*
X142384055Y-125073084D01*
X142377300Y-125135266D01*
X142377300Y-126931534D01*
X126712311Y-126931534D01*
X126716141Y-122160095D01*
X135759851Y-122160095D01*
X135760148Y-122165248D01*
X135760148Y-122165251D01*
X135765611Y-122259990D01*
X135772710Y-122383115D01*
X135773847Y-122388161D01*
X135773848Y-122388167D01*
X135793719Y-122476339D01*
X135821822Y-122601039D01*
X135905866Y-122808016D01*
X136022587Y-122998488D01*
X136168850Y-123167338D01*
X136340726Y-123310032D01*
X136533600Y-123422738D01*
X136742292Y-123502430D01*
X136747360Y-123503461D01*
X136747363Y-123503462D01*
X136854617Y-123525283D01*
X136961197Y-123546967D01*
X136966372Y-123547157D01*
X136966374Y-123547157D01*
X137179273Y-123554964D01*
X137179277Y-123554964D01*
X137184437Y-123555153D01*
X137189557Y-123554497D01*
X137189559Y-123554497D01*
X137400888Y-123527425D01*
X137400889Y-123527425D01*
X137406016Y-123526768D01*
X137410966Y-123525283D01*
X137615029Y-123464061D01*
X137615034Y-123464059D01*
X137619984Y-123462574D01*
X137820594Y-123364296D01*
X138002460Y-123234573D01*
X138160696Y-123076889D01*
X138220194Y-122994089D01*
X138288035Y-122899677D01*
X138291053Y-122895477D01*
X138390030Y-122695211D01*
X138454970Y-122481469D01*
X138484129Y-122259990D01*
X138485756Y-122193400D01*
X138467452Y-121970761D01*
X138413031Y-121754102D01*
X138323954Y-121549240D01*
X138245859Y-121428524D01*
X138205422Y-121366017D01*
X138205420Y-121366014D01*
X138202614Y-121361677D01*
X138052270Y-121196451D01*
X138048219Y-121193252D01*
X138048215Y-121193248D01*
X137881014Y-121061200D01*
X137881010Y-121061198D01*
X137876959Y-121057998D01*
X137835653Y-121035196D01*
X137785684Y-120984764D01*
X137770912Y-120915321D01*
X137796028Y-120848916D01*
X137823380Y-120822309D01*
X137867203Y-120791050D01*
X138002460Y-120694573D01*
X138160696Y-120536889D01*
X138169004Y-120525328D01*
X138288035Y-120359677D01*
X138291053Y-120355477D01*
X138301987Y-120333355D01*
X138387736Y-120159853D01*
X138387737Y-120159851D01*
X138390030Y-120155211D01*
X138426069Y-120036593D01*
X138453465Y-119946423D01*
X138453465Y-119946421D01*
X138454970Y-119941469D01*
X138484129Y-119719990D01*
X138485756Y-119653400D01*
X138467452Y-119430761D01*
X138413031Y-119214102D01*
X138323954Y-119009240D01*
X138245326Y-118887699D01*
X138205422Y-118826017D01*
X138205420Y-118826014D01*
X138202614Y-118821677D01*
X138052270Y-118656451D01*
X138048219Y-118653252D01*
X138048215Y-118653248D01*
X137881014Y-118521200D01*
X137881010Y-118521198D01*
X137876959Y-118517998D01*
X137835653Y-118495196D01*
X137785684Y-118444764D01*
X137770912Y-118375321D01*
X137796028Y-118308916D01*
X137823380Y-118282309D01*
X137867203Y-118251050D01*
X138002460Y-118154573D01*
X138160696Y-117996889D01*
X138220194Y-117914089D01*
X138288035Y-117819677D01*
X138291053Y-117815477D01*
X138390030Y-117615211D01*
X138436529Y-117462166D01*
X138453465Y-117406423D01*
X138453465Y-117406421D01*
X138454970Y-117401469D01*
X138484129Y-117179990D01*
X138485756Y-117113400D01*
X138467452Y-116890761D01*
X138413031Y-116674102D01*
X138323954Y-116469240D01*
X138260023Y-116370418D01*
X138205422Y-116286017D01*
X138205420Y-116286014D01*
X138202614Y-116281677D01*
X138052270Y-116116451D01*
X138048219Y-116113252D01*
X138048215Y-116113248D01*
X137881014Y-115981200D01*
X137881010Y-115981198D01*
X137876959Y-115977998D01*
X137835653Y-115955196D01*
X137785684Y-115904764D01*
X137770912Y-115835321D01*
X137796028Y-115768916D01*
X137823380Y-115742309D01*
X137867203Y-115711050D01*
X138002460Y-115614573D01*
X138117434Y-115500000D01*
X148736771Y-115500000D01*
X148737461Y-115506565D01*
X148741747Y-115547338D01*
X148755635Y-115679475D01*
X148811401Y-115851107D01*
X148901633Y-116007393D01*
X148906051Y-116012300D01*
X148906052Y-116012301D01*
X148996116Y-116112327D01*
X149022387Y-116141504D01*
X149027729Y-116145385D01*
X149027731Y-116145387D01*
X149118652Y-116211445D01*
X149168385Y-116247578D01*
X149174413Y-116250262D01*
X149174415Y-116250263D01*
X149333248Y-116320980D01*
X149332741Y-116322118D01*
X149375859Y-116348540D01*
X152916230Y-119888911D01*
X152928616Y-119903323D01*
X152937149Y-119914918D01*
X152937154Y-119914923D01*
X152941492Y-119920818D01*
X152947070Y-119925557D01*
X152947073Y-119925560D01*
X152981768Y-119955035D01*
X152989284Y-119961965D01*
X152994979Y-119967660D01*
X152997861Y-119969940D01*
X153017251Y-119985281D01*
X153020655Y-119988072D01*
X153070703Y-120030591D01*
X153076285Y-120035333D01*
X153082801Y-120038661D01*
X153087850Y-120042028D01*
X153092979Y-120045195D01*
X153098716Y-120049734D01*
X153164875Y-120080655D01*
X153168769Y-120082558D01*
X153233808Y-120115769D01*
X153240916Y-120117508D01*
X153246559Y-120119607D01*
X153252322Y-120121524D01*
X153258950Y-120124622D01*
X153266112Y-120126112D01*
X153266113Y-120126112D01*
X153330412Y-120139486D01*
X153334696Y-120140456D01*
X153405610Y-120157808D01*
X153411212Y-120158156D01*
X153411215Y-120158156D01*
X153416764Y-120158500D01*
X153416762Y-120158536D01*
X153420755Y-120158775D01*
X153424947Y-120159149D01*
X153432115Y-120160640D01*
X153509520Y-120158546D01*
X153512928Y-120158500D01*
X156566133Y-120158500D01*
X156617382Y-120169393D01*
X156733248Y-120220980D01*
X156804976Y-120236226D01*
X156903311Y-120257128D01*
X156903315Y-120257128D01*
X156909768Y-120258500D01*
X157090232Y-120258500D01*
X157096685Y-120257128D01*
X157096689Y-120257128D01*
X157195024Y-120236226D01*
X157266752Y-120220980D01*
X157386241Y-120167780D01*
X157425585Y-120150263D01*
X157425587Y-120150262D01*
X157431615Y-120147578D01*
X157442753Y-120139486D01*
X157572269Y-120045387D01*
X157572271Y-120045385D01*
X157577613Y-120041504D01*
X157582214Y-120036394D01*
X157693948Y-119912301D01*
X157693949Y-119912300D01*
X157698367Y-119907393D01*
X157788599Y-119751107D01*
X157844365Y-119579475D01*
X157863229Y-119400000D01*
X157844365Y-119220525D01*
X157840736Y-119209354D01*
X157790641Y-119055178D01*
X157788599Y-119048893D01*
X157778295Y-119031045D01*
X157701668Y-118898325D01*
X157698367Y-118892607D01*
X157647584Y-118836206D01*
X157582035Y-118763407D01*
X157582034Y-118763406D01*
X157577613Y-118758496D01*
X157437161Y-118656451D01*
X157436957Y-118656303D01*
X157436956Y-118656302D01*
X157431615Y-118652422D01*
X157425587Y-118649738D01*
X157425585Y-118649737D01*
X157272783Y-118581705D01*
X157272781Y-118581705D01*
X157266752Y-118579020D01*
X157178492Y-118560260D01*
X157096689Y-118542872D01*
X157096685Y-118542872D01*
X157090232Y-118541500D01*
X156909768Y-118541500D01*
X156903315Y-118542872D01*
X156903311Y-118542872D01*
X156821508Y-118560260D01*
X156733248Y-118579020D01*
X156727219Y-118581704D01*
X156727217Y-118581705D01*
X156617383Y-118630607D01*
X156566134Y-118641500D01*
X153866371Y-118641500D01*
X153798250Y-118621498D01*
X153777276Y-118604595D01*
X150442249Y-115269568D01*
X150411511Y-115219409D01*
X150390641Y-115155178D01*
X150388599Y-115148893D01*
X150298367Y-114992607D01*
X150292261Y-114985825D01*
X150182035Y-114863407D01*
X150182034Y-114863406D01*
X150177613Y-114858496D01*
X150039220Y-114757947D01*
X150036957Y-114756303D01*
X150036956Y-114756302D01*
X150031615Y-114752422D01*
X150025587Y-114749738D01*
X150025585Y-114749737D01*
X149872783Y-114681705D01*
X149872781Y-114681705D01*
X149866752Y-114679020D01*
X149778492Y-114660260D01*
X149696689Y-114642872D01*
X149696685Y-114642872D01*
X149690232Y-114641500D01*
X149509768Y-114641500D01*
X149503315Y-114642872D01*
X149503311Y-114642872D01*
X149421508Y-114660260D01*
X149333248Y-114679020D01*
X149327219Y-114681704D01*
X149327217Y-114681705D01*
X149174416Y-114749737D01*
X149174414Y-114749738D01*
X149168386Y-114752422D01*
X149163045Y-114756302D01*
X149163044Y-114756303D01*
X149027731Y-114854613D01*
X149027729Y-114854615D01*
X149022387Y-114858496D01*
X149017966Y-114863406D01*
X149017965Y-114863407D01*
X148907740Y-114985825D01*
X148901633Y-114992607D01*
X148811401Y-115148893D01*
X148809359Y-115155178D01*
X148779573Y-115246852D01*
X148755635Y-115320525D01*
X148736771Y-115500000D01*
X138117434Y-115500000D01*
X138160696Y-115456889D01*
X138220194Y-115374089D01*
X138288035Y-115279677D01*
X138291053Y-115275477D01*
X138293974Y-115269568D01*
X138387736Y-115079853D01*
X138387737Y-115079851D01*
X138390030Y-115075211D01*
X138454970Y-114861469D01*
X138484129Y-114639990D01*
X138485756Y-114573400D01*
X138467452Y-114350761D01*
X138413031Y-114134102D01*
X138323954Y-113929240D01*
X138229787Y-113783680D01*
X138205422Y-113746017D01*
X138205420Y-113746014D01*
X138202614Y-113741677D01*
X138052270Y-113576451D01*
X138048219Y-113573252D01*
X138048215Y-113573248D01*
X137881014Y-113441200D01*
X137881010Y-113441198D01*
X137876959Y-113437998D01*
X137835653Y-113415196D01*
X137785684Y-113364764D01*
X137770912Y-113295321D01*
X137796028Y-113228916D01*
X137823380Y-113202309D01*
X137867203Y-113171050D01*
X138002460Y-113074573D01*
X138160696Y-112916889D01*
X138181101Y-112888493D01*
X138288035Y-112739677D01*
X138291053Y-112735477D01*
X138309602Y-112697947D01*
X138387736Y-112539853D01*
X138387737Y-112539851D01*
X138390030Y-112535211D01*
X138438250Y-112376501D01*
X138453465Y-112326423D01*
X138453465Y-112326421D01*
X138454970Y-112321469D01*
X138484129Y-112099990D01*
X138484262Y-112094543D01*
X138484433Y-112087562D01*
X138506095Y-112019951D01*
X138560872Y-111974784D01*
X138631372Y-111966402D01*
X138699488Y-112001548D01*
X139586434Y-112888493D01*
X140705541Y-114007600D01*
X140713531Y-114016381D01*
X140713539Y-114016390D01*
X140717784Y-114023080D01*
X140731878Y-114036315D01*
X140769474Y-114071620D01*
X140772316Y-114074375D01*
X140792867Y-114094926D01*
X140796001Y-114097357D01*
X140796363Y-114097638D01*
X140805391Y-114105348D01*
X140839067Y-114136972D01*
X140846018Y-114140793D01*
X140846019Y-114140794D01*
X140857855Y-114147301D01*
X140874384Y-114158158D01*
X140885069Y-114166447D01*
X140885071Y-114166448D01*
X140891331Y-114171304D01*
X140933744Y-114189657D01*
X140944381Y-114194868D01*
X140984863Y-114217124D01*
X140992542Y-114219096D01*
X140992543Y-114219096D01*
X141005634Y-114222457D01*
X141024336Y-114228859D01*
X141044023Y-114237379D01*
X141051852Y-114238619D01*
X141089648Y-114244605D01*
X141101274Y-114247013D01*
X141138335Y-114256529D01*
X141138336Y-114256529D01*
X141146012Y-114258500D01*
X141167458Y-114258500D01*
X141187168Y-114260051D01*
X141208351Y-114263406D01*
X141254335Y-114259059D01*
X141266194Y-114258500D01*
X153813723Y-114258500D01*
X153825579Y-114259059D01*
X153825582Y-114259059D01*
X153833316Y-114260788D01*
X153878777Y-114259359D01*
X153908931Y-114262050D01*
X153915311Y-114263406D01*
X153979226Y-114276992D01*
X153979230Y-114276992D01*
X153985683Y-114278364D01*
X154015500Y-114278364D01*
X154083621Y-114298366D01*
X154130114Y-114352022D01*
X154141500Y-114404364D01*
X154141500Y-116017944D01*
X154140941Y-116029800D01*
X154139212Y-116037537D01*
X154139461Y-116045459D01*
X154141438Y-116108369D01*
X154141500Y-116112327D01*
X154141500Y-116141432D01*
X154142056Y-116145832D01*
X154142988Y-116157664D01*
X154144438Y-116203831D01*
X154146650Y-116211444D01*
X154146650Y-116211445D01*
X154150419Y-116224416D01*
X154154430Y-116243782D01*
X154157118Y-116265064D01*
X154160034Y-116272429D01*
X154160035Y-116272433D01*
X154174126Y-116308021D01*
X154177965Y-116319231D01*
X154190855Y-116363600D01*
X154201775Y-116382065D01*
X154210466Y-116399805D01*
X154218365Y-116419756D01*
X154245516Y-116457126D01*
X154252033Y-116467048D01*
X154271507Y-116499977D01*
X154271510Y-116499981D01*
X154275547Y-116506807D01*
X154290711Y-116521971D01*
X154303551Y-116537004D01*
X154316159Y-116554357D01*
X154322266Y-116559409D01*
X154322267Y-116559410D01*
X154351754Y-116583803D01*
X154360535Y-116591794D01*
X154976341Y-117207600D01*
X154984331Y-117216381D01*
X154984339Y-117216390D01*
X154988584Y-117223080D01*
X155015385Y-117248248D01*
X155040273Y-117271619D01*
X155043115Y-117274374D01*
X155063667Y-117294926D01*
X155066801Y-117297357D01*
X155067163Y-117297638D01*
X155076191Y-117305348D01*
X155109867Y-117336972D01*
X155116818Y-117340793D01*
X155116819Y-117340794D01*
X155128655Y-117347301D01*
X155145184Y-117358158D01*
X155155869Y-117366447D01*
X155155871Y-117366448D01*
X155162131Y-117371304D01*
X155204544Y-117389657D01*
X155215181Y-117394868D01*
X155255663Y-117417124D01*
X155263342Y-117419096D01*
X155263343Y-117419096D01*
X155276434Y-117422457D01*
X155295136Y-117428859D01*
X155314823Y-117437379D01*
X155322652Y-117438619D01*
X155360448Y-117444605D01*
X155372074Y-117447013D01*
X155409135Y-117456529D01*
X155409136Y-117456529D01*
X155416812Y-117458500D01*
X155438258Y-117458500D01*
X155457968Y-117460051D01*
X155479151Y-117463406D01*
X155525135Y-117459059D01*
X155536994Y-117458500D01*
X156817944Y-117458500D01*
X156829800Y-117459059D01*
X156829803Y-117459059D01*
X156837537Y-117460788D01*
X156908369Y-117458562D01*
X156912327Y-117458500D01*
X156941432Y-117458500D01*
X156945832Y-117457944D01*
X156957664Y-117457012D01*
X157003831Y-117455562D01*
X157024421Y-117449580D01*
X157043782Y-117445570D01*
X157051424Y-117444605D01*
X157057204Y-117443875D01*
X157057205Y-117443875D01*
X157065064Y-117442882D01*
X157072429Y-117439966D01*
X157072433Y-117439965D01*
X157108021Y-117425874D01*
X157119231Y-117422035D01*
X157163600Y-117409145D01*
X157182065Y-117398225D01*
X157199805Y-117389534D01*
X157219756Y-117381635D01*
X157257129Y-117354482D01*
X157267048Y-117347967D01*
X157299977Y-117328493D01*
X157299981Y-117328490D01*
X157306807Y-117324453D01*
X157321971Y-117309289D01*
X157337005Y-117296448D01*
X157347943Y-117288501D01*
X157354357Y-117283841D01*
X157383803Y-117248247D01*
X157391792Y-117239468D01*
X160457605Y-114173655D01*
X160466385Y-114165665D01*
X160466387Y-114165663D01*
X160473080Y-114161416D01*
X160494477Y-114138631D01*
X160521604Y-114109743D01*
X160524359Y-114106901D01*
X160544927Y-114086333D01*
X160547647Y-114082826D01*
X160555353Y-114073804D01*
X160577459Y-114050263D01*
X160586972Y-114040133D01*
X160591968Y-114031045D01*
X160597303Y-114021342D01*
X160608157Y-114004818D01*
X160616445Y-113994132D01*
X160621304Y-113987868D01*
X160624452Y-113980594D01*
X160639654Y-113945465D01*
X160644876Y-113934805D01*
X160663305Y-113901284D01*
X160663306Y-113901282D01*
X160667124Y-113894337D01*
X160672459Y-113873559D01*
X160678858Y-113854869D01*
X160687380Y-113835176D01*
X160694606Y-113789552D01*
X160697013Y-113777929D01*
X160706528Y-113740868D01*
X160708500Y-113733188D01*
X160708500Y-113711741D01*
X160710051Y-113692031D01*
X160712166Y-113678677D01*
X160713406Y-113670848D01*
X160709059Y-113624859D01*
X160708500Y-113613004D01*
X160708500Y-110500000D01*
X164736771Y-110500000D01*
X164755635Y-110679475D01*
X164757675Y-110685753D01*
X164757675Y-110685754D01*
X164769692Y-110722738D01*
X164811401Y-110851107D01*
X164824620Y-110874002D01*
X164841500Y-110937001D01*
X164841500Y-127853730D01*
X164840067Y-127872680D01*
X164836801Y-127894149D01*
X164837394Y-127901441D01*
X164837394Y-127901444D01*
X164841085Y-127946818D01*
X164841500Y-127957033D01*
X164841500Y-127965093D01*
X164841925Y-127968737D01*
X164844789Y-127993307D01*
X164845222Y-127997682D01*
X164850442Y-128061853D01*
X164851140Y-128070437D01*
X164853396Y-128077401D01*
X164854587Y-128083360D01*
X164855971Y-128089215D01*
X164856818Y-128096481D01*
X164881735Y-128165127D01*
X164883152Y-128169255D01*
X164905649Y-128238699D01*
X164909445Y-128244954D01*
X164911951Y-128250428D01*
X164914670Y-128255858D01*
X164917167Y-128262737D01*
X164921180Y-128268857D01*
X164921180Y-128268858D01*
X164957186Y-128323776D01*
X164959523Y-128327480D01*
X164997405Y-128389907D01*
X165001121Y-128394115D01*
X165001122Y-128394116D01*
X165004803Y-128398284D01*
X165004776Y-128398308D01*
X165007429Y-128401300D01*
X165010132Y-128404533D01*
X165014144Y-128410652D01*
X165047802Y-128442537D01*
X165070383Y-128463928D01*
X165072825Y-128466306D01*
X171459195Y-134852676D01*
X171493221Y-134914988D01*
X171496100Y-134941771D01*
X171496100Y-136073534D01*
X171502855Y-136135716D01*
X171553985Y-136272105D01*
X171641339Y-136388661D01*
X171757895Y-136476015D01*
X171894284Y-136527145D01*
X171956466Y-136533900D01*
X173752734Y-136533900D01*
X173814916Y-136527145D01*
X173951305Y-136476015D01*
X174067861Y-136388661D01*
X174155215Y-136272105D01*
X174206345Y-136135716D01*
X174213100Y-136073534D01*
X174213100Y-134277266D01*
X174206345Y-134215084D01*
X174155215Y-134078695D01*
X174067861Y-133962139D01*
X173951305Y-133874785D01*
X173938732Y-133870072D01*
X173832803Y-133830360D01*
X173776039Y-133787718D01*
X173751339Y-133721156D01*
X173766547Y-133651808D01*
X173788093Y-133623127D01*
X173889035Y-133522537D01*
X173892696Y-133518889D01*
X174023053Y-133337477D01*
X174122030Y-133137211D01*
X174186970Y-132923469D01*
X174216129Y-132701990D01*
X174217756Y-132635400D01*
X174199452Y-132412761D01*
X174145031Y-132196102D01*
X174055954Y-131991240D01*
X173934614Y-131803677D01*
X173784270Y-131638451D01*
X173780219Y-131635252D01*
X173780215Y-131635248D01*
X173613014Y-131503200D01*
X173613010Y-131503198D01*
X173608959Y-131499998D01*
X173567653Y-131477196D01*
X173517684Y-131426764D01*
X173502912Y-131357321D01*
X173528028Y-131290916D01*
X173555380Y-131264309D01*
X173599203Y-131233050D01*
X173734460Y-131136573D01*
X173892696Y-130978889D01*
X173952194Y-130896089D01*
X174020035Y-130801677D01*
X174023053Y-130797477D01*
X174122030Y-130597211D01*
X174186970Y-130383469D01*
X174216129Y-130161990D01*
X174217756Y-130095400D01*
X174199452Y-129872761D01*
X174145031Y-129656102D01*
X174055954Y-129451240D01*
X173934614Y-129263677D01*
X173784270Y-129098451D01*
X173780219Y-129095252D01*
X173780215Y-129095248D01*
X173613014Y-128963200D01*
X173613010Y-128963198D01*
X173608959Y-128959998D01*
X173567653Y-128937196D01*
X173517684Y-128886764D01*
X173502912Y-128817321D01*
X173528028Y-128750916D01*
X173555380Y-128724309D01*
X173599203Y-128693050D01*
X173734460Y-128596573D01*
X173892696Y-128438889D01*
X173909371Y-128415684D01*
X174020035Y-128261677D01*
X174023053Y-128257477D01*
X174099226Y-128103353D01*
X174119736Y-128061853D01*
X174119737Y-128061851D01*
X174122030Y-128057211D01*
X174180957Y-127863260D01*
X174185465Y-127848423D01*
X174185465Y-127848421D01*
X174186970Y-127843469D01*
X174216129Y-127621990D01*
X174216505Y-127606619D01*
X174217674Y-127558765D01*
X174217674Y-127558761D01*
X174217756Y-127555400D01*
X174199452Y-127332761D01*
X174145031Y-127116102D01*
X174055954Y-126911240D01*
X173934614Y-126723677D01*
X173784270Y-126558451D01*
X173780219Y-126555252D01*
X173780215Y-126555248D01*
X173613014Y-126423200D01*
X173613010Y-126423198D01*
X173608959Y-126419998D01*
X173567169Y-126396929D01*
X173517198Y-126346497D01*
X173502426Y-126277054D01*
X173527542Y-126210648D01*
X173554894Y-126184041D01*
X173729928Y-126059192D01*
X173737800Y-126052539D01*
X173888652Y-125902212D01*
X173895330Y-125894365D01*
X174019603Y-125721420D01*
X174024913Y-125712583D01*
X174119270Y-125521667D01*
X174123069Y-125512072D01*
X174184977Y-125308310D01*
X174187155Y-125298237D01*
X174188586Y-125287362D01*
X174186375Y-125273178D01*
X174173217Y-125269400D01*
X171537825Y-125269400D01*
X171524294Y-125273373D01*
X171522857Y-125283366D01*
X171553165Y-125417846D01*
X171556245Y-125427675D01*
X171636370Y-125625003D01*
X171641013Y-125634194D01*
X171752294Y-125815788D01*
X171758377Y-125824099D01*
X171897813Y-125985067D01*
X171905180Y-125992283D01*
X172069034Y-126128316D01*
X172077481Y-126134231D01*
X172146569Y-126174603D01*
X172195293Y-126226242D01*
X172208364Y-126296025D01*
X172181633Y-126361796D01*
X172141184Y-126395152D01*
X172128207Y-126401907D01*
X172124074Y-126405010D01*
X172124071Y-126405012D01*
X171953700Y-126532930D01*
X171949565Y-126536035D01*
X171795229Y-126697538D01*
X171669343Y-126882080D01*
X171639428Y-126946526D01*
X171581683Y-127070929D01*
X171575288Y-127084705D01*
X171515589Y-127299970D01*
X171491851Y-127522095D01*
X171492148Y-127527248D01*
X171492148Y-127527251D01*
X171497611Y-127621990D01*
X171504710Y-127745115D01*
X171505847Y-127750161D01*
X171505848Y-127750167D01*
X171525719Y-127838339D01*
X171553822Y-127963039D01*
X171637866Y-128170016D01*
X171754587Y-128360488D01*
X171900850Y-128529338D01*
X172072726Y-128672032D01*
X172143195Y-128713211D01*
X172146045Y-128714876D01*
X172194769Y-128766514D01*
X172207840Y-128836297D01*
X172181109Y-128902069D01*
X172140655Y-128935427D01*
X172128207Y-128941907D01*
X172124074Y-128945010D01*
X172124071Y-128945012D01*
X172099847Y-128963200D01*
X171949565Y-129076035D01*
X171795229Y-129237538D01*
X171669343Y-129422080D01*
X171575288Y-129624705D01*
X171515589Y-129839970D01*
X171491851Y-130062095D01*
X171492148Y-130067248D01*
X171492148Y-130067251D01*
X171497611Y-130161990D01*
X171504710Y-130285115D01*
X171505847Y-130290161D01*
X171505848Y-130290167D01*
X171525719Y-130378339D01*
X171553822Y-130503039D01*
X171637866Y-130710016D01*
X171754587Y-130900488D01*
X171900850Y-131069338D01*
X172072726Y-131212032D01*
X172143195Y-131253211D01*
X172146045Y-131254876D01*
X172194769Y-131306514D01*
X172207840Y-131376297D01*
X172181109Y-131442069D01*
X172140655Y-131475427D01*
X172128207Y-131481907D01*
X172124074Y-131485010D01*
X172124071Y-131485012D01*
X172099847Y-131503200D01*
X171949565Y-131616035D01*
X171795229Y-131777538D01*
X171669343Y-131962080D01*
X171575288Y-132164705D01*
X171515589Y-132379970D01*
X171515040Y-132385107D01*
X171506547Y-132464578D01*
X171479419Y-132530188D01*
X171421127Y-132570716D01*
X171350177Y-132573295D01*
X171292165Y-132540284D01*
X166395405Y-127643524D01*
X166361379Y-127581212D01*
X166358500Y-127554429D01*
X166358500Y-124749583D01*
X171518989Y-124749583D01*
X171520512Y-124758007D01*
X171532892Y-124761400D01*
X172582485Y-124761400D01*
X172597724Y-124756925D01*
X172598929Y-124755535D01*
X172600600Y-124747852D01*
X172600600Y-124743285D01*
X173108600Y-124743285D01*
X173113075Y-124758524D01*
X173114465Y-124759729D01*
X173122148Y-124761400D01*
X174172944Y-124761400D01*
X174186475Y-124757427D01*
X174187780Y-124748347D01*
X174145814Y-124581275D01*
X174142494Y-124571524D01*
X174057572Y-124376214D01*
X174052705Y-124367139D01*
X173937026Y-124188326D01*
X173930736Y-124180157D01*
X173787406Y-124022640D01*
X173779873Y-124015615D01*
X173612739Y-123883622D01*
X173604152Y-123877917D01*
X173417717Y-123774999D01*
X173408305Y-123770769D01*
X173207559Y-123699680D01*
X173197588Y-123697046D01*
X173126437Y-123684372D01*
X173113140Y-123685832D01*
X173108600Y-123700389D01*
X173108600Y-124743285D01*
X172600600Y-124743285D01*
X172600600Y-123698502D01*
X172596682Y-123685158D01*
X172582406Y-123683171D01*
X172543924Y-123689060D01*
X172533888Y-123691451D01*
X172331468Y-123757612D01*
X172321959Y-123761609D01*
X172133063Y-123859942D01*
X172124338Y-123865436D01*
X171954033Y-123993305D01*
X171946326Y-124000148D01*
X171799190Y-124154117D01*
X171792704Y-124162127D01*
X171672698Y-124338049D01*
X171667600Y-124347023D01*
X171577938Y-124540183D01*
X171574375Y-124549870D01*
X171518989Y-124749583D01*
X166358500Y-124749583D01*
X166358500Y-120968902D01*
X176582125Y-120968902D01*
X176608578Y-121187496D01*
X176673322Y-121397951D01*
X176675894Y-121402934D01*
X176749165Y-121544892D01*
X176774312Y-121593614D01*
X176908354Y-121768301D01*
X177071212Y-121916491D01*
X177257739Y-122033499D01*
X177262948Y-122035593D01*
X177262950Y-122035594D01*
X177357315Y-122073528D01*
X177462038Y-122115627D01*
X177467529Y-122116764D01*
X177467532Y-122116765D01*
X177602789Y-122144775D01*
X177677652Y-122160278D01*
X177682265Y-122160544D01*
X177731707Y-122163395D01*
X177731711Y-122163395D01*
X177733530Y-122163500D01*
X178425866Y-122163500D01*
X178428653Y-122163251D01*
X178428659Y-122163251D01*
X178583730Y-122149411D01*
X178583734Y-122149410D01*
X178589317Y-122148912D01*
X178801702Y-122090811D01*
X178806767Y-122088395D01*
X178806770Y-122088394D01*
X178995385Y-121998429D01*
X178995389Y-121998427D01*
X179000441Y-121996017D01*
X179179252Y-121867528D01*
X179332484Y-121709404D01*
X179394502Y-121617113D01*
X179452163Y-121531305D01*
X179452165Y-121531302D01*
X179455294Y-121526645D01*
X179543798Y-121325027D01*
X179564407Y-121239187D01*
X179593890Y-121116379D01*
X179593890Y-121116378D01*
X179595200Y-121110922D01*
X179604477Y-120950038D01*
X179607552Y-120896705D01*
X179607552Y-120896702D01*
X179607875Y-120891098D01*
X179581422Y-120672504D01*
X179567261Y-120626473D01*
X179566349Y-120555482D01*
X179603962Y-120495268D01*
X179613630Y-120487488D01*
X179750909Y-120387749D01*
X179750911Y-120387747D01*
X179756253Y-120383866D01*
X179805929Y-120328695D01*
X179879621Y-120246852D01*
X179879622Y-120246851D01*
X179884040Y-120241944D01*
X179951776Y-120124622D01*
X179976223Y-120082279D01*
X179976224Y-120082278D01*
X179979527Y-120076556D01*
X180038542Y-119894928D01*
X180041451Y-119867256D01*
X180057814Y-119711565D01*
X180058504Y-119705000D01*
X180038542Y-119515072D01*
X179979527Y-119333444D01*
X179884040Y-119168056D01*
X179756253Y-119026134D01*
X179601752Y-118913882D01*
X179595724Y-118911198D01*
X179595722Y-118911197D01*
X179433319Y-118838891D01*
X179433318Y-118838891D01*
X179427288Y-118836206D01*
X179333887Y-118816353D01*
X179246944Y-118797872D01*
X179246939Y-118797872D01*
X179240487Y-118796500D01*
X179049513Y-118796500D01*
X179043061Y-118797872D01*
X179043056Y-118797872D01*
X178956113Y-118816353D01*
X178862712Y-118836206D01*
X178856682Y-118838891D01*
X178856681Y-118838891D01*
X178694278Y-118911197D01*
X178694276Y-118911198D01*
X178688248Y-118913882D01*
X178533747Y-119026134D01*
X178405960Y-119168056D01*
X178310473Y-119333444D01*
X178308431Y-119339729D01*
X178278853Y-119430761D01*
X178251458Y-119515072D01*
X178250768Y-119521635D01*
X178250768Y-119521636D01*
X178244248Y-119583671D01*
X178217235Y-119649327D01*
X178159013Y-119689957D01*
X178118938Y-119696500D01*
X177764134Y-119696500D01*
X177761347Y-119696749D01*
X177761341Y-119696749D01*
X177606270Y-119710589D01*
X177606266Y-119710590D01*
X177600683Y-119711088D01*
X177388298Y-119769189D01*
X177383233Y-119771605D01*
X177383230Y-119771606D01*
X177194615Y-119861571D01*
X177194611Y-119861573D01*
X177189559Y-119863983D01*
X177134812Y-119903323D01*
X177042105Y-119969940D01*
X177010748Y-119992472D01*
X176857516Y-120150596D01*
X176852174Y-120158546D01*
X176738018Y-120328427D01*
X176734706Y-120333355D01*
X176646202Y-120534973D01*
X176644893Y-120540424D01*
X176644892Y-120540428D01*
X176614471Y-120667142D01*
X176594800Y-120749078D01*
X176593592Y-120770032D01*
X176583213Y-120950038D01*
X176582125Y-120968902D01*
X166358500Y-120968902D01*
X166358500Y-113518902D01*
X176582125Y-113518902D01*
X176608578Y-113737496D01*
X176673322Y-113947951D01*
X176774312Y-114143614D01*
X176908354Y-114318301D01*
X177071212Y-114466491D01*
X177257739Y-114583499D01*
X177462038Y-114665627D01*
X177467529Y-114666764D01*
X177467532Y-114666765D01*
X177602789Y-114694775D01*
X177677652Y-114710278D01*
X177682265Y-114710544D01*
X177731707Y-114713395D01*
X177731711Y-114713395D01*
X177733530Y-114713500D01*
X178118938Y-114713500D01*
X178187059Y-114733502D01*
X178233552Y-114787158D01*
X178244248Y-114826328D01*
X178251458Y-114894928D01*
X178310473Y-115076556D01*
X178405960Y-115241944D01*
X178410378Y-115246851D01*
X178410379Y-115246852D01*
X178482625Y-115327089D01*
X178533747Y-115383866D01*
X178688248Y-115496118D01*
X178694276Y-115498802D01*
X178694278Y-115498803D01*
X178856681Y-115571109D01*
X178862712Y-115573794D01*
X178956113Y-115593647D01*
X179043056Y-115612128D01*
X179043061Y-115612128D01*
X179049513Y-115613500D01*
X179240487Y-115613500D01*
X179246939Y-115612128D01*
X179246944Y-115612128D01*
X179333887Y-115593647D01*
X179427288Y-115573794D01*
X179433319Y-115571109D01*
X179595722Y-115498803D01*
X179595724Y-115498802D01*
X179601752Y-115496118D01*
X179756253Y-115383866D01*
X179807375Y-115327089D01*
X179879621Y-115246852D01*
X179879622Y-115246851D01*
X179884040Y-115241944D01*
X179979527Y-115076556D01*
X180038542Y-114894928D01*
X180058504Y-114705000D01*
X180045026Y-114576765D01*
X180039232Y-114521635D01*
X180039232Y-114521633D01*
X180038542Y-114515072D01*
X179979527Y-114333444D01*
X179972966Y-114322079D01*
X179911922Y-114216349D01*
X179884040Y-114168056D01*
X179878062Y-114161416D01*
X179760675Y-114031045D01*
X179760674Y-114031044D01*
X179756253Y-114026134D01*
X179749658Y-114021342D01*
X179622890Y-113929240D01*
X179612573Y-113921744D01*
X179569220Y-113865523D01*
X179564116Y-113790395D01*
X179564319Y-113789552D01*
X179589574Y-113684357D01*
X179593890Y-113666379D01*
X179593890Y-113666378D01*
X179595200Y-113660922D01*
X179607875Y-113441098D01*
X179581422Y-113222504D01*
X179516678Y-113012049D01*
X179461216Y-112904595D01*
X179418260Y-112821369D01*
X179418260Y-112821368D01*
X179415688Y-112816386D01*
X179281646Y-112641699D01*
X179118788Y-112493509D01*
X178932261Y-112376501D01*
X178908458Y-112366932D01*
X178832685Y-112336472D01*
X178727962Y-112294373D01*
X178722471Y-112293236D01*
X178722468Y-112293235D01*
X178575973Y-112262898D01*
X178512348Y-112249722D01*
X178507735Y-112249456D01*
X178458293Y-112246605D01*
X178458289Y-112246605D01*
X178456470Y-112246500D01*
X177764134Y-112246500D01*
X177761347Y-112246749D01*
X177761341Y-112246749D01*
X177606270Y-112260589D01*
X177606266Y-112260590D01*
X177600683Y-112261088D01*
X177388298Y-112319189D01*
X177383233Y-112321605D01*
X177383230Y-112321606D01*
X177194615Y-112411571D01*
X177194611Y-112411573D01*
X177189559Y-112413983D01*
X177103494Y-112475827D01*
X177020853Y-112535211D01*
X177010748Y-112542472D01*
X176857516Y-112700596D01*
X176854382Y-112705260D01*
X176742530Y-112871712D01*
X176734706Y-112883355D01*
X176646202Y-113084973D01*
X176644893Y-113090424D01*
X176644892Y-113090428D01*
X176603524Y-113262738D01*
X176594800Y-113299078D01*
X176593781Y-113316757D01*
X176584520Y-113477371D01*
X176582125Y-113518902D01*
X166358500Y-113518902D01*
X166358500Y-110937001D01*
X166375380Y-110874002D01*
X166388599Y-110851107D01*
X166430308Y-110722738D01*
X166442325Y-110685754D01*
X166442325Y-110685753D01*
X166444365Y-110679475D01*
X166463229Y-110500000D01*
X166444365Y-110320525D01*
X166388599Y-110148893D01*
X166298367Y-109992607D01*
X166234430Y-109921597D01*
X166182035Y-109863407D01*
X166182034Y-109863406D01*
X166177613Y-109858496D01*
X166084960Y-109791179D01*
X166036957Y-109756303D01*
X166036956Y-109756302D01*
X166031615Y-109752422D01*
X166025587Y-109749738D01*
X166025585Y-109749737D01*
X165872783Y-109681705D01*
X165872781Y-109681705D01*
X165866752Y-109679020D01*
X165778492Y-109660260D01*
X165696689Y-109642872D01*
X165696685Y-109642872D01*
X165690232Y-109641500D01*
X165509768Y-109641500D01*
X165503315Y-109642872D01*
X165503311Y-109642872D01*
X165421508Y-109660260D01*
X165333248Y-109679020D01*
X165327219Y-109681704D01*
X165327217Y-109681705D01*
X165174416Y-109749737D01*
X165174414Y-109749738D01*
X165168386Y-109752422D01*
X165163045Y-109756302D01*
X165163044Y-109756303D01*
X165027731Y-109854613D01*
X165027729Y-109854615D01*
X165022387Y-109858496D01*
X165017966Y-109863406D01*
X165017965Y-109863407D01*
X164965571Y-109921597D01*
X164901633Y-109992607D01*
X164811401Y-110148893D01*
X164755635Y-110320525D01*
X164736771Y-110500000D01*
X160708500Y-110500000D01*
X160708500Y-108824950D01*
X160728502Y-108756829D01*
X160745405Y-108735855D01*
X160961191Y-108520069D01*
X171796601Y-108520069D01*
X171796971Y-108526890D01*
X171802495Y-108577752D01*
X171806121Y-108593004D01*
X171851276Y-108713454D01*
X171859814Y-108729049D01*
X171936315Y-108831124D01*
X171948876Y-108843685D01*
X172050951Y-108920186D01*
X172066546Y-108928724D01*
X172186994Y-108973878D01*
X172202249Y-108977505D01*
X172253114Y-108983031D01*
X172259928Y-108983400D01*
X172482485Y-108983400D01*
X172497724Y-108978925D01*
X172498929Y-108977535D01*
X172500600Y-108969852D01*
X172500600Y-108965284D01*
X173008600Y-108965284D01*
X173013075Y-108980523D01*
X173014465Y-108981728D01*
X173022148Y-108983399D01*
X173249269Y-108983399D01*
X173256090Y-108983029D01*
X173306952Y-108977505D01*
X173322204Y-108973879D01*
X173442654Y-108928724D01*
X173458249Y-108920186D01*
X173560324Y-108843685D01*
X173572885Y-108831124D01*
X173649386Y-108729049D01*
X173657924Y-108713454D01*
X173703078Y-108593006D01*
X173706705Y-108577751D01*
X173712231Y-108526886D01*
X173712600Y-108520072D01*
X173712600Y-107947515D01*
X173708125Y-107932276D01*
X173706735Y-107931071D01*
X173699052Y-107929400D01*
X173377926Y-107929400D01*
X173352281Y-107936930D01*
X173021411Y-108267799D01*
X173008600Y-108291261D01*
X173008600Y-108965284D01*
X172500600Y-108965284D01*
X172500600Y-108298725D01*
X172493070Y-108273080D01*
X172162197Y-107942208D01*
X172138741Y-107929400D01*
X171814716Y-107929400D01*
X171799477Y-107933875D01*
X171798272Y-107935265D01*
X171796601Y-107942948D01*
X171796601Y-108520069D01*
X160961191Y-108520069D01*
X162077975Y-107403285D01*
X171796600Y-107403285D01*
X171801075Y-107418524D01*
X171802465Y-107419729D01*
X171810148Y-107421400D01*
X172131274Y-107421400D01*
X172156919Y-107413870D01*
X172487789Y-107083001D01*
X172500600Y-107059539D01*
X172500600Y-107052075D01*
X173008600Y-107052075D01*
X173016130Y-107077720D01*
X173347003Y-107408592D01*
X173370459Y-107421400D01*
X173694484Y-107421400D01*
X173709723Y-107416925D01*
X173710928Y-107415535D01*
X173712599Y-107407852D01*
X173712599Y-106830731D01*
X173712229Y-106823910D01*
X173706705Y-106773048D01*
X173703079Y-106757796D01*
X173657924Y-106637346D01*
X173649386Y-106621751D01*
X173572885Y-106519676D01*
X173560324Y-106507115D01*
X173458249Y-106430614D01*
X173442654Y-106422076D01*
X173322206Y-106376922D01*
X173306951Y-106373295D01*
X173256086Y-106367769D01*
X173249272Y-106367400D01*
X173026715Y-106367400D01*
X173011476Y-106371875D01*
X173010271Y-106373265D01*
X173008600Y-106380948D01*
X173008600Y-107052075D01*
X172500600Y-107052075D01*
X172500600Y-106385516D01*
X172496125Y-106370277D01*
X172494735Y-106369072D01*
X172487052Y-106367401D01*
X172259931Y-106367401D01*
X172253110Y-106367771D01*
X172202248Y-106373295D01*
X172186996Y-106376921D01*
X172066546Y-106422076D01*
X172050951Y-106430614D01*
X171948876Y-106507115D01*
X171936315Y-106519676D01*
X171859814Y-106621751D01*
X171851276Y-106637346D01*
X171806122Y-106757794D01*
X171802495Y-106773049D01*
X171796969Y-106823914D01*
X171796600Y-106830728D01*
X171796600Y-107403285D01*
X162077975Y-107403285D01*
X162757605Y-106723655D01*
X162766385Y-106715665D01*
X162766387Y-106715663D01*
X162773080Y-106711416D01*
X162821605Y-106659742D01*
X162824359Y-106656901D01*
X162844927Y-106636333D01*
X162847647Y-106632826D01*
X162855353Y-106623804D01*
X162881544Y-106595913D01*
X162886972Y-106590133D01*
X162890794Y-106583181D01*
X162897303Y-106571342D01*
X162908157Y-106554818D01*
X162916443Y-106544135D01*
X162916444Y-106544134D01*
X162921304Y-106537868D01*
X162939654Y-106495464D01*
X162944869Y-106484819D01*
X162967124Y-106444337D01*
X162969094Y-106436663D01*
X162969097Y-106436656D01*
X162972455Y-106423574D01*
X162978861Y-106404862D01*
X162984233Y-106392448D01*
X162987380Y-106385177D01*
X162988688Y-106376922D01*
X162994607Y-106339544D01*
X162997012Y-106327930D01*
X163008500Y-106283188D01*
X163008500Y-106261742D01*
X163010051Y-106242032D01*
X163012166Y-106228678D01*
X163012166Y-106228677D01*
X163013406Y-106220848D01*
X163009059Y-106174859D01*
X163008500Y-106163004D01*
X163008500Y-102657966D01*
X179247857Y-102657966D01*
X179278165Y-102792446D01*
X179281245Y-102802275D01*
X179361370Y-102999603D01*
X179366013Y-103008794D01*
X179477294Y-103190388D01*
X179483377Y-103198699D01*
X179622813Y-103359667D01*
X179630180Y-103366883D01*
X179794034Y-103502916D01*
X179802481Y-103508831D01*
X179986356Y-103616279D01*
X179995642Y-103620729D01*
X180194601Y-103696703D01*
X180204499Y-103699579D01*
X180307850Y-103720606D01*
X180321899Y-103719410D01*
X180325600Y-103709065D01*
X180325600Y-103708517D01*
X180833600Y-103708517D01*
X180837664Y-103722359D01*
X180851078Y-103724393D01*
X180857784Y-103723534D01*
X180867862Y-103721392D01*
X181071855Y-103660191D01*
X181081442Y-103656433D01*
X181272695Y-103562739D01*
X181281545Y-103557464D01*
X181454928Y-103433792D01*
X181462800Y-103427139D01*
X181613652Y-103276812D01*
X181620330Y-103268965D01*
X181744603Y-103096020D01*
X181749913Y-103087183D01*
X181844270Y-102896267D01*
X181848069Y-102886672D01*
X181909977Y-102682910D01*
X181912155Y-102672837D01*
X181913586Y-102661962D01*
X181911375Y-102647778D01*
X181898217Y-102644000D01*
X180851715Y-102644000D01*
X180836476Y-102648475D01*
X180835271Y-102649865D01*
X180833600Y-102657548D01*
X180833600Y-103708517D01*
X180325600Y-103708517D01*
X180325600Y-102662115D01*
X180321125Y-102646876D01*
X180319735Y-102645671D01*
X180312052Y-102644000D01*
X179262825Y-102644000D01*
X179249294Y-102647973D01*
X179247857Y-102657966D01*
X163008500Y-102657966D01*
X163008500Y-100748134D01*
X179221100Y-100748134D01*
X179227855Y-100810316D01*
X179278985Y-100946705D01*
X179366339Y-101063261D01*
X179482895Y-101150615D01*
X179491304Y-101153767D01*
X179491305Y-101153768D01*
X179600560Y-101194726D01*
X179657325Y-101237367D01*
X179682025Y-101303929D01*
X179666818Y-101373278D01*
X179647425Y-101399759D01*
X179524190Y-101528717D01*
X179517704Y-101536727D01*
X179397698Y-101712649D01*
X179392600Y-101721623D01*
X179302938Y-101914783D01*
X179299375Y-101924470D01*
X179243989Y-102124183D01*
X179245512Y-102132607D01*
X179257892Y-102136000D01*
X181897944Y-102136000D01*
X181911475Y-102132027D01*
X181912780Y-102122947D01*
X181870814Y-101955875D01*
X181867494Y-101946124D01*
X181782572Y-101750814D01*
X181777705Y-101741739D01*
X181662026Y-101562926D01*
X181655736Y-101554757D01*
X181511893Y-101396677D01*
X181480841Y-101332831D01*
X181489235Y-101262333D01*
X181534412Y-101207564D01*
X181560856Y-101193895D01*
X181667897Y-101153767D01*
X181676305Y-101150615D01*
X181792861Y-101063261D01*
X181880215Y-100946705D01*
X181931345Y-100810316D01*
X181938100Y-100748134D01*
X181938100Y-98951866D01*
X181931345Y-98889684D01*
X181880215Y-98753295D01*
X181792861Y-98636739D01*
X181676305Y-98549385D01*
X181539916Y-98498255D01*
X181477734Y-98491500D01*
X179681466Y-98491500D01*
X179619284Y-98498255D01*
X179482895Y-98549385D01*
X179366339Y-98636739D01*
X179278985Y-98753295D01*
X179227855Y-98889684D01*
X179221100Y-98951866D01*
X179221100Y-100748134D01*
X163008500Y-100748134D01*
X163008500Y-98774950D01*
X163028502Y-98706829D01*
X163045405Y-98685855D01*
X164135855Y-97595405D01*
X164198167Y-97561379D01*
X164224950Y-97558500D01*
X164873134Y-97558500D01*
X164935316Y-97551745D01*
X165071705Y-97500615D01*
X165188261Y-97413261D01*
X165275615Y-97296705D01*
X165326745Y-97160316D01*
X165333500Y-97098134D01*
X165333500Y-95301866D01*
X165326745Y-95239684D01*
X165275615Y-95103295D01*
X165188261Y-94986739D01*
X165071705Y-94899385D01*
X164935316Y-94848255D01*
X164873134Y-94841500D01*
X163076866Y-94841500D01*
X163014684Y-94848255D01*
X162878295Y-94899385D01*
X162761739Y-94986739D01*
X162674385Y-95103295D01*
X162671233Y-95111703D01*
X162629919Y-95221907D01*
X162587277Y-95278671D01*
X162520716Y-95303371D01*
X162451367Y-95288163D01*
X162418743Y-95262476D01*
X162368151Y-95206875D01*
X162368142Y-95206866D01*
X162364670Y-95203051D01*
X162360619Y-95199852D01*
X162360615Y-95199848D01*
X162193414Y-95067800D01*
X162193410Y-95067798D01*
X162189359Y-95064598D01*
X161993789Y-94956638D01*
X161988920Y-94954914D01*
X161988916Y-94954912D01*
X161788087Y-94883795D01*
X161788083Y-94883794D01*
X161783212Y-94882069D01*
X161778119Y-94881162D01*
X161778116Y-94881161D01*
X161568373Y-94843800D01*
X161568367Y-94843799D01*
X161563284Y-94842894D01*
X161489452Y-94841992D01*
X161345081Y-94840228D01*
X161345079Y-94840228D01*
X161339911Y-94840165D01*
X161119091Y-94873955D01*
X160906756Y-94943357D01*
X160708607Y-95046507D01*
X160704474Y-95049610D01*
X160704471Y-95049612D01*
X160534100Y-95177530D01*
X160529965Y-95180635D01*
X160490525Y-95221907D01*
X160436280Y-95278671D01*
X160375629Y-95342138D01*
X160268201Y-95499621D01*
X160213293Y-95544621D01*
X160142768Y-95552792D01*
X160079021Y-95521538D01*
X160058324Y-95497054D01*
X159977822Y-95372617D01*
X159977820Y-95372614D01*
X159975014Y-95368277D01*
X159824670Y-95203051D01*
X159820619Y-95199852D01*
X159820615Y-95199848D01*
X159653414Y-95067800D01*
X159653410Y-95067798D01*
X159649359Y-95064598D01*
X159453789Y-94956638D01*
X159448920Y-94954914D01*
X159448916Y-94954912D01*
X159248087Y-94883795D01*
X159248083Y-94883794D01*
X159243212Y-94882069D01*
X159238119Y-94881162D01*
X159238116Y-94881161D01*
X159028373Y-94843800D01*
X159028367Y-94843799D01*
X159023284Y-94842894D01*
X158949452Y-94841992D01*
X158805081Y-94840228D01*
X158805079Y-94840228D01*
X158799911Y-94840165D01*
X158579091Y-94873955D01*
X158366756Y-94943357D01*
X158168607Y-95046507D01*
X158164474Y-95049610D01*
X158164471Y-95049612D01*
X157994100Y-95177530D01*
X157989965Y-95180635D01*
X157950525Y-95221907D01*
X157896280Y-95278671D01*
X157835629Y-95342138D01*
X157728201Y-95499621D01*
X157673293Y-95544621D01*
X157602768Y-95552792D01*
X157539021Y-95521538D01*
X157518324Y-95497054D01*
X157437822Y-95372617D01*
X157437820Y-95372614D01*
X157435014Y-95368277D01*
X157284670Y-95203051D01*
X157280619Y-95199852D01*
X157280615Y-95199848D01*
X157113414Y-95067800D01*
X157113410Y-95067798D01*
X157109359Y-95064598D01*
X156913789Y-94956638D01*
X156908920Y-94954914D01*
X156908916Y-94954912D01*
X156708087Y-94883795D01*
X156708083Y-94883794D01*
X156703212Y-94882069D01*
X156698119Y-94881162D01*
X156698116Y-94881161D01*
X156488373Y-94843800D01*
X156488367Y-94843799D01*
X156483284Y-94842894D01*
X156409452Y-94841992D01*
X156265081Y-94840228D01*
X156265079Y-94840228D01*
X156259911Y-94840165D01*
X156039091Y-94873955D01*
X155826756Y-94943357D01*
X155628607Y-95046507D01*
X155624474Y-95049610D01*
X155624471Y-95049612D01*
X155454100Y-95177530D01*
X155449965Y-95180635D01*
X155410525Y-95221907D01*
X155356280Y-95278671D01*
X155295629Y-95342138D01*
X155188201Y-95499621D01*
X155133293Y-95544621D01*
X155062768Y-95552792D01*
X154999021Y-95521538D01*
X154978324Y-95497054D01*
X154897822Y-95372617D01*
X154897820Y-95372614D01*
X154895014Y-95368277D01*
X154744670Y-95203051D01*
X154740619Y-95199852D01*
X154740615Y-95199848D01*
X154573414Y-95067800D01*
X154573410Y-95067798D01*
X154569359Y-95064598D01*
X154373789Y-94956638D01*
X154368920Y-94954914D01*
X154368916Y-94954912D01*
X154168087Y-94883795D01*
X154168083Y-94883794D01*
X154163212Y-94882069D01*
X154158119Y-94881162D01*
X154158116Y-94881161D01*
X153948373Y-94843800D01*
X153948367Y-94843799D01*
X153943284Y-94842894D01*
X153869452Y-94841992D01*
X153725081Y-94840228D01*
X153725079Y-94840228D01*
X153719911Y-94840165D01*
X153499091Y-94873955D01*
X153286756Y-94943357D01*
X153088607Y-95046507D01*
X153084474Y-95049610D01*
X153084471Y-95049612D01*
X152914100Y-95177530D01*
X152909965Y-95180635D01*
X152870525Y-95221907D01*
X152816280Y-95278671D01*
X152755629Y-95342138D01*
X152648201Y-95499621D01*
X152593293Y-95544621D01*
X152522768Y-95552792D01*
X152459021Y-95521538D01*
X152438324Y-95497054D01*
X152357822Y-95372617D01*
X152357820Y-95372614D01*
X152355014Y-95368277D01*
X152204670Y-95203051D01*
X152200619Y-95199852D01*
X152200615Y-95199848D01*
X152033414Y-95067800D01*
X152033410Y-95067798D01*
X152029359Y-95064598D01*
X151833789Y-94956638D01*
X151828920Y-94954914D01*
X151828916Y-94954912D01*
X151628087Y-94883795D01*
X151628083Y-94883794D01*
X151623212Y-94882069D01*
X151618119Y-94881162D01*
X151618116Y-94881161D01*
X151408373Y-94843800D01*
X151408367Y-94843799D01*
X151403284Y-94842894D01*
X151329452Y-94841992D01*
X151185081Y-94840228D01*
X151185079Y-94840228D01*
X151179911Y-94840165D01*
X150959091Y-94873955D01*
X150746756Y-94943357D01*
X150548607Y-95046507D01*
X150544474Y-95049610D01*
X150544471Y-95049612D01*
X150374100Y-95177530D01*
X150369965Y-95180635D01*
X150330525Y-95221907D01*
X150276280Y-95278671D01*
X150215629Y-95342138D01*
X150108201Y-95499621D01*
X150053293Y-95544621D01*
X149982768Y-95552792D01*
X149919021Y-95521538D01*
X149898324Y-95497054D01*
X149817822Y-95372617D01*
X149817820Y-95372614D01*
X149815014Y-95368277D01*
X149664670Y-95203051D01*
X149660619Y-95199852D01*
X149660615Y-95199848D01*
X149493414Y-95067800D01*
X149493410Y-95067798D01*
X149489359Y-95064598D01*
X149293789Y-94956638D01*
X149288920Y-94954914D01*
X149288916Y-94954912D01*
X149088087Y-94883795D01*
X149088083Y-94883794D01*
X149083212Y-94882069D01*
X149078119Y-94881162D01*
X149078116Y-94881161D01*
X148868373Y-94843800D01*
X148868367Y-94843799D01*
X148863284Y-94842894D01*
X148789452Y-94841992D01*
X148645081Y-94840228D01*
X148645079Y-94840228D01*
X148639911Y-94840165D01*
X148419091Y-94873955D01*
X148206756Y-94943357D01*
X148008607Y-95046507D01*
X148004474Y-95049610D01*
X148004471Y-95049612D01*
X147834100Y-95177530D01*
X147829965Y-95180635D01*
X147790525Y-95221907D01*
X147736280Y-95278671D01*
X147675629Y-95342138D01*
X147568201Y-95499621D01*
X147513293Y-95544621D01*
X147442768Y-95552792D01*
X147379021Y-95521538D01*
X147358324Y-95497054D01*
X147277822Y-95372617D01*
X147277820Y-95372614D01*
X147275014Y-95368277D01*
X147124670Y-95203051D01*
X147120619Y-95199852D01*
X147120615Y-95199848D01*
X146953414Y-95067800D01*
X146953410Y-95067798D01*
X146949359Y-95064598D01*
X146753789Y-94956638D01*
X146748920Y-94954914D01*
X146748916Y-94954912D01*
X146548087Y-94883795D01*
X146548083Y-94883794D01*
X146543212Y-94882069D01*
X146538119Y-94881162D01*
X146538116Y-94881161D01*
X146328373Y-94843800D01*
X146328367Y-94843799D01*
X146323284Y-94842894D01*
X146249452Y-94841992D01*
X146105081Y-94840228D01*
X146105079Y-94840228D01*
X146099911Y-94840165D01*
X145879091Y-94873955D01*
X145666756Y-94943357D01*
X145468607Y-95046507D01*
X145464474Y-95049610D01*
X145464471Y-95049612D01*
X145294100Y-95177530D01*
X145289965Y-95180635D01*
X145250525Y-95221907D01*
X145196280Y-95278671D01*
X145135629Y-95342138D01*
X145009743Y-95526680D01*
X144915688Y-95729305D01*
X144855989Y-95944570D01*
X144832251Y-96166695D01*
X144845110Y-96389715D01*
X144846247Y-96394761D01*
X144846248Y-96394767D01*
X144870304Y-96501508D01*
X144894222Y-96607639D01*
X144978266Y-96814616D01*
X145015685Y-96875678D01*
X145092291Y-97000688D01*
X145094987Y-97005088D01*
X145241250Y-97173938D01*
X145413126Y-97316632D01*
X145606000Y-97429338D01*
X145814692Y-97509030D01*
X145819760Y-97510061D01*
X145819763Y-97510062D01*
X145927017Y-97531883D01*
X146033597Y-97553567D01*
X146038772Y-97553757D01*
X146038774Y-97553757D01*
X146251673Y-97561564D01*
X146251677Y-97561564D01*
X146256837Y-97561753D01*
X146261957Y-97561097D01*
X146261959Y-97561097D01*
X146473288Y-97534025D01*
X146473289Y-97534025D01*
X146478416Y-97533368D01*
X146483366Y-97531883D01*
X146687429Y-97470661D01*
X146687434Y-97470659D01*
X146692384Y-97469174D01*
X146892994Y-97370896D01*
X147074860Y-97241173D01*
X147233096Y-97083489D01*
X147260589Y-97045229D01*
X147363453Y-96902077D01*
X147364776Y-96903028D01*
X147411645Y-96859857D01*
X147481580Y-96847625D01*
X147547026Y-96875144D01*
X147574875Y-96906994D01*
X147634987Y-97005088D01*
X147781250Y-97173938D01*
X147953126Y-97316632D01*
X148146000Y-97429338D01*
X148354692Y-97509030D01*
X148359760Y-97510061D01*
X148359763Y-97510062D01*
X148467017Y-97531883D01*
X148573597Y-97553567D01*
X148578772Y-97553757D01*
X148578774Y-97553757D01*
X148791673Y-97561564D01*
X148791677Y-97561564D01*
X148796837Y-97561753D01*
X148801957Y-97561097D01*
X148801959Y-97561097D01*
X149013288Y-97534025D01*
X149013289Y-97534025D01*
X149018416Y-97533368D01*
X149023366Y-97531883D01*
X149227429Y-97470661D01*
X149227434Y-97470659D01*
X149232384Y-97469174D01*
X149432994Y-97370896D01*
X149614860Y-97241173D01*
X149773096Y-97083489D01*
X149800589Y-97045229D01*
X149903453Y-96902077D01*
X149904776Y-96903028D01*
X149951645Y-96859857D01*
X150021580Y-96847625D01*
X150087026Y-96875144D01*
X150114875Y-96906994D01*
X150174987Y-97005088D01*
X150321250Y-97173938D01*
X150493126Y-97316632D01*
X150686000Y-97429338D01*
X150894692Y-97509030D01*
X150899760Y-97510061D01*
X150899763Y-97510062D01*
X151007017Y-97531883D01*
X151113597Y-97553567D01*
X151118772Y-97553757D01*
X151118774Y-97553757D01*
X151331673Y-97561564D01*
X151331677Y-97561564D01*
X151336837Y-97561753D01*
X151341957Y-97561097D01*
X151341959Y-97561097D01*
X151553288Y-97534025D01*
X151553289Y-97534025D01*
X151558416Y-97533368D01*
X151563366Y-97531883D01*
X151767429Y-97470661D01*
X151767434Y-97470659D01*
X151772384Y-97469174D01*
X151972994Y-97370896D01*
X152154860Y-97241173D01*
X152313096Y-97083489D01*
X152340589Y-97045229D01*
X152443453Y-96902077D01*
X152444776Y-96903028D01*
X152491645Y-96859857D01*
X152561580Y-96847625D01*
X152627026Y-96875144D01*
X152654875Y-96906994D01*
X152714987Y-97005088D01*
X152861250Y-97173938D01*
X153033126Y-97316632D01*
X153226000Y-97429338D01*
X153434692Y-97509030D01*
X153439760Y-97510061D01*
X153439763Y-97510062D01*
X153547017Y-97531883D01*
X153653597Y-97553567D01*
X153658772Y-97553757D01*
X153658774Y-97553757D01*
X153871673Y-97561564D01*
X153871677Y-97561564D01*
X153876837Y-97561753D01*
X153881957Y-97561097D01*
X153881959Y-97561097D01*
X154093288Y-97534025D01*
X154093289Y-97534025D01*
X154098416Y-97533368D01*
X154103366Y-97531883D01*
X154307429Y-97470661D01*
X154307434Y-97470659D01*
X154312384Y-97469174D01*
X154512994Y-97370896D01*
X154694860Y-97241173D01*
X154853096Y-97083489D01*
X154880589Y-97045229D01*
X154983453Y-96902077D01*
X154984776Y-96903028D01*
X155031645Y-96859857D01*
X155101580Y-96847625D01*
X155167026Y-96875144D01*
X155194875Y-96906994D01*
X155254987Y-97005088D01*
X155401250Y-97173938D01*
X155573126Y-97316632D01*
X155766000Y-97429338D01*
X155974692Y-97509030D01*
X155979760Y-97510061D01*
X155979763Y-97510062D01*
X156087017Y-97531883D01*
X156193597Y-97553567D01*
X156198772Y-97553757D01*
X156198774Y-97553757D01*
X156411673Y-97561564D01*
X156411677Y-97561564D01*
X156416837Y-97561753D01*
X156421957Y-97561097D01*
X156421959Y-97561097D01*
X156633288Y-97534025D01*
X156633289Y-97534025D01*
X156638416Y-97533368D01*
X156643366Y-97531883D01*
X156847429Y-97470661D01*
X156847434Y-97470659D01*
X156852384Y-97469174D01*
X157052994Y-97370896D01*
X157234860Y-97241173D01*
X157393096Y-97083489D01*
X157420589Y-97045229D01*
X157523453Y-96902077D01*
X157524776Y-96903028D01*
X157571645Y-96859857D01*
X157641580Y-96847625D01*
X157707026Y-96875144D01*
X157734875Y-96906994D01*
X157794987Y-97005088D01*
X157941250Y-97173938D01*
X158113126Y-97316632D01*
X158306000Y-97429338D01*
X158514692Y-97509030D01*
X158519760Y-97510061D01*
X158519763Y-97510062D01*
X158627017Y-97531883D01*
X158733597Y-97553567D01*
X158738772Y-97553757D01*
X158738774Y-97553757D01*
X158951673Y-97561564D01*
X158951677Y-97561564D01*
X158956837Y-97561753D01*
X158961957Y-97561097D01*
X158961959Y-97561097D01*
X159173288Y-97534025D01*
X159173289Y-97534025D01*
X159178416Y-97533368D01*
X159183366Y-97531883D01*
X159387429Y-97470661D01*
X159387434Y-97470659D01*
X159392384Y-97469174D01*
X159592994Y-97370896D01*
X159774860Y-97241173D01*
X159933096Y-97083489D01*
X159960589Y-97045229D01*
X160063453Y-96902077D01*
X160064776Y-96903028D01*
X160111645Y-96859857D01*
X160181580Y-96847625D01*
X160247026Y-96875144D01*
X160274875Y-96906994D01*
X160334987Y-97005088D01*
X160481250Y-97173938D01*
X160653126Y-97316632D01*
X160657583Y-97319236D01*
X160657588Y-97319240D01*
X160714070Y-97352245D01*
X160762794Y-97403883D01*
X160776500Y-97461033D01*
X160776500Y-103263530D01*
X160756498Y-103331651D01*
X160702842Y-103378144D01*
X160632568Y-103388248D01*
X160567988Y-103358754D01*
X160537837Y-103319949D01*
X160535330Y-103314943D01*
X160532833Y-103308063D01*
X160492805Y-103247010D01*
X160490481Y-103243327D01*
X160455500Y-103185680D01*
X160455499Y-103185679D01*
X160452595Y-103180893D01*
X160445198Y-103172517D01*
X160445225Y-103172493D01*
X160442570Y-103169499D01*
X160439868Y-103166268D01*
X160435856Y-103160148D01*
X160379617Y-103106872D01*
X160377175Y-103104494D01*
X159283770Y-102011089D01*
X159271384Y-101996677D01*
X159262851Y-101985082D01*
X159262846Y-101985077D01*
X159258508Y-101979182D01*
X159252930Y-101974443D01*
X159252927Y-101974440D01*
X159218232Y-101944965D01*
X159210716Y-101938035D01*
X159205021Y-101932340D01*
X159198880Y-101927482D01*
X159182749Y-101914719D01*
X159179345Y-101911928D01*
X159129297Y-101869409D01*
X159129295Y-101869408D01*
X159123715Y-101864667D01*
X159117199Y-101861339D01*
X159112150Y-101857972D01*
X159107021Y-101854805D01*
X159101284Y-101850266D01*
X159035125Y-101819345D01*
X159031225Y-101817439D01*
X158966192Y-101784231D01*
X158959084Y-101782492D01*
X158953441Y-101780393D01*
X158947678Y-101778476D01*
X158941050Y-101775378D01*
X158869583Y-101760513D01*
X158865299Y-101759543D01*
X158794390Y-101742192D01*
X158788788Y-101741844D01*
X158788785Y-101741844D01*
X158783236Y-101741500D01*
X158783238Y-101741464D01*
X158779245Y-101741225D01*
X158775053Y-101740851D01*
X158767885Y-101739360D01*
X158704120Y-101741085D01*
X158690479Y-101741454D01*
X158687072Y-101741500D01*
X151435699Y-101741500D01*
X151416749Y-101740067D01*
X151402514Y-101737901D01*
X151402510Y-101737901D01*
X151395280Y-101736801D01*
X151387988Y-101737394D01*
X151387985Y-101737394D01*
X151342611Y-101741085D01*
X151332396Y-101741500D01*
X151324336Y-101741500D01*
X151320702Y-101741924D01*
X151320696Y-101741924D01*
X151307671Y-101743443D01*
X151296109Y-101744791D01*
X151291761Y-101745221D01*
X151218993Y-101751140D01*
X151212032Y-101753395D01*
X151206092Y-101754582D01*
X151200217Y-101755971D01*
X151192948Y-101756818D01*
X151124299Y-101781736D01*
X151120171Y-101783153D01*
X151057693Y-101803393D01*
X151057691Y-101803394D01*
X151050730Y-101805649D01*
X151044475Y-101809445D01*
X151039001Y-101811951D01*
X151033571Y-101814670D01*
X151026692Y-101817167D01*
X151020572Y-101821180D01*
X151020571Y-101821180D01*
X150965653Y-101857186D01*
X150961949Y-101859523D01*
X150899522Y-101897405D01*
X150891145Y-101904803D01*
X150891121Y-101904776D01*
X150888129Y-101907429D01*
X150884896Y-101910132D01*
X150878777Y-101914144D01*
X150856145Y-101938035D01*
X150825520Y-101970363D01*
X150823142Y-101972806D01*
X150060172Y-102735775D01*
X150017056Y-102762197D01*
X150017562Y-102763334D01*
X149858730Y-102834051D01*
X149858728Y-102834052D01*
X149852700Y-102836736D01*
X149847359Y-102840616D01*
X149847358Y-102840617D01*
X149712045Y-102938927D01*
X149712043Y-102938929D01*
X149706701Y-102942810D01*
X149702280Y-102947720D01*
X149702279Y-102947721D01*
X149599693Y-103061655D01*
X149585947Y-103076921D01*
X149495715Y-103233207D01*
X149493673Y-103239492D01*
X149472803Y-103303723D01*
X149442065Y-103353882D01*
X147311093Y-105484856D01*
X147296681Y-105497242D01*
X147285083Y-105505778D01*
X147279182Y-105510121D01*
X147274443Y-105515699D01*
X147274440Y-105515702D01*
X147244959Y-105550404D01*
X147238029Y-105557920D01*
X147232340Y-105563609D01*
X147230082Y-105566463D01*
X147230073Y-105566473D01*
X147214726Y-105585871D01*
X147211938Y-105589271D01*
X147169405Y-105639336D01*
X147169402Y-105639340D01*
X147164667Y-105644914D01*
X147161340Y-105651429D01*
X147157981Y-105656466D01*
X147154808Y-105661604D01*
X147150266Y-105667345D01*
X147119345Y-105733504D01*
X147117442Y-105737398D01*
X147084231Y-105802437D01*
X147082492Y-105809545D01*
X147080393Y-105815188D01*
X147078476Y-105820951D01*
X147075378Y-105827579D01*
X147073888Y-105834741D01*
X147073888Y-105834742D01*
X147060514Y-105899041D01*
X147059544Y-105903325D01*
X147042192Y-105974239D01*
X147041500Y-105985393D01*
X147041464Y-105985391D01*
X147041225Y-105989384D01*
X147040851Y-105993576D01*
X147039360Y-106000744D01*
X147039558Y-106008061D01*
X147041454Y-106078150D01*
X147041500Y-106081557D01*
X147041500Y-107062999D01*
X147024620Y-107125998D01*
X147011401Y-107148893D01*
X146955635Y-107320525D01*
X146954945Y-107327088D01*
X146954945Y-107327089D01*
X146951907Y-107355996D01*
X146936771Y-107500000D01*
X146955635Y-107679475D01*
X147011401Y-107851107D01*
X147101633Y-108007393D01*
X147106051Y-108012300D01*
X147106052Y-108012301D01*
X147158033Y-108070032D01*
X147222387Y-108141504D01*
X147227729Y-108145385D01*
X147227731Y-108145387D01*
X147350105Y-108234297D01*
X147368385Y-108247578D01*
X147374413Y-108250262D01*
X147374415Y-108250263D01*
X147486281Y-108300069D01*
X147533248Y-108320980D01*
X147611054Y-108337518D01*
X147703311Y-108357128D01*
X147703315Y-108357128D01*
X147709768Y-108358500D01*
X147890232Y-108358500D01*
X147896685Y-108357128D01*
X147896689Y-108357128D01*
X147988946Y-108337518D01*
X148066752Y-108320980D01*
X148113719Y-108300069D01*
X148225585Y-108250263D01*
X148225587Y-108250262D01*
X148231615Y-108247578D01*
X148249895Y-108234297D01*
X148372269Y-108145387D01*
X148372271Y-108145385D01*
X148377613Y-108141504D01*
X148441967Y-108070032D01*
X148493948Y-108012301D01*
X148493949Y-108012300D01*
X148498367Y-108007393D01*
X148588599Y-107851107D01*
X148644365Y-107679475D01*
X148663229Y-107500000D01*
X148648093Y-107355996D01*
X148645055Y-107327089D01*
X148645055Y-107327088D01*
X148644365Y-107320525D01*
X148588599Y-107148893D01*
X148575380Y-107125998D01*
X148558500Y-107062999D01*
X148558500Y-106435000D01*
X148578502Y-106366879D01*
X148595405Y-106345905D01*
X150508455Y-104432854D01*
X150551573Y-104406432D01*
X150551066Y-104405294D01*
X150709899Y-104334577D01*
X150709901Y-104334576D01*
X150715929Y-104331892D01*
X150861927Y-104225818D01*
X150866349Y-104220907D01*
X150978262Y-104096615D01*
X150978263Y-104096614D01*
X150982681Y-104091707D01*
X151072913Y-103935421D01*
X151095825Y-103864905D01*
X151126562Y-103814746D01*
X151255272Y-103686037D01*
X151514170Y-103427139D01*
X151645906Y-103295404D01*
X151708218Y-103261379D01*
X151735001Y-103258500D01*
X156807225Y-103258500D01*
X156875346Y-103278502D01*
X156921839Y-103332158D01*
X156931943Y-103402432D01*
X156904029Y-103462855D01*
X156905074Y-103463666D01*
X156902356Y-103467170D01*
X156894648Y-103476195D01*
X156863028Y-103509867D01*
X156859207Y-103516818D01*
X156859206Y-103516819D01*
X156852697Y-103528658D01*
X156841843Y-103545182D01*
X156834018Y-103555271D01*
X156828696Y-103562132D01*
X156825549Y-103569404D01*
X156825548Y-103569406D01*
X156810346Y-103604535D01*
X156805124Y-103615195D01*
X156782876Y-103655663D01*
X156777541Y-103676441D01*
X156771142Y-103695131D01*
X156762620Y-103714824D01*
X156759441Y-103734898D01*
X156755394Y-103760448D01*
X156752987Y-103772071D01*
X156751973Y-103776020D01*
X156741500Y-103816812D01*
X156741500Y-103838259D01*
X156739949Y-103857969D01*
X156736594Y-103879152D01*
X156737340Y-103887043D01*
X156740941Y-103925138D01*
X156741500Y-103936996D01*
X156741500Y-111875051D01*
X156721498Y-111943172D01*
X156704595Y-111964146D01*
X156608350Y-112060391D01*
X156545451Y-112094543D01*
X156389706Y-112127647D01*
X156389703Y-112127648D01*
X156383248Y-112129020D01*
X156377219Y-112131704D01*
X156377217Y-112131705D01*
X156224416Y-112199737D01*
X156224414Y-112199738D01*
X156218386Y-112202422D01*
X156189905Y-112223115D01*
X156175918Y-112233277D01*
X156109051Y-112257135D01*
X156039899Y-112241055D01*
X156027807Y-112233285D01*
X156002932Y-112215212D01*
X155996904Y-112212528D01*
X155996902Y-112212527D01*
X155844100Y-112144495D01*
X155844098Y-112144495D01*
X155838069Y-112141810D01*
X155661549Y-112104290D01*
X155656549Y-112104290D01*
X155591441Y-112077502D01*
X155561150Y-112042206D01*
X155519427Y-111969939D01*
X155519424Y-111969934D01*
X155516125Y-111964221D01*
X155497173Y-111943172D01*
X155399793Y-111835021D01*
X155399792Y-111835020D01*
X155395371Y-111830110D01*
X155368740Y-111810761D01*
X155254715Y-111727917D01*
X155254714Y-111727916D01*
X155249373Y-111724036D01*
X155243345Y-111721352D01*
X155243343Y-111721351D01*
X155090541Y-111653319D01*
X155090539Y-111653319D01*
X155084510Y-111650634D01*
X154996250Y-111631874D01*
X154914447Y-111614486D01*
X154914443Y-111614486D01*
X154907990Y-111613114D01*
X154727526Y-111613114D01*
X154721073Y-111614486D01*
X154721069Y-111614486D01*
X154639266Y-111631874D01*
X154551006Y-111650634D01*
X154544977Y-111653318D01*
X154544975Y-111653319D01*
X154392174Y-111721351D01*
X154392172Y-111721352D01*
X154386144Y-111724036D01*
X154380803Y-111727916D01*
X154380802Y-111727917D01*
X154245489Y-111826227D01*
X154245487Y-111826229D01*
X154240145Y-111830110D01*
X154235724Y-111835020D01*
X154235723Y-111835021D01*
X154138344Y-111943172D01*
X154119391Y-111964221D01*
X154074366Y-112042206D01*
X154038418Y-112104470D01*
X153987035Y-112153463D01*
X153917322Y-112166899D01*
X153855238Y-112143406D01*
X153731194Y-112053283D01*
X153731193Y-112053282D01*
X153725852Y-112049402D01*
X153719824Y-112046718D01*
X153719822Y-112046717D01*
X153567020Y-111978685D01*
X153567018Y-111978685D01*
X153560989Y-111976000D01*
X153472729Y-111957240D01*
X153390926Y-111939852D01*
X153390922Y-111939852D01*
X153384469Y-111938480D01*
X153204005Y-111938480D01*
X153189797Y-111941500D01*
X153052517Y-111970679D01*
X152981727Y-111965277D01*
X152925094Y-111922460D01*
X152917202Y-111910433D01*
X152900559Y-111881606D01*
X152779805Y-111747495D01*
X152752859Y-111727917D01*
X152639149Y-111645302D01*
X152639148Y-111645301D01*
X152633807Y-111641421D01*
X152627779Y-111638737D01*
X152627777Y-111638736D01*
X152474975Y-111570704D01*
X152474973Y-111570704D01*
X152468944Y-111568019D01*
X152380684Y-111549259D01*
X152298881Y-111531871D01*
X152298877Y-111531871D01*
X152292424Y-111530499D01*
X152111960Y-111530499D01*
X152105507Y-111531871D01*
X152105503Y-111531871D01*
X152023700Y-111549259D01*
X151935440Y-111568019D01*
X151929411Y-111570703D01*
X151929409Y-111570704D01*
X151776608Y-111638736D01*
X151776606Y-111638737D01*
X151770578Y-111641421D01*
X151765237Y-111645301D01*
X151765236Y-111645302D01*
X151629923Y-111743612D01*
X151629921Y-111743614D01*
X151624579Y-111747495D01*
X151503825Y-111881606D01*
X151500521Y-111887328D01*
X151498899Y-111889561D01*
X151442677Y-111932915D01*
X151396963Y-111941500D01*
X148685611Y-111941500D01*
X148617490Y-111921498D01*
X148596516Y-111904595D01*
X140697716Y-104005795D01*
X140689726Y-103997015D01*
X140689724Y-103997013D01*
X140685477Y-103990320D01*
X140633803Y-103941795D01*
X140630962Y-103939041D01*
X140610394Y-103918473D01*
X140606887Y-103915753D01*
X140597865Y-103908047D01*
X140569974Y-103881856D01*
X140564194Y-103876428D01*
X140554908Y-103871323D01*
X140545403Y-103866097D01*
X140528879Y-103855243D01*
X140518193Y-103846955D01*
X140511929Y-103842096D01*
X140504657Y-103838949D01*
X140504655Y-103838948D01*
X140469526Y-103823746D01*
X140458866Y-103818524D01*
X140425345Y-103800095D01*
X140425343Y-103800094D01*
X140418398Y-103796276D01*
X140397620Y-103790941D01*
X140378930Y-103784542D01*
X140359237Y-103776020D01*
X140313613Y-103768794D01*
X140301990Y-103766387D01*
X140273989Y-103759198D01*
X140257249Y-103754900D01*
X140235802Y-103754900D01*
X140216092Y-103753349D01*
X140202738Y-103751234D01*
X140194909Y-103749994D01*
X140148920Y-103754341D01*
X140137065Y-103754900D01*
X138607100Y-103754900D01*
X138538979Y-103734898D01*
X138492486Y-103681242D01*
X138481100Y-103628900D01*
X138481100Y-103515266D01*
X138474345Y-103453084D01*
X138423215Y-103316695D01*
X138335861Y-103200139D01*
X138219305Y-103112785D01*
X138082916Y-103061655D01*
X138020734Y-103054900D01*
X136224466Y-103054900D01*
X136162284Y-103061655D01*
X136025895Y-103112785D01*
X135909339Y-103200139D01*
X135821985Y-103316695D01*
X135770855Y-103453084D01*
X135764100Y-103515266D01*
X135764100Y-105311534D01*
X135770855Y-105373716D01*
X135821985Y-105510105D01*
X135909339Y-105626661D01*
X136025895Y-105714015D01*
X136034304Y-105717167D01*
X136034305Y-105717168D01*
X136143051Y-105757935D01*
X136199816Y-105800576D01*
X136224516Y-105867138D01*
X136209309Y-105936487D01*
X136189916Y-105962968D01*
X136076590Y-106081557D01*
X136063229Y-106095538D01*
X135937343Y-106280080D01*
X135895475Y-106370277D01*
X135870736Y-106423574D01*
X135843288Y-106482705D01*
X135783589Y-106697970D01*
X135759851Y-106920095D01*
X135760148Y-106925248D01*
X135760148Y-106925251D01*
X135765611Y-107019990D01*
X135772710Y-107143115D01*
X135773847Y-107148161D01*
X135773848Y-107148167D01*
X135776569Y-107160240D01*
X135821822Y-107361039D01*
X135905866Y-107568016D01*
X135908565Y-107572420D01*
X135970146Y-107672911D01*
X136022587Y-107758488D01*
X136168850Y-107927338D01*
X136340726Y-108070032D01*
X136411195Y-108111211D01*
X136414045Y-108112876D01*
X136462769Y-108164514D01*
X136475840Y-108234297D01*
X136449109Y-108300069D01*
X136408655Y-108333427D01*
X136396207Y-108339907D01*
X136392074Y-108343010D01*
X136392071Y-108343012D01*
X136371443Y-108358500D01*
X136217565Y-108474035D01*
X136213993Y-108477773D01*
X136103874Y-108593006D01*
X136063229Y-108635538D01*
X135937343Y-108820080D01*
X135935165Y-108824773D01*
X135935164Y-108824774D01*
X135861533Y-108983400D01*
X135843288Y-109022705D01*
X135783589Y-109237970D01*
X135759851Y-109460095D01*
X135760148Y-109465248D01*
X135760148Y-109465251D01*
X135770390Y-109642872D01*
X135772710Y-109683115D01*
X135773847Y-109688161D01*
X135773848Y-109688167D01*
X135778663Y-109709532D01*
X135821822Y-109901039D01*
X135905866Y-110108016D01*
X136022587Y-110298488D01*
X136168850Y-110467338D01*
X136340726Y-110610032D01*
X136411195Y-110651211D01*
X136414045Y-110652876D01*
X136462769Y-110704514D01*
X136475840Y-110774297D01*
X136449109Y-110840069D01*
X136408655Y-110873427D01*
X136396207Y-110879907D01*
X136392074Y-110883010D01*
X136392071Y-110883012D01*
X136221700Y-111010930D01*
X136217565Y-111014035D01*
X136063229Y-111175538D01*
X135937343Y-111360080D01*
X135935164Y-111364775D01*
X135857601Y-111531871D01*
X135843288Y-111562705D01*
X135783589Y-111777970D01*
X135759851Y-112000095D01*
X135760148Y-112005248D01*
X135760148Y-112005251D01*
X135772254Y-112215212D01*
X135772710Y-112223115D01*
X135773847Y-112228161D01*
X135773848Y-112228167D01*
X135794411Y-112319410D01*
X135821822Y-112441039D01*
X135905866Y-112648016D01*
X136022587Y-112838488D01*
X136168850Y-113007338D01*
X136340726Y-113150032D01*
X136411195Y-113191211D01*
X136414045Y-113192876D01*
X136462769Y-113244514D01*
X136475840Y-113314297D01*
X136449109Y-113380069D01*
X136408655Y-113413427D01*
X136396207Y-113419907D01*
X136392074Y-113423010D01*
X136392071Y-113423012D01*
X136221700Y-113550930D01*
X136217565Y-113554035D01*
X136213993Y-113557773D01*
X136066858Y-113711741D01*
X136063229Y-113715538D01*
X136060315Y-113719810D01*
X136060314Y-113719811D01*
X135976654Y-113842452D01*
X135937343Y-113900080D01*
X135918115Y-113941504D01*
X135850888Y-114086333D01*
X135843288Y-114102705D01*
X135783589Y-114317970D01*
X135759851Y-114540095D01*
X135760148Y-114545248D01*
X135760148Y-114545251D01*
X135767782Y-114677648D01*
X135772710Y-114763115D01*
X135773847Y-114768161D01*
X135773848Y-114768167D01*
X135778128Y-114787158D01*
X135821822Y-114981039D01*
X135905866Y-115188016D01*
X135908565Y-115192420D01*
X135983220Y-115314246D01*
X136022587Y-115378488D01*
X136168850Y-115547338D01*
X136340726Y-115690032D01*
X136411195Y-115731211D01*
X136414045Y-115732876D01*
X136462769Y-115784514D01*
X136475840Y-115854297D01*
X136449109Y-115920069D01*
X136408655Y-115953427D01*
X136396207Y-115959907D01*
X136392074Y-115963010D01*
X136392071Y-115963012D01*
X136306446Y-116027301D01*
X136217565Y-116094035D01*
X136213993Y-116097773D01*
X136074545Y-116243697D01*
X136063229Y-116255538D01*
X136060315Y-116259810D01*
X136060314Y-116259811D01*
X136017811Y-116322118D01*
X135937343Y-116440080D01*
X135843288Y-116642705D01*
X135783589Y-116857970D01*
X135759851Y-117080095D01*
X135760148Y-117085248D01*
X135760148Y-117085251D01*
X135767709Y-117216381D01*
X135772710Y-117303115D01*
X135773847Y-117308161D01*
X135773848Y-117308167D01*
X135793389Y-117394875D01*
X135821822Y-117521039D01*
X135905866Y-117728016D01*
X136022587Y-117918488D01*
X136168850Y-118087338D01*
X136340726Y-118230032D01*
X136411195Y-118271211D01*
X136414045Y-118272876D01*
X136462769Y-118324514D01*
X136475840Y-118394297D01*
X136449109Y-118460069D01*
X136408655Y-118493427D01*
X136396207Y-118499907D01*
X136392074Y-118503010D01*
X136392071Y-118503012D01*
X136221700Y-118630930D01*
X136217565Y-118634035D01*
X136063229Y-118795538D01*
X136060315Y-118799810D01*
X136060314Y-118799811D01*
X136000361Y-118887699D01*
X135937343Y-118980080D01*
X135921603Y-119013990D01*
X135847434Y-119173774D01*
X135843288Y-119182705D01*
X135783589Y-119397970D01*
X135759851Y-119620095D01*
X135760148Y-119625248D01*
X135760148Y-119625251D01*
X135768587Y-119771606D01*
X135772710Y-119843115D01*
X135773847Y-119848161D01*
X135773848Y-119848167D01*
X135787196Y-119907393D01*
X135821822Y-120061039D01*
X135862546Y-120161330D01*
X135892958Y-120236226D01*
X135905866Y-120268016D01*
X136022587Y-120458488D01*
X136168850Y-120627338D01*
X136340726Y-120770032D01*
X136411195Y-120811211D01*
X136414045Y-120812876D01*
X136462769Y-120864514D01*
X136475840Y-120934297D01*
X136449109Y-121000069D01*
X136408655Y-121033427D01*
X136396207Y-121039907D01*
X136392074Y-121043010D01*
X136392071Y-121043012D01*
X136221700Y-121170930D01*
X136217565Y-121174035D01*
X136213993Y-121177773D01*
X136068365Y-121330164D01*
X136063229Y-121335538D01*
X136060315Y-121339810D01*
X136060314Y-121339811D01*
X135999798Y-121428524D01*
X135937343Y-121520080D01*
X135843288Y-121722705D01*
X135783589Y-121937970D01*
X135759851Y-122160095D01*
X126716141Y-122160095D01*
X126730812Y-103881856D01*
X126739405Y-93176695D01*
X171137251Y-93176695D01*
X171137548Y-93181848D01*
X171137548Y-93181851D01*
X171143011Y-93276590D01*
X171150110Y-93399715D01*
X171151247Y-93404761D01*
X171151248Y-93404767D01*
X171171119Y-93492939D01*
X171199222Y-93617639D01*
X171283266Y-93824616D01*
X171399987Y-94015088D01*
X171546250Y-94183938D01*
X171550230Y-94187242D01*
X171554981Y-94191187D01*
X171594616Y-94250090D01*
X171596113Y-94321071D01*
X171558997Y-94381593D01*
X171518724Y-94406112D01*
X171403295Y-94449385D01*
X171286739Y-94536739D01*
X171199385Y-94653295D01*
X171148255Y-94789684D01*
X171141500Y-94851866D01*
X171141500Y-96648134D01*
X171148255Y-96710316D01*
X171199385Y-96846705D01*
X171286739Y-96963261D01*
X171403295Y-97050615D01*
X171539684Y-97101745D01*
X171601866Y-97108500D01*
X173398134Y-97108500D01*
X173460316Y-97101745D01*
X173596705Y-97050615D01*
X173713261Y-96963261D01*
X173800615Y-96846705D01*
X173851745Y-96710316D01*
X173858500Y-96648134D01*
X173858500Y-94851866D01*
X173851745Y-94789684D01*
X173800615Y-94653295D01*
X173713261Y-94536739D01*
X173596705Y-94449385D01*
X173584132Y-94444672D01*
X173478203Y-94404960D01*
X173421439Y-94362318D01*
X173396739Y-94295756D01*
X173411947Y-94226408D01*
X173433493Y-94197727D01*
X173534435Y-94097137D01*
X173538096Y-94093489D01*
X173597594Y-94010689D01*
X173665435Y-93916277D01*
X173668453Y-93912077D01*
X173767430Y-93711811D01*
X173832370Y-93498069D01*
X173861529Y-93276590D01*
X173863156Y-93210000D01*
X173844852Y-92987361D01*
X173790431Y-92770702D01*
X173701354Y-92565840D01*
X173580014Y-92378277D01*
X173429670Y-92213051D01*
X173425619Y-92209852D01*
X173425615Y-92209848D01*
X173258414Y-92077800D01*
X173258410Y-92077798D01*
X173254359Y-92074598D01*
X173213053Y-92051796D01*
X173163084Y-92001364D01*
X173148312Y-91931921D01*
X173173428Y-91865516D01*
X173200780Y-91838909D01*
X173244603Y-91807650D01*
X173379860Y-91711173D01*
X173538096Y-91553489D01*
X173597594Y-91470689D01*
X173665435Y-91376277D01*
X173668453Y-91372077D01*
X173767430Y-91171811D01*
X173832370Y-90958069D01*
X173861529Y-90736590D01*
X173863156Y-90670000D01*
X173844852Y-90447361D01*
X173790431Y-90230702D01*
X173701354Y-90025840D01*
X173580014Y-89838277D01*
X173429670Y-89673051D01*
X173425619Y-89669852D01*
X173425615Y-89669848D01*
X173258414Y-89537800D01*
X173258410Y-89537798D01*
X173254359Y-89534598D01*
X173212569Y-89511529D01*
X173162598Y-89461097D01*
X173147826Y-89391654D01*
X173172942Y-89325248D01*
X173200294Y-89298641D01*
X173375328Y-89173792D01*
X173383200Y-89167139D01*
X173534052Y-89016812D01*
X173540730Y-89008965D01*
X173665003Y-88836020D01*
X173670313Y-88827183D01*
X173764670Y-88636267D01*
X173768469Y-88626672D01*
X173830377Y-88422910D01*
X173832555Y-88412837D01*
X173833986Y-88401962D01*
X173831775Y-88387778D01*
X173818617Y-88384000D01*
X171183225Y-88384000D01*
X171169694Y-88387973D01*
X171168257Y-88397966D01*
X171198565Y-88532446D01*
X171201645Y-88542275D01*
X171281770Y-88739603D01*
X171286413Y-88748794D01*
X171397694Y-88930388D01*
X171403777Y-88938699D01*
X171543213Y-89099667D01*
X171550580Y-89106883D01*
X171714434Y-89242916D01*
X171722881Y-89248831D01*
X171791969Y-89289203D01*
X171840693Y-89340842D01*
X171853764Y-89410625D01*
X171827033Y-89476396D01*
X171786584Y-89509752D01*
X171773607Y-89516507D01*
X171769474Y-89519610D01*
X171769471Y-89519612D01*
X171745247Y-89537800D01*
X171594965Y-89650635D01*
X171440629Y-89812138D01*
X171314743Y-89996680D01*
X171220688Y-90199305D01*
X171160989Y-90414570D01*
X171137251Y-90636695D01*
X171137548Y-90641848D01*
X171137548Y-90641851D01*
X171143011Y-90736590D01*
X171150110Y-90859715D01*
X171151247Y-90864761D01*
X171151248Y-90864767D01*
X171171119Y-90952939D01*
X171199222Y-91077639D01*
X171283266Y-91284616D01*
X171399987Y-91475088D01*
X171546250Y-91643938D01*
X171718126Y-91786632D01*
X171788595Y-91827811D01*
X171791445Y-91829476D01*
X171840169Y-91881114D01*
X171853240Y-91950897D01*
X171826509Y-92016669D01*
X171786055Y-92050027D01*
X171773607Y-92056507D01*
X171769474Y-92059610D01*
X171769471Y-92059612D01*
X171745247Y-92077800D01*
X171594965Y-92190635D01*
X171440629Y-92352138D01*
X171314743Y-92536680D01*
X171220688Y-92739305D01*
X171160989Y-92954570D01*
X171137251Y-93176695D01*
X126739405Y-93176695D01*
X126743669Y-87864183D01*
X171164389Y-87864183D01*
X171165912Y-87872607D01*
X171178292Y-87876000D01*
X172227885Y-87876000D01*
X172243124Y-87871525D01*
X172244329Y-87870135D01*
X172246000Y-87862452D01*
X172246000Y-87857885D01*
X172754000Y-87857885D01*
X172758475Y-87873124D01*
X172759865Y-87874329D01*
X172767548Y-87876000D01*
X173818344Y-87876000D01*
X173831875Y-87872027D01*
X173833180Y-87862947D01*
X173791214Y-87695875D01*
X173787894Y-87686124D01*
X173702972Y-87490814D01*
X173698105Y-87481739D01*
X173582426Y-87302926D01*
X173576136Y-87294757D01*
X173432806Y-87137240D01*
X173425273Y-87130215D01*
X173258139Y-86998222D01*
X173249552Y-86992517D01*
X173063117Y-86889599D01*
X173053705Y-86885369D01*
X172852959Y-86814280D01*
X172842988Y-86811646D01*
X172771837Y-86798972D01*
X172758540Y-86800432D01*
X172754000Y-86814989D01*
X172754000Y-87857885D01*
X172246000Y-87857885D01*
X172246000Y-86813102D01*
X172242082Y-86799758D01*
X172227806Y-86797771D01*
X172189324Y-86803660D01*
X172179288Y-86806051D01*
X171976868Y-86872212D01*
X171967359Y-86876209D01*
X171778463Y-86974542D01*
X171769738Y-86980036D01*
X171599433Y-87107905D01*
X171591726Y-87114748D01*
X171444590Y-87268717D01*
X171438104Y-87276727D01*
X171318098Y-87452649D01*
X171313000Y-87461623D01*
X171223338Y-87654783D01*
X171219775Y-87664470D01*
X171164389Y-87864183D01*
X126743669Y-87864183D01*
X126744856Y-86385915D01*
X126746357Y-86366631D01*
X126748706Y-86351548D01*
X126748706Y-86351542D01*
X126750087Y-86342674D01*
X126748923Y-86333773D01*
X126749033Y-86324799D01*
X126749237Y-86324801D01*
X126749247Y-86303353D01*
X126756071Y-86251519D01*
X126764584Y-86219747D01*
X126791001Y-86155970D01*
X126807444Y-86127489D01*
X126849470Y-86072721D01*
X126872721Y-86049470D01*
X126927489Y-86007444D01*
X126955969Y-85991002D01*
X127019746Y-85964584D01*
X127051520Y-85956070D01*
X127064554Y-85954354D01*
X127099676Y-85949731D01*
X127117656Y-85948662D01*
X127121252Y-85948706D01*
X127130122Y-85950087D01*
X127139023Y-85948923D01*
X127139026Y-85948923D01*
X127161681Y-85945960D01*
X127178019Y-85944896D01*
X182714236Y-85944896D01*
X182733622Y-85946396D01*
G37*
%TD.AperFunction*%
%TA.AperFunction,Conductor*%
G36*
X138699490Y-109461550D02*
G01*
X140095545Y-110857605D01*
X140103535Y-110866385D01*
X140107784Y-110873080D01*
X140113562Y-110878506D01*
X140113563Y-110878507D01*
X140159457Y-110921604D01*
X140162299Y-110924359D01*
X140182867Y-110944927D01*
X140186370Y-110947644D01*
X140195395Y-110955352D01*
X140229067Y-110986972D01*
X140236018Y-110990793D01*
X140236019Y-110990794D01*
X140247858Y-110997303D01*
X140264382Y-111008157D01*
X140275065Y-111016443D01*
X140281332Y-111021304D01*
X140288607Y-111024452D01*
X140323736Y-111039654D01*
X140334381Y-111044869D01*
X140374863Y-111067124D01*
X140382537Y-111069094D01*
X140382544Y-111069097D01*
X140395626Y-111072455D01*
X140414334Y-111078860D01*
X140434023Y-111087380D01*
X140441849Y-111088619D01*
X140441851Y-111088620D01*
X140466359Y-111092501D01*
X140479659Y-111094608D01*
X140491270Y-111097012D01*
X140522307Y-111104981D01*
X140528335Y-111106529D01*
X140528336Y-111106529D01*
X140536012Y-111108500D01*
X140557458Y-111108500D01*
X140577168Y-111110051D01*
X140590522Y-111112166D01*
X140590523Y-111112166D01*
X140598352Y-111113406D01*
X140644341Y-111109059D01*
X140656196Y-111108500D01*
X145178605Y-111108500D01*
X145246726Y-111128502D01*
X145267700Y-111145405D01*
X146848700Y-112726405D01*
X146882726Y-112788717D01*
X146877661Y-112859532D01*
X146835114Y-112916368D01*
X146768594Y-112941179D01*
X146759605Y-112941500D01*
X141554149Y-112941500D01*
X141486028Y-112921498D01*
X141465054Y-112904595D01*
X138482057Y-109921597D01*
X138448031Y-109859285D01*
X138450594Y-109795873D01*
X138454970Y-109781469D01*
X138484129Y-109559990D01*
X138484433Y-109547563D01*
X138506095Y-109479952D01*
X138560872Y-109434785D01*
X138631372Y-109426403D01*
X138699490Y-109461550D01*
G37*
%TD.AperFunction*%
%TA.AperFunction,Conductor*%
G36*
X139917232Y-105091902D02*
G01*
X139938206Y-105108805D01*
X144405806Y-109576405D01*
X144439832Y-109638717D01*
X144434767Y-109709532D01*
X144392220Y-109766368D01*
X144325700Y-109791179D01*
X144316711Y-109791500D01*
X140944150Y-109791500D01*
X140876029Y-109771498D01*
X140855055Y-109754595D01*
X138482057Y-107381597D01*
X138448031Y-107319285D01*
X138450594Y-107255873D01*
X138454970Y-107241469D01*
X138484129Y-107019990D01*
X138484211Y-107016640D01*
X138485674Y-106956765D01*
X138485674Y-106956761D01*
X138485756Y-106953400D01*
X138467452Y-106730761D01*
X138413031Y-106514102D01*
X138323954Y-106309240D01*
X138237021Y-106174862D01*
X138205422Y-106126017D01*
X138205420Y-106126014D01*
X138202614Y-106121677D01*
X138199132Y-106117850D01*
X138055398Y-105959888D01*
X138024346Y-105896042D01*
X138032741Y-105825543D01*
X138077917Y-105770775D01*
X138104361Y-105757106D01*
X138210897Y-105717167D01*
X138219305Y-105714015D01*
X138335861Y-105626661D01*
X138423215Y-105510105D01*
X138474345Y-105373716D01*
X138481100Y-105311534D01*
X138481100Y-105197900D01*
X138501102Y-105129779D01*
X138554758Y-105083286D01*
X138607100Y-105071900D01*
X139849111Y-105071900D01*
X139917232Y-105091902D01*
G37*
%TD.AperFunction*%
%TD*%
M02*
