M48
; DRILL file {KiCad (6.0.8)} date Thu Oct 27 20:00:05 2022
; FORMAT={-:-/ absolute / metric / decimal}
; #@! TF.CreationDate,2022-10-27T20:00:05-05:00
; #@! TF.GenerationSoftware,Kicad,Pcbnew,(6.0.8)
; #@! TF.FileFunction,Plated,1,2,PTH
FMAT,2
METRIC
; #@! TA.AperFunction,Plated,PTH,ComponentDrill
T1C0.250
; #@! TA.AperFunction,Plated,PTH,ViaDrill
T2C0.300
; #@! TA.AperFunction,Plated,PTH,ViaDrill
T3C0.400
; #@! TA.AperFunction,Plated,PTH,ComponentDrill
T4C0.550
; #@! TA.AperFunction,Plated,PTH,ComponentDrill
T5C0.850
; #@! TA.AperFunction,Plated,PTH,ComponentDrill
T6C1.000
%
G90
G05
T1
X172.755Y-107.175
X172.755Y-108.175
T2
X142.7Y-111.9
X144.4Y-109.7
X147.8Y-107.5
X149.2Y-106.0
X149.6Y-115.5
X149.855Y-105.145
X150.284Y-103.584
X152.202Y-112.389
X153.1Y-111.6
X153.2Y-108.3
X153.294Y-112.797
X154.076Y-113.42
X154.818Y-112.472
X155.571Y-112.963
X156.65Y-112.95
X157.0Y-119.4
X157.7Y-117.6
X157.8Y-103.5
X157.9Y-113.3
X159.85Y-106.3
X165.0Y-108.6
X165.6Y-110.5
X168.0Y-112.1
T3
X131.1Y-95.7
X143.7Y-114.6
X173.8Y-113.0
X174.9Y-106.2
T6
X137.123Y-104.413
X137.123Y-106.953
X137.123Y-109.493
X137.123Y-112.033
X137.123Y-114.573
X137.123Y-117.113
X137.123Y-119.653
X137.123Y-122.193
X143.736Y-126.033
X146.195Y-96.2
X146.276Y-126.033
X148.735Y-96.2
X148.816Y-126.033
X151.275Y-96.2
X151.356Y-126.033
X153.815Y-96.2
X153.896Y-126.033
X156.355Y-96.2
X156.436Y-126.033
X158.895Y-96.2
X158.976Y-126.033
X161.435Y-96.2
X161.516Y-126.033
X163.975Y-96.2
X172.5Y-88.13
X172.5Y-90.67
X172.5Y-93.21
X172.5Y-95.75
X172.855Y-125.015
X172.855Y-127.555
X172.855Y-130.095
X172.855Y-132.635
X172.855Y-135.175
X180.58Y-99.85
X180.58Y-102.39
T4
G00X181.57Y-113.33
M15
G01X182.22Y-113.33
M16
G05
G00X181.57Y-121.08
M15
G01X182.22Y-121.08
M16
G05
T5
G00X177.82Y-113.48
M15
G01X178.37Y-113.48
M16
G05
G00X177.82Y-120.93
M15
G01X178.37Y-120.93
M16
G05
T0
M30
