%TF.GenerationSoftware,KiCad,Pcbnew,(6.0.8)*%
%TF.CreationDate,2022-10-27T20:00:02-05:00*%
%TF.ProjectId,STM32RFBoardPhil,53544d33-3252-4464-926f-617264506869,rev?*%
%TF.SameCoordinates,Original*%
%TF.FileFunction,Legend,Top*%
%TF.FilePolarity,Positive*%
%FSLAX46Y46*%
G04 Gerber Fmt 4.6, Leading zero omitted, Abs format (unit mm)*
G04 Created by KiCad (PCBNEW (6.0.8)) date 2022-10-27 20:00:02*
%MOMM*%
%LPD*%
G01*
G04 APERTURE LIST*
%ADD10C,0.100000*%
%ADD11C,0.150000*%
%ADD12C,0.300000*%
%ADD13C,0.400000*%
%ADD14C,0.125000*%
%ADD15C,0.120000*%
G04 APERTURE END LIST*
D10*
D11*
X177002200Y-166007200D02*
X177002200Y-198007200D01*
X285002200Y-198007200D01*
X285002200Y-166007200D01*
X177002200Y-166007200D01*
D10*
D11*
X10000000Y-10000000D02*
X10000000Y-200007200D01*
X287002200Y-200007200D01*
X287002200Y-10000000D01*
X10000000Y-10000000D01*
D10*
D11*
X12000000Y-12000000D02*
X12000000Y-198007200D01*
X285002200Y-198007200D01*
X285002200Y-12000000D01*
X12000000Y-12000000D01*
D10*
D11*
X60000000Y-12000000D02*
X60000000Y-10000000D01*
D10*
D11*
X110000000Y-12000000D02*
X110000000Y-10000000D01*
D10*
D11*
X160000000Y-12000000D02*
X160000000Y-10000000D01*
D10*
D11*
X210000000Y-12000000D02*
X210000000Y-10000000D01*
D10*
D11*
X260000000Y-12000000D02*
X260000000Y-10000000D01*
D10*
D11*
X36065476Y-11588095D02*
X35322619Y-11588095D01*
X35694047Y-11588095D02*
X35694047Y-10288095D01*
X35570238Y-10473809D01*
X35446428Y-10597619D01*
X35322619Y-10659523D01*
D10*
D11*
X85322619Y-10411904D02*
X85384523Y-10350000D01*
X85508333Y-10288095D01*
X85817857Y-10288095D01*
X85941666Y-10350000D01*
X86003571Y-10411904D01*
X86065476Y-10535714D01*
X86065476Y-10659523D01*
X86003571Y-10845238D01*
X85260714Y-11588095D01*
X86065476Y-11588095D01*
D10*
D11*
X135260714Y-10288095D02*
X136065476Y-10288095D01*
X135632142Y-10783333D01*
X135817857Y-10783333D01*
X135941666Y-10845238D01*
X136003571Y-10907142D01*
X136065476Y-11030952D01*
X136065476Y-11340476D01*
X136003571Y-11464285D01*
X135941666Y-11526190D01*
X135817857Y-11588095D01*
X135446428Y-11588095D01*
X135322619Y-11526190D01*
X135260714Y-11464285D01*
D10*
D11*
X185941666Y-10721428D02*
X185941666Y-11588095D01*
X185632142Y-10226190D02*
X185322619Y-11154761D01*
X186127380Y-11154761D01*
D10*
D11*
X236003571Y-10288095D02*
X235384523Y-10288095D01*
X235322619Y-10907142D01*
X235384523Y-10845238D01*
X235508333Y-10783333D01*
X235817857Y-10783333D01*
X235941666Y-10845238D01*
X236003571Y-10907142D01*
X236065476Y-11030952D01*
X236065476Y-11340476D01*
X236003571Y-11464285D01*
X235941666Y-11526190D01*
X235817857Y-11588095D01*
X235508333Y-11588095D01*
X235384523Y-11526190D01*
X235322619Y-11464285D01*
D10*
D11*
X285941666Y-10288095D02*
X285694047Y-10288095D01*
X285570238Y-10350000D01*
X285508333Y-10411904D01*
X285384523Y-10597619D01*
X285322619Y-10845238D01*
X285322619Y-11340476D01*
X285384523Y-11464285D01*
X285446428Y-11526190D01*
X285570238Y-11588095D01*
X285817857Y-11588095D01*
X285941666Y-11526190D01*
X286003571Y-11464285D01*
X286065476Y-11340476D01*
X286065476Y-11030952D01*
X286003571Y-10907142D01*
X285941666Y-10845238D01*
X285817857Y-10783333D01*
X285570238Y-10783333D01*
X285446428Y-10845238D01*
X285384523Y-10907142D01*
X285322619Y-11030952D01*
D10*
D11*
X60000000Y-198007200D02*
X60000000Y-200007200D01*
D10*
D11*
X110000000Y-198007200D02*
X110000000Y-200007200D01*
D10*
D11*
X160000000Y-198007200D02*
X160000000Y-200007200D01*
D10*
D11*
X210000000Y-198007200D02*
X210000000Y-200007200D01*
D10*
D11*
X260000000Y-198007200D02*
X260000000Y-200007200D01*
D10*
D11*
X36065476Y-199595295D02*
X35322619Y-199595295D01*
X35694047Y-199595295D02*
X35694047Y-198295295D01*
X35570238Y-198481009D01*
X35446428Y-198604819D01*
X35322619Y-198666723D01*
D10*
D11*
X85322619Y-198419104D02*
X85384523Y-198357200D01*
X85508333Y-198295295D01*
X85817857Y-198295295D01*
X85941666Y-198357200D01*
X86003571Y-198419104D01*
X86065476Y-198542914D01*
X86065476Y-198666723D01*
X86003571Y-198852438D01*
X85260714Y-199595295D01*
X86065476Y-199595295D01*
D10*
D11*
X135260714Y-198295295D02*
X136065476Y-198295295D01*
X135632142Y-198790533D01*
X135817857Y-198790533D01*
X135941666Y-198852438D01*
X136003571Y-198914342D01*
X136065476Y-199038152D01*
X136065476Y-199347676D01*
X136003571Y-199471485D01*
X135941666Y-199533390D01*
X135817857Y-199595295D01*
X135446428Y-199595295D01*
X135322619Y-199533390D01*
X135260714Y-199471485D01*
D10*
D11*
X185941666Y-198728628D02*
X185941666Y-199595295D01*
X185632142Y-198233390D02*
X185322619Y-199161961D01*
X186127380Y-199161961D01*
D10*
D11*
X236003571Y-198295295D02*
X235384523Y-198295295D01*
X235322619Y-198914342D01*
X235384523Y-198852438D01*
X235508333Y-198790533D01*
X235817857Y-198790533D01*
X235941666Y-198852438D01*
X236003571Y-198914342D01*
X236065476Y-199038152D01*
X236065476Y-199347676D01*
X236003571Y-199471485D01*
X235941666Y-199533390D01*
X235817857Y-199595295D01*
X235508333Y-199595295D01*
X235384523Y-199533390D01*
X235322619Y-199471485D01*
D10*
D11*
X285941666Y-198295295D02*
X285694047Y-198295295D01*
X285570238Y-198357200D01*
X285508333Y-198419104D01*
X285384523Y-198604819D01*
X285322619Y-198852438D01*
X285322619Y-199347676D01*
X285384523Y-199471485D01*
X285446428Y-199533390D01*
X285570238Y-199595295D01*
X285817857Y-199595295D01*
X285941666Y-199533390D01*
X286003571Y-199471485D01*
X286065476Y-199347676D01*
X286065476Y-199038152D01*
X286003571Y-198914342D01*
X285941666Y-198852438D01*
X285817857Y-198790533D01*
X285570238Y-198790533D01*
X285446428Y-198852438D01*
X285384523Y-198914342D01*
X285322619Y-199038152D01*
D10*
D11*
X10000000Y-60000000D02*
X12000000Y-60000000D01*
D10*
D11*
X10000000Y-110000000D02*
X12000000Y-110000000D01*
D10*
D11*
X10000000Y-160000000D02*
X12000000Y-160000000D01*
D10*
D11*
X10690476Y-35216666D02*
X11309523Y-35216666D01*
X10566666Y-35588095D02*
X11000000Y-34288095D01*
X11433333Y-35588095D01*
D10*
D11*
X11092857Y-84907142D02*
X11278571Y-84969047D01*
X11340476Y-85030952D01*
X11402380Y-85154761D01*
X11402380Y-85340476D01*
X11340476Y-85464285D01*
X11278571Y-85526190D01*
X11154761Y-85588095D01*
X10659523Y-85588095D01*
X10659523Y-84288095D01*
X11092857Y-84288095D01*
X11216666Y-84350000D01*
X11278571Y-84411904D01*
X11340476Y-84535714D01*
X11340476Y-84659523D01*
X11278571Y-84783333D01*
X11216666Y-84845238D01*
X11092857Y-84907142D01*
X10659523Y-84907142D01*
D10*
D11*
X11402380Y-135464285D02*
X11340476Y-135526190D01*
X11154761Y-135588095D01*
X11030952Y-135588095D01*
X10845238Y-135526190D01*
X10721428Y-135402380D01*
X10659523Y-135278571D01*
X10597619Y-135030952D01*
X10597619Y-134845238D01*
X10659523Y-134597619D01*
X10721428Y-134473809D01*
X10845238Y-134350000D01*
X11030952Y-134288095D01*
X11154761Y-134288095D01*
X11340476Y-134350000D01*
X11402380Y-134411904D01*
D10*
D11*
X10659523Y-185588095D02*
X10659523Y-184288095D01*
X10969047Y-184288095D01*
X11154761Y-184350000D01*
X11278571Y-184473809D01*
X11340476Y-184597619D01*
X11402380Y-184845238D01*
X11402380Y-185030952D01*
X11340476Y-185278571D01*
X11278571Y-185402380D01*
X11154761Y-185526190D01*
X10969047Y-185588095D01*
X10659523Y-185588095D01*
D10*
D11*
X287002200Y-60000000D02*
X285002200Y-60000000D01*
D10*
D11*
X287002200Y-110000000D02*
X285002200Y-110000000D01*
D10*
D11*
X287002200Y-160000000D02*
X285002200Y-160000000D01*
D10*
D11*
X285692676Y-35216666D02*
X286311723Y-35216666D01*
X285568866Y-35588095D02*
X286002200Y-34288095D01*
X286435533Y-35588095D01*
D10*
D11*
X286095057Y-84907142D02*
X286280771Y-84969047D01*
X286342676Y-85030952D01*
X286404580Y-85154761D01*
X286404580Y-85340476D01*
X286342676Y-85464285D01*
X286280771Y-85526190D01*
X286156961Y-85588095D01*
X285661723Y-85588095D01*
X285661723Y-84288095D01*
X286095057Y-84288095D01*
X286218866Y-84350000D01*
X286280771Y-84411904D01*
X286342676Y-84535714D01*
X286342676Y-84659523D01*
X286280771Y-84783333D01*
X286218866Y-84845238D01*
X286095057Y-84907142D01*
X285661723Y-84907142D01*
D10*
D11*
X286404580Y-135464285D02*
X286342676Y-135526190D01*
X286156961Y-135588095D01*
X286033152Y-135588095D01*
X285847438Y-135526190D01*
X285723628Y-135402380D01*
X285661723Y-135278571D01*
X285599819Y-135030952D01*
X285599819Y-134845238D01*
X285661723Y-134597619D01*
X285723628Y-134473809D01*
X285847438Y-134350000D01*
X286033152Y-134288095D01*
X286156961Y-134288095D01*
X286342676Y-134350000D01*
X286404580Y-134411904D01*
D10*
D11*
X285661723Y-185588095D02*
X285661723Y-184288095D01*
X285971247Y-184288095D01*
X286156961Y-184350000D01*
X286280771Y-184473809D01*
X286342676Y-184597619D01*
X286404580Y-184845238D01*
X286404580Y-185030952D01*
X286342676Y-185278571D01*
X286280771Y-185402380D01*
X286156961Y-185526190D01*
X285971247Y-185588095D01*
X285661723Y-185588095D01*
D10*
D11*
X200434342Y-193785771D02*
X200434342Y-192285771D01*
X200791485Y-192285771D01*
X201005771Y-192357200D01*
X201148628Y-192500057D01*
X201220057Y-192642914D01*
X201291485Y-192928628D01*
X201291485Y-193142914D01*
X201220057Y-193428628D01*
X201148628Y-193571485D01*
X201005771Y-193714342D01*
X200791485Y-193785771D01*
X200434342Y-193785771D01*
X202577200Y-193785771D02*
X202577200Y-193000057D01*
X202505771Y-192857200D01*
X202362914Y-192785771D01*
X202077200Y-192785771D01*
X201934342Y-192857200D01*
X202577200Y-193714342D02*
X202434342Y-193785771D01*
X202077200Y-193785771D01*
X201934342Y-193714342D01*
X201862914Y-193571485D01*
X201862914Y-193428628D01*
X201934342Y-193285771D01*
X202077200Y-193214342D01*
X202434342Y-193214342D01*
X202577200Y-193142914D01*
X203077200Y-192785771D02*
X203648628Y-192785771D01*
X203291485Y-192285771D02*
X203291485Y-193571485D01*
X203362914Y-193714342D01*
X203505771Y-193785771D01*
X203648628Y-193785771D01*
X204720057Y-193714342D02*
X204577200Y-193785771D01*
X204291485Y-193785771D01*
X204148628Y-193714342D01*
X204077200Y-193571485D01*
X204077200Y-193000057D01*
X204148628Y-192857200D01*
X204291485Y-192785771D01*
X204577200Y-192785771D01*
X204720057Y-192857200D01*
X204791485Y-193000057D01*
X204791485Y-193142914D01*
X204077200Y-193285771D01*
X205434342Y-193642914D02*
X205505771Y-193714342D01*
X205434342Y-193785771D01*
X205362914Y-193714342D01*
X205434342Y-193642914D01*
X205434342Y-193785771D01*
X205434342Y-192857200D02*
X205505771Y-192928628D01*
X205434342Y-193000057D01*
X205362914Y-192928628D01*
X205434342Y-192857200D01*
X205434342Y-193000057D01*
D10*
D11*
X177002200Y-194507200D02*
X285002200Y-194507200D01*
D10*
D11*
X178434342Y-196585771D02*
X178434342Y-195085771D01*
X179291485Y-196585771D02*
X178648628Y-195728628D01*
X179291485Y-195085771D02*
X178434342Y-195942914D01*
X179934342Y-196585771D02*
X179934342Y-195585771D01*
X179934342Y-195085771D02*
X179862914Y-195157200D01*
X179934342Y-195228628D01*
X180005771Y-195157200D01*
X179934342Y-195085771D01*
X179934342Y-195228628D01*
X181505771Y-196442914D02*
X181434342Y-196514342D01*
X181220057Y-196585771D01*
X181077200Y-196585771D01*
X180862914Y-196514342D01*
X180720057Y-196371485D01*
X180648628Y-196228628D01*
X180577200Y-195942914D01*
X180577200Y-195728628D01*
X180648628Y-195442914D01*
X180720057Y-195300057D01*
X180862914Y-195157200D01*
X181077200Y-195085771D01*
X181220057Y-195085771D01*
X181434342Y-195157200D01*
X181505771Y-195228628D01*
X182791485Y-196585771D02*
X182791485Y-195800057D01*
X182720057Y-195657200D01*
X182577200Y-195585771D01*
X182291485Y-195585771D01*
X182148628Y-195657200D01*
X182791485Y-196514342D02*
X182648628Y-196585771D01*
X182291485Y-196585771D01*
X182148628Y-196514342D01*
X182077200Y-196371485D01*
X182077200Y-196228628D01*
X182148628Y-196085771D01*
X182291485Y-196014342D01*
X182648628Y-196014342D01*
X182791485Y-195942914D01*
X184148628Y-196585771D02*
X184148628Y-195085771D01*
X184148628Y-196514342D02*
X184005771Y-196585771D01*
X183720057Y-196585771D01*
X183577200Y-196514342D01*
X183505771Y-196442914D01*
X183434342Y-196300057D01*
X183434342Y-195871485D01*
X183505771Y-195728628D01*
X183577200Y-195657200D01*
X183720057Y-195585771D01*
X184005771Y-195585771D01*
X184148628Y-195657200D01*
X186005771Y-195800057D02*
X186505771Y-195800057D01*
X186720057Y-196585771D02*
X186005771Y-196585771D01*
X186005771Y-195085771D01*
X186720057Y-195085771D01*
X187362914Y-196442914D02*
X187434342Y-196514342D01*
X187362914Y-196585771D01*
X187291485Y-196514342D01*
X187362914Y-196442914D01*
X187362914Y-196585771D01*
X188077200Y-196585771D02*
X188077200Y-195085771D01*
X188434342Y-195085771D01*
X188648628Y-195157200D01*
X188791485Y-195300057D01*
X188862914Y-195442914D01*
X188934342Y-195728628D01*
X188934342Y-195942914D01*
X188862914Y-196228628D01*
X188791485Y-196371485D01*
X188648628Y-196514342D01*
X188434342Y-196585771D01*
X188077200Y-196585771D01*
X189577200Y-196442914D02*
X189648628Y-196514342D01*
X189577200Y-196585771D01*
X189505771Y-196514342D01*
X189577200Y-196442914D01*
X189577200Y-196585771D01*
X190220057Y-196157200D02*
X190934342Y-196157200D01*
X190077200Y-196585771D02*
X190577200Y-195085771D01*
X191077200Y-196585771D01*
X191577200Y-196442914D02*
X191648628Y-196514342D01*
X191577200Y-196585771D01*
X191505771Y-196514342D01*
X191577200Y-196442914D01*
X191577200Y-196585771D01*
X194577200Y-196585771D02*
X194577200Y-195085771D01*
X194720057Y-196014342D02*
X195148628Y-196585771D01*
X195148628Y-195585771D02*
X194577200Y-196157200D01*
X195791485Y-196585771D02*
X195791485Y-195585771D01*
X195791485Y-195085771D02*
X195720057Y-195157200D01*
X195791485Y-195228628D01*
X195862914Y-195157200D01*
X195791485Y-195085771D01*
X195791485Y-195228628D01*
X197148628Y-196514342D02*
X197005771Y-196585771D01*
X196720057Y-196585771D01*
X196577200Y-196514342D01*
X196505771Y-196442914D01*
X196434342Y-196300057D01*
X196434342Y-195871485D01*
X196505771Y-195728628D01*
X196577200Y-195657200D01*
X196720057Y-195585771D01*
X197005771Y-195585771D01*
X197148628Y-195657200D01*
X198434342Y-196585771D02*
X198434342Y-195800057D01*
X198362914Y-195657200D01*
X198220057Y-195585771D01*
X197934342Y-195585771D01*
X197791485Y-195657200D01*
X198434342Y-196514342D02*
X198291485Y-196585771D01*
X197934342Y-196585771D01*
X197791485Y-196514342D01*
X197720057Y-196371485D01*
X197720057Y-196228628D01*
X197791485Y-196085771D01*
X197934342Y-196014342D01*
X198291485Y-196014342D01*
X198434342Y-195942914D01*
X199791485Y-196585771D02*
X199791485Y-195085771D01*
X199791485Y-196514342D02*
X199648628Y-196585771D01*
X199362914Y-196585771D01*
X199220057Y-196514342D01*
X199148628Y-196442914D01*
X199077200Y-196300057D01*
X199077200Y-195871485D01*
X199148628Y-195728628D01*
X199220057Y-195657200D01*
X199362914Y-195585771D01*
X199648628Y-195585771D01*
X199791485Y-195657200D01*
X202077200Y-197157200D02*
X202005771Y-197085771D01*
X201862914Y-196871485D01*
X201791485Y-196728628D01*
X201720057Y-196514342D01*
X201648628Y-196157200D01*
X201648628Y-195871485D01*
X201720057Y-195514342D01*
X201791485Y-195300057D01*
X201862914Y-195157200D01*
X202005771Y-194942914D01*
X202077200Y-194871485D01*
X203291485Y-195085771D02*
X203005771Y-195085771D01*
X202862914Y-195157200D01*
X202791485Y-195228628D01*
X202648628Y-195442914D01*
X202577200Y-195728628D01*
X202577200Y-196300057D01*
X202648628Y-196442914D01*
X202720057Y-196514342D01*
X202862914Y-196585771D01*
X203148628Y-196585771D01*
X203291485Y-196514342D01*
X203362914Y-196442914D01*
X203434342Y-196300057D01*
X203434342Y-195942914D01*
X203362914Y-195800057D01*
X203291485Y-195728628D01*
X203148628Y-195657200D01*
X202862914Y-195657200D01*
X202720057Y-195728628D01*
X202648628Y-195800057D01*
X202577200Y-195942914D01*
X204077200Y-196442914D02*
X204148628Y-196514342D01*
X204077200Y-196585771D01*
X204005771Y-196514342D01*
X204077200Y-196442914D01*
X204077200Y-196585771D01*
X205077200Y-195085771D02*
X205220057Y-195085771D01*
X205362914Y-195157200D01*
X205434342Y-195228628D01*
X205505771Y-195371485D01*
X205577200Y-195657200D01*
X205577200Y-196014342D01*
X205505771Y-196300057D01*
X205434342Y-196442914D01*
X205362914Y-196514342D01*
X205220057Y-196585771D01*
X205077200Y-196585771D01*
X204934342Y-196514342D01*
X204862914Y-196442914D01*
X204791485Y-196300057D01*
X204720057Y-196014342D01*
X204720057Y-195657200D01*
X204791485Y-195371485D01*
X204862914Y-195228628D01*
X204934342Y-195157200D01*
X205077200Y-195085771D01*
X206220057Y-196442914D02*
X206291485Y-196514342D01*
X206220057Y-196585771D01*
X206148628Y-196514342D01*
X206220057Y-196442914D01*
X206220057Y-196585771D01*
X207148628Y-195728628D02*
X207005771Y-195657200D01*
X206934342Y-195585771D01*
X206862914Y-195442914D01*
X206862914Y-195371485D01*
X206934342Y-195228628D01*
X207005771Y-195157200D01*
X207148628Y-195085771D01*
X207434342Y-195085771D01*
X207577200Y-195157200D01*
X207648628Y-195228628D01*
X207720057Y-195371485D01*
X207720057Y-195442914D01*
X207648628Y-195585771D01*
X207577200Y-195657200D01*
X207434342Y-195728628D01*
X207148628Y-195728628D01*
X207005771Y-195800057D01*
X206934342Y-195871485D01*
X206862914Y-196014342D01*
X206862914Y-196300057D01*
X206934342Y-196442914D01*
X207005771Y-196514342D01*
X207148628Y-196585771D01*
X207434342Y-196585771D01*
X207577200Y-196514342D01*
X207648628Y-196442914D01*
X207720057Y-196300057D01*
X207720057Y-196014342D01*
X207648628Y-195871485D01*
X207577200Y-195800057D01*
X207434342Y-195728628D01*
X208220057Y-197157200D02*
X208291485Y-197085771D01*
X208434342Y-196871485D01*
X208505771Y-196728628D01*
X208577200Y-196514342D01*
X208648628Y-196157200D01*
X208648628Y-195871485D01*
X208577200Y-195514342D01*
X208505771Y-195300057D01*
X208434342Y-195157200D01*
X208291485Y-194942914D01*
X208220057Y-194871485D01*
D10*
D11*
X177002200Y-191507200D02*
X285002200Y-191507200D01*
D10*
D12*
X264411485Y-193785771D02*
X263911485Y-193071485D01*
X263554342Y-193785771D02*
X263554342Y-192285771D01*
X264125771Y-192285771D01*
X264268628Y-192357200D01*
X264340057Y-192428628D01*
X264411485Y-192571485D01*
X264411485Y-192785771D01*
X264340057Y-192928628D01*
X264268628Y-193000057D01*
X264125771Y-193071485D01*
X263554342Y-193071485D01*
X265625771Y-193714342D02*
X265482914Y-193785771D01*
X265197200Y-193785771D01*
X265054342Y-193714342D01*
X264982914Y-193571485D01*
X264982914Y-193000057D01*
X265054342Y-192857200D01*
X265197200Y-192785771D01*
X265482914Y-192785771D01*
X265625771Y-192857200D01*
X265697200Y-193000057D01*
X265697200Y-193142914D01*
X264982914Y-193285771D01*
X266197200Y-192785771D02*
X266554342Y-193785771D01*
X266911485Y-192785771D01*
X267482914Y-193642914D02*
X267554342Y-193714342D01*
X267482914Y-193785771D01*
X267411485Y-193714342D01*
X267482914Y-193642914D01*
X267482914Y-193785771D01*
X267482914Y-192857200D02*
X267554342Y-192928628D01*
X267482914Y-193000057D01*
X267411485Y-192928628D01*
X267482914Y-192857200D01*
X267482914Y-193000057D01*
D10*
D11*
X178362914Y-193714342D02*
X178577200Y-193785771D01*
X178934342Y-193785771D01*
X179077200Y-193714342D01*
X179148628Y-193642914D01*
X179220057Y-193500057D01*
X179220057Y-193357200D01*
X179148628Y-193214342D01*
X179077200Y-193142914D01*
X178934342Y-193071485D01*
X178648628Y-193000057D01*
X178505771Y-192928628D01*
X178434342Y-192857200D01*
X178362914Y-192714342D01*
X178362914Y-192571485D01*
X178434342Y-192428628D01*
X178505771Y-192357200D01*
X178648628Y-192285771D01*
X179005771Y-192285771D01*
X179220057Y-192357200D01*
X179862914Y-193785771D02*
X179862914Y-192785771D01*
X179862914Y-192285771D02*
X179791485Y-192357200D01*
X179862914Y-192428628D01*
X179934342Y-192357200D01*
X179862914Y-192285771D01*
X179862914Y-192428628D01*
X180434342Y-192785771D02*
X181220057Y-192785771D01*
X180434342Y-193785771D01*
X181220057Y-193785771D01*
X182362914Y-193714342D02*
X182220057Y-193785771D01*
X181934342Y-193785771D01*
X181791485Y-193714342D01*
X181720057Y-193571485D01*
X181720057Y-193000057D01*
X181791485Y-192857200D01*
X181934342Y-192785771D01*
X182220057Y-192785771D01*
X182362914Y-192857200D01*
X182434342Y-193000057D01*
X182434342Y-193142914D01*
X181720057Y-193285771D01*
X183077200Y-193642914D02*
X183148628Y-193714342D01*
X183077200Y-193785771D01*
X183005771Y-193714342D01*
X183077200Y-193642914D01*
X183077200Y-193785771D01*
X183077200Y-192857200D02*
X183148628Y-192928628D01*
X183077200Y-193000057D01*
X183005771Y-192928628D01*
X183077200Y-192857200D01*
X183077200Y-193000057D01*
X184862914Y-193357200D02*
X185577200Y-193357200D01*
X184720057Y-193785771D02*
X185220057Y-192285771D01*
X185720057Y-193785771D01*
X186862914Y-192785771D02*
X186862914Y-193785771D01*
X186505771Y-192214342D02*
X186148628Y-193285771D01*
X187077200Y-193285771D01*
D10*
D11*
X263434342Y-196585771D02*
X263434342Y-195085771D01*
X264791485Y-196585771D02*
X264791485Y-195085771D01*
X264791485Y-196514342D02*
X264648628Y-196585771D01*
X264362914Y-196585771D01*
X264220057Y-196514342D01*
X264148628Y-196442914D01*
X264077200Y-196300057D01*
X264077200Y-195871485D01*
X264148628Y-195728628D01*
X264220057Y-195657200D01*
X264362914Y-195585771D01*
X264648628Y-195585771D01*
X264791485Y-195657200D01*
X265505771Y-196442914D02*
X265577200Y-196514342D01*
X265505771Y-196585771D01*
X265434342Y-196514342D01*
X265505771Y-196442914D01*
X265505771Y-196585771D01*
X265505771Y-195657200D02*
X265577200Y-195728628D01*
X265505771Y-195800057D01*
X265434342Y-195728628D01*
X265505771Y-195657200D01*
X265505771Y-195800057D01*
X268148628Y-196585771D02*
X267291485Y-196585771D01*
X267720057Y-196585771D02*
X267720057Y-195085771D01*
X267577200Y-195300057D01*
X267434342Y-195442914D01*
X267291485Y-195514342D01*
X269862914Y-195014342D02*
X268577200Y-196942914D01*
X271148628Y-196585771D02*
X270291485Y-196585771D01*
X270720057Y-196585771D02*
X270720057Y-195085771D01*
X270577200Y-195300057D01*
X270434342Y-195442914D01*
X270291485Y-195514342D01*
D10*
D11*
X177002200Y-187507200D02*
X285002200Y-187507200D01*
D10*
D13*
X178714580Y-188211961D02*
X179857438Y-188211961D01*
X179036009Y-190211961D02*
X179286009Y-188211961D01*
X180274104Y-190211961D02*
X180440771Y-188878628D01*
X180524104Y-188211961D02*
X180416961Y-188307200D01*
X180500295Y-188402438D01*
X180607438Y-188307200D01*
X180524104Y-188211961D01*
X180500295Y-188402438D01*
X181107438Y-188878628D02*
X181869342Y-188878628D01*
X181476485Y-188211961D02*
X181262200Y-189926247D01*
X181333628Y-190116723D01*
X181512200Y-190211961D01*
X181702676Y-190211961D01*
X182655057Y-190211961D02*
X182476485Y-190116723D01*
X182405057Y-189926247D01*
X182619342Y-188211961D01*
X184190771Y-190116723D02*
X183988390Y-190211961D01*
X183607438Y-190211961D01*
X183428866Y-190116723D01*
X183357438Y-189926247D01*
X183452676Y-189164342D01*
X183571723Y-188973866D01*
X183774104Y-188878628D01*
X184155057Y-188878628D01*
X184333628Y-188973866D01*
X184405057Y-189164342D01*
X184381247Y-189354819D01*
X183405057Y-189545295D01*
X185155057Y-190021485D02*
X185238390Y-190116723D01*
X185131247Y-190211961D01*
X185047914Y-190116723D01*
X185155057Y-190021485D01*
X185131247Y-190211961D01*
X185286009Y-188973866D02*
X185369342Y-189069104D01*
X185262200Y-189164342D01*
X185178866Y-189069104D01*
X185286009Y-188973866D01*
X185262200Y-189164342D01*
D10*
D11*
X178934342Y-185600057D02*
X178434342Y-185600057D01*
X178434342Y-186385771D02*
X178434342Y-184885771D01*
X179148628Y-184885771D01*
X179720057Y-186385771D02*
X179720057Y-185385771D01*
X179720057Y-184885771D02*
X179648628Y-184957200D01*
X179720057Y-185028628D01*
X179791485Y-184957200D01*
X179720057Y-184885771D01*
X179720057Y-185028628D01*
X180648628Y-186385771D02*
X180505771Y-186314342D01*
X180434342Y-186171485D01*
X180434342Y-184885771D01*
X181791485Y-186314342D02*
X181648628Y-186385771D01*
X181362914Y-186385771D01*
X181220057Y-186314342D01*
X181148628Y-186171485D01*
X181148628Y-185600057D01*
X181220057Y-185457200D01*
X181362914Y-185385771D01*
X181648628Y-185385771D01*
X181791485Y-185457200D01*
X181862914Y-185600057D01*
X181862914Y-185742914D01*
X181148628Y-185885771D01*
X182505771Y-186242914D02*
X182577200Y-186314342D01*
X182505771Y-186385771D01*
X182434342Y-186314342D01*
X182505771Y-186242914D01*
X182505771Y-186385771D01*
X182505771Y-185457200D02*
X182577200Y-185528628D01*
X182505771Y-185600057D01*
X182434342Y-185528628D01*
X182505771Y-185457200D01*
X182505771Y-185600057D01*
X184291485Y-186314342D02*
X184505771Y-186385771D01*
X184862914Y-186385771D01*
X185005771Y-186314342D01*
X185077200Y-186242914D01*
X185148628Y-186100057D01*
X185148628Y-185957200D01*
X185077200Y-185814342D01*
X185005771Y-185742914D01*
X184862914Y-185671485D01*
X184577200Y-185600057D01*
X184434342Y-185528628D01*
X184362914Y-185457200D01*
X184291485Y-185314342D01*
X184291485Y-185171485D01*
X184362914Y-185028628D01*
X184434342Y-184957200D01*
X184577200Y-184885771D01*
X184934342Y-184885771D01*
X185148628Y-184957200D01*
X185577200Y-184885771D02*
X186434342Y-184885771D01*
X186005771Y-186385771D02*
X186005771Y-184885771D01*
X186934342Y-186385771D02*
X186934342Y-184885771D01*
X187434342Y-185957200D01*
X187934342Y-184885771D01*
X187934342Y-186385771D01*
X188505771Y-184885771D02*
X189434342Y-184885771D01*
X188934342Y-185457200D01*
X189148628Y-185457200D01*
X189291485Y-185528628D01*
X189362914Y-185600057D01*
X189434342Y-185742914D01*
X189434342Y-186100057D01*
X189362914Y-186242914D01*
X189291485Y-186314342D01*
X189148628Y-186385771D01*
X188720057Y-186385771D01*
X188577200Y-186314342D01*
X188505771Y-186242914D01*
X190005771Y-185028628D02*
X190077200Y-184957200D01*
X190220057Y-184885771D01*
X190577200Y-184885771D01*
X190720057Y-184957200D01*
X190791485Y-185028628D01*
X190862914Y-185171485D01*
X190862914Y-185314342D01*
X190791485Y-185528628D01*
X189934342Y-186385771D01*
X190862914Y-186385771D01*
X192362914Y-186385771D02*
X191862914Y-185671485D01*
X191505771Y-186385771D02*
X191505771Y-184885771D01*
X192077200Y-184885771D01*
X192220057Y-184957200D01*
X192291485Y-185028628D01*
X192362914Y-185171485D01*
X192362914Y-185385771D01*
X192291485Y-185528628D01*
X192220057Y-185600057D01*
X192077200Y-185671485D01*
X191505771Y-185671485D01*
X193505771Y-185600057D02*
X193005771Y-185600057D01*
X193005771Y-186385771D02*
X193005771Y-184885771D01*
X193720057Y-184885771D01*
X194791485Y-185600057D02*
X195005771Y-185671485D01*
X195077200Y-185742914D01*
X195148628Y-185885771D01*
X195148628Y-186100057D01*
X195077200Y-186242914D01*
X195005771Y-186314342D01*
X194862914Y-186385771D01*
X194291485Y-186385771D01*
X194291485Y-184885771D01*
X194791485Y-184885771D01*
X194934342Y-184957200D01*
X195005771Y-185028628D01*
X195077200Y-185171485D01*
X195077200Y-185314342D01*
X195005771Y-185457200D01*
X194934342Y-185528628D01*
X194791485Y-185600057D01*
X194291485Y-185600057D01*
X196005771Y-186385771D02*
X195862914Y-186314342D01*
X195791485Y-186242914D01*
X195720057Y-186100057D01*
X195720057Y-185671485D01*
X195791485Y-185528628D01*
X195862914Y-185457200D01*
X196005771Y-185385771D01*
X196220057Y-185385771D01*
X196362914Y-185457200D01*
X196434342Y-185528628D01*
X196505771Y-185671485D01*
X196505771Y-186100057D01*
X196434342Y-186242914D01*
X196362914Y-186314342D01*
X196220057Y-186385771D01*
X196005771Y-186385771D01*
X197791485Y-186385771D02*
X197791485Y-185600057D01*
X197720057Y-185457200D01*
X197577200Y-185385771D01*
X197291485Y-185385771D01*
X197148628Y-185457200D01*
X197791485Y-186314342D02*
X197648628Y-186385771D01*
X197291485Y-186385771D01*
X197148628Y-186314342D01*
X197077200Y-186171485D01*
X197077200Y-186028628D01*
X197148628Y-185885771D01*
X197291485Y-185814342D01*
X197648628Y-185814342D01*
X197791485Y-185742914D01*
X198505771Y-186385771D02*
X198505771Y-185385771D01*
X198505771Y-185671485D02*
X198577200Y-185528628D01*
X198648628Y-185457200D01*
X198791485Y-185385771D01*
X198934342Y-185385771D01*
X200077200Y-186385771D02*
X200077200Y-184885771D01*
X200077200Y-186314342D02*
X199934342Y-186385771D01*
X199648628Y-186385771D01*
X199505771Y-186314342D01*
X199434342Y-186242914D01*
X199362914Y-186100057D01*
X199362914Y-185671485D01*
X199434342Y-185528628D01*
X199505771Y-185457200D01*
X199648628Y-185385771D01*
X199934342Y-185385771D01*
X200077200Y-185457200D01*
X200791485Y-186385771D02*
X200791485Y-184885771D01*
X201362914Y-184885771D01*
X201505771Y-184957200D01*
X201577200Y-185028628D01*
X201648628Y-185171485D01*
X201648628Y-185385771D01*
X201577200Y-185528628D01*
X201505771Y-185600057D01*
X201362914Y-185671485D01*
X200791485Y-185671485D01*
X202291485Y-186385771D02*
X202291485Y-184885771D01*
X202934342Y-186385771D02*
X202934342Y-185600057D01*
X202862914Y-185457200D01*
X202720057Y-185385771D01*
X202505771Y-185385771D01*
X202362914Y-185457200D01*
X202291485Y-185528628D01*
X203648628Y-186385771D02*
X203648628Y-185385771D01*
X203648628Y-184885771D02*
X203577200Y-184957200D01*
X203648628Y-185028628D01*
X203720057Y-184957200D01*
X203648628Y-184885771D01*
X203648628Y-185028628D01*
X204577200Y-186385771D02*
X204434342Y-186314342D01*
X204362914Y-186171485D01*
X204362914Y-184885771D01*
X205148628Y-186242914D02*
X205220057Y-186314342D01*
X205148628Y-186385771D01*
X205077200Y-186314342D01*
X205148628Y-186242914D01*
X205148628Y-186385771D01*
X205862914Y-186385771D02*
X205862914Y-184885771D01*
X206005771Y-185814342D02*
X206434342Y-186385771D01*
X206434342Y-185385771D02*
X205862914Y-185957200D01*
X207077200Y-186385771D02*
X207077200Y-185385771D01*
X207077200Y-184885771D02*
X207005771Y-184957200D01*
X207077200Y-185028628D01*
X207148628Y-184957200D01*
X207077200Y-184885771D01*
X207077200Y-185028628D01*
X208434342Y-186314342D02*
X208291485Y-186385771D01*
X208005771Y-186385771D01*
X207862914Y-186314342D01*
X207791485Y-186242914D01*
X207720057Y-186100057D01*
X207720057Y-185671485D01*
X207791485Y-185528628D01*
X207862914Y-185457200D01*
X208005771Y-185385771D01*
X208291485Y-185385771D01*
X208434342Y-185457200D01*
X209720057Y-186385771D02*
X209720057Y-185600057D01*
X209648628Y-185457200D01*
X209505771Y-185385771D01*
X209220057Y-185385771D01*
X209077200Y-185457200D01*
X209720057Y-186314342D02*
X209577200Y-186385771D01*
X209220057Y-186385771D01*
X209077200Y-186314342D01*
X209005771Y-186171485D01*
X209005771Y-186028628D01*
X209077200Y-185885771D01*
X209220057Y-185814342D01*
X209577200Y-185814342D01*
X209720057Y-185742914D01*
X211077200Y-186385771D02*
X211077200Y-184885771D01*
X211077200Y-186314342D02*
X210934342Y-186385771D01*
X210648628Y-186385771D01*
X210505771Y-186314342D01*
X210434342Y-186242914D01*
X210362914Y-186100057D01*
X210362914Y-185671485D01*
X210434342Y-185528628D01*
X210505771Y-185457200D01*
X210648628Y-185385771D01*
X210934342Y-185385771D01*
X211077200Y-185457200D01*
X211434342Y-186528628D02*
X212577200Y-186528628D01*
X212934342Y-185385771D02*
X212934342Y-186885771D01*
X212934342Y-185457200D02*
X213077200Y-185385771D01*
X213362914Y-185385771D01*
X213505771Y-185457200D01*
X213577200Y-185528628D01*
X213648628Y-185671485D01*
X213648628Y-186100057D01*
X213577200Y-186242914D01*
X213505771Y-186314342D01*
X213362914Y-186385771D01*
X213077200Y-186385771D01*
X212934342Y-186314342D01*
X214934342Y-186314342D02*
X214791485Y-186385771D01*
X214505771Y-186385771D01*
X214362914Y-186314342D01*
X214291485Y-186242914D01*
X214220057Y-186100057D01*
X214220057Y-185671485D01*
X214291485Y-185528628D01*
X214362914Y-185457200D01*
X214505771Y-185385771D01*
X214791485Y-185385771D01*
X214934342Y-185457200D01*
X215577200Y-186385771D02*
X215577200Y-184885771D01*
X215577200Y-185457200D02*
X215720057Y-185385771D01*
X216005771Y-185385771D01*
X216148628Y-185457200D01*
X216220057Y-185528628D01*
X216291485Y-185671485D01*
X216291485Y-186100057D01*
X216220057Y-186242914D01*
X216148628Y-186314342D01*
X216005771Y-186385771D01*
X215720057Y-186385771D01*
X215577200Y-186314342D01*
D10*
D11*
X177002200Y-181507200D02*
X285002200Y-181507200D01*
D10*
D11*
X178362914Y-183614342D02*
X178577200Y-183685771D01*
X178934342Y-183685771D01*
X179077200Y-183614342D01*
X179148628Y-183542914D01*
X179220057Y-183400057D01*
X179220057Y-183257200D01*
X179148628Y-183114342D01*
X179077200Y-183042914D01*
X178934342Y-182971485D01*
X178648628Y-182900057D01*
X178505771Y-182828628D01*
X178434342Y-182757200D01*
X178362914Y-182614342D01*
X178362914Y-182471485D01*
X178434342Y-182328628D01*
X178505771Y-182257200D01*
X178648628Y-182185771D01*
X179005771Y-182185771D01*
X179220057Y-182257200D01*
X179862914Y-183685771D02*
X179862914Y-182185771D01*
X180505771Y-183685771D02*
X180505771Y-182900057D01*
X180434342Y-182757200D01*
X180291485Y-182685771D01*
X180077200Y-182685771D01*
X179934342Y-182757200D01*
X179862914Y-182828628D01*
X181791485Y-183614342D02*
X181648628Y-183685771D01*
X181362914Y-183685771D01*
X181220057Y-183614342D01*
X181148628Y-183471485D01*
X181148628Y-182900057D01*
X181220057Y-182757200D01*
X181362914Y-182685771D01*
X181648628Y-182685771D01*
X181791485Y-182757200D01*
X181862914Y-182900057D01*
X181862914Y-183042914D01*
X181148628Y-183185771D01*
X183077200Y-183614342D02*
X182934342Y-183685771D01*
X182648628Y-183685771D01*
X182505771Y-183614342D01*
X182434342Y-183471485D01*
X182434342Y-182900057D01*
X182505771Y-182757200D01*
X182648628Y-182685771D01*
X182934342Y-182685771D01*
X183077200Y-182757200D01*
X183148628Y-182900057D01*
X183148628Y-183042914D01*
X182434342Y-183185771D01*
X183577200Y-182685771D02*
X184148628Y-182685771D01*
X183791485Y-182185771D02*
X183791485Y-183471485D01*
X183862914Y-183614342D01*
X184005771Y-183685771D01*
X184148628Y-183685771D01*
X184648628Y-183542914D02*
X184720057Y-183614342D01*
X184648628Y-183685771D01*
X184577200Y-183614342D01*
X184648628Y-183542914D01*
X184648628Y-183685771D01*
X184648628Y-182757200D02*
X184720057Y-182828628D01*
X184648628Y-182900057D01*
X184577200Y-182828628D01*
X184648628Y-182757200D01*
X184648628Y-182900057D01*
D10*
D12*
D10*
D11*
D10*
D11*
D10*
D11*
D10*
D11*
D10*
D11*
X197002200Y-191507200D02*
X197002200Y-194507200D01*
D10*
D11*
X261002200Y-191507200D02*
X261002200Y-198007200D01*
D14*
%TO.C,C4*%
X148997066Y-109005171D02*
X148973257Y-109028980D01*
X148901828Y-109052790D01*
X148854209Y-109052790D01*
X148782780Y-109028980D01*
X148735161Y-108981361D01*
X148711352Y-108933742D01*
X148687542Y-108838504D01*
X148687542Y-108767076D01*
X148711352Y-108671838D01*
X148735161Y-108624219D01*
X148782780Y-108576600D01*
X148854209Y-108552790D01*
X148901828Y-108552790D01*
X148973257Y-108576600D01*
X148997066Y-108600409D01*
X149425638Y-108719457D02*
X149425638Y-109052790D01*
X149306590Y-108528980D02*
X149187542Y-108886123D01*
X149497066Y-108886123D01*
%TO.C,C13*%
X166883171Y-110387408D02*
X166906980Y-110411218D01*
X166930790Y-110482646D01*
X166930790Y-110530265D01*
X166906980Y-110601694D01*
X166859361Y-110649313D01*
X166811742Y-110673122D01*
X166716504Y-110696932D01*
X166645076Y-110696932D01*
X166549838Y-110673122D01*
X166502219Y-110649313D01*
X166454600Y-110601694D01*
X166430790Y-110530265D01*
X166430790Y-110482646D01*
X166454600Y-110411218D01*
X166478409Y-110387408D01*
X166930790Y-109911218D02*
X166930790Y-110196932D01*
X166930790Y-110054075D02*
X166430790Y-110054075D01*
X166502219Y-110101694D01*
X166549838Y-110149313D01*
X166573647Y-110196932D01*
X166430790Y-109744551D02*
X166430790Y-109435027D01*
X166621266Y-109601694D01*
X166621266Y-109530265D01*
X166645076Y-109482646D01*
X166668885Y-109458837D01*
X166716504Y-109435027D01*
X166835552Y-109435027D01*
X166883171Y-109458837D01*
X166906980Y-109482646D01*
X166930790Y-109530265D01*
X166930790Y-109673122D01*
X166906980Y-109720741D01*
X166883171Y-109744551D01*
%TO.C,R2*%
X174226190Y-116293333D02*
X173988095Y-116460000D01*
X174226190Y-116579047D02*
X173726190Y-116579047D01*
X173726190Y-116388571D01*
X173750000Y-116340952D01*
X173773809Y-116317142D01*
X173821428Y-116293333D01*
X173892857Y-116293333D01*
X173940476Y-116317142D01*
X173964285Y-116340952D01*
X173988095Y-116388571D01*
X173988095Y-116579047D01*
X173773809Y-116102857D02*
X173750000Y-116079047D01*
X173726190Y-116031428D01*
X173726190Y-115912380D01*
X173750000Y-115864761D01*
X173773809Y-115840952D01*
X173821428Y-115817142D01*
X173869047Y-115817142D01*
X173940476Y-115840952D01*
X174226190Y-116126666D01*
X174226190Y-115817142D01*
%TO.C,C7*%
X144805866Y-114028371D02*
X144782057Y-114052180D01*
X144710628Y-114075990D01*
X144663009Y-114075990D01*
X144591580Y-114052180D01*
X144543961Y-114004561D01*
X144520152Y-113956942D01*
X144496342Y-113861704D01*
X144496342Y-113790276D01*
X144520152Y-113695038D01*
X144543961Y-113647419D01*
X144591580Y-113599800D01*
X144663009Y-113575990D01*
X144710628Y-113575990D01*
X144782057Y-113599800D01*
X144805866Y-113623609D01*
X144972533Y-113575990D02*
X145305866Y-113575990D01*
X145091580Y-114075990D01*
%TO.C,R3*%
X170171266Y-111401590D02*
X170004600Y-111163495D01*
X169885552Y-111401590D02*
X169885552Y-110901590D01*
X170076028Y-110901590D01*
X170123647Y-110925400D01*
X170147457Y-110949209D01*
X170171266Y-110996828D01*
X170171266Y-111068257D01*
X170147457Y-111115876D01*
X170123647Y-111139685D01*
X170076028Y-111163495D01*
X169885552Y-111163495D01*
X170337933Y-110901590D02*
X170647457Y-110901590D01*
X170480790Y-111092066D01*
X170552219Y-111092066D01*
X170599838Y-111115876D01*
X170623647Y-111139685D01*
X170647457Y-111187304D01*
X170647457Y-111306352D01*
X170623647Y-111353971D01*
X170599838Y-111377780D01*
X170552219Y-111401590D01*
X170409361Y-111401590D01*
X170361742Y-111377780D01*
X170337933Y-111353971D01*
%TO.C,C10*%
X146978571Y-109921428D02*
X147002380Y-109945238D01*
X147026190Y-110016666D01*
X147026190Y-110064285D01*
X147002380Y-110135714D01*
X146954761Y-110183333D01*
X146907142Y-110207142D01*
X146811904Y-110230952D01*
X146740476Y-110230952D01*
X146645238Y-110207142D01*
X146597619Y-110183333D01*
X146550000Y-110135714D01*
X146526190Y-110064285D01*
X146526190Y-110016666D01*
X146550000Y-109945238D01*
X146573809Y-109921428D01*
X147026190Y-109445238D02*
X147026190Y-109730952D01*
X147026190Y-109588095D02*
X146526190Y-109588095D01*
X146597619Y-109635714D01*
X146645238Y-109683333D01*
X146669047Y-109730952D01*
X146526190Y-109135714D02*
X146526190Y-109088095D01*
X146550000Y-109040476D01*
X146573809Y-109016666D01*
X146621428Y-108992857D01*
X146716666Y-108969047D01*
X146835714Y-108969047D01*
X146930952Y-108992857D01*
X146978571Y-109016666D01*
X147002380Y-109040476D01*
X147026190Y-109088095D01*
X147026190Y-109135714D01*
X147002380Y-109183333D01*
X146978571Y-109207142D01*
X146930952Y-109230952D01*
X146835714Y-109254761D01*
X146716666Y-109254761D01*
X146621428Y-109230952D01*
X146573809Y-109207142D01*
X146550000Y-109183333D01*
X146526190Y-109135714D01*
%TO.C,C12*%
X175500371Y-111049971D02*
X175476561Y-111073780D01*
X175405133Y-111097590D01*
X175357514Y-111097590D01*
X175286085Y-111073780D01*
X175238466Y-111026161D01*
X175214657Y-110978542D01*
X175190847Y-110883304D01*
X175190847Y-110811876D01*
X175214657Y-110716638D01*
X175238466Y-110669019D01*
X175286085Y-110621400D01*
X175357514Y-110597590D01*
X175405133Y-110597590D01*
X175476561Y-110621400D01*
X175500371Y-110645209D01*
X175976561Y-111097590D02*
X175690847Y-111097590D01*
X175833704Y-111097590D02*
X175833704Y-110597590D01*
X175786085Y-110669019D01*
X175738466Y-110716638D01*
X175690847Y-110740447D01*
X176167038Y-110645209D02*
X176190847Y-110621400D01*
X176238466Y-110597590D01*
X176357514Y-110597590D01*
X176405133Y-110621400D01*
X176428942Y-110645209D01*
X176452752Y-110692828D01*
X176452752Y-110740447D01*
X176428942Y-110811876D01*
X176143228Y-111097590D01*
X176452752Y-111097590D01*
%TO.C,C2*%
X162229771Y-108164733D02*
X162253580Y-108188542D01*
X162277390Y-108259971D01*
X162277390Y-108307590D01*
X162253580Y-108379019D01*
X162205961Y-108426638D01*
X162158342Y-108450447D01*
X162063104Y-108474257D01*
X161991676Y-108474257D01*
X161896438Y-108450447D01*
X161848819Y-108426638D01*
X161801200Y-108379019D01*
X161777390Y-108307590D01*
X161777390Y-108259971D01*
X161801200Y-108188542D01*
X161825009Y-108164733D01*
X161825009Y-107974257D02*
X161801200Y-107950447D01*
X161777390Y-107902828D01*
X161777390Y-107783780D01*
X161801200Y-107736161D01*
X161825009Y-107712352D01*
X161872628Y-107688542D01*
X161920247Y-107688542D01*
X161991676Y-107712352D01*
X162277390Y-107998066D01*
X162277390Y-107688542D01*
D11*
%TO.C,J5*%
X140418180Y-130746733D02*
X141132466Y-130746733D01*
X141275323Y-130794352D01*
X141370561Y-130889590D01*
X141418180Y-131032447D01*
X141418180Y-131127685D01*
X140418180Y-129794352D02*
X140418180Y-130270542D01*
X140894371Y-130318161D01*
X140846752Y-130270542D01*
X140799133Y-130175304D01*
X140799133Y-129937209D01*
X140846752Y-129841971D01*
X140894371Y-129794352D01*
X140989609Y-129746733D01*
X141227704Y-129746733D01*
X141322942Y-129794352D01*
X141370561Y-129841971D01*
X141418180Y-129937209D01*
X141418180Y-130175304D01*
X141370561Y-130270542D01*
X141322942Y-130318161D01*
%TO.C,U1*%
X154363495Y-104426980D02*
X154363495Y-105236504D01*
X154411114Y-105331742D01*
X154458733Y-105379361D01*
X154553971Y-105426980D01*
X154744447Y-105426980D01*
X154839685Y-105379361D01*
X154887304Y-105331742D01*
X154934923Y-105236504D01*
X154934923Y-104426980D01*
X155934923Y-105426980D02*
X155363495Y-105426980D01*
X155649209Y-105426980D02*
X155649209Y-104426980D01*
X155553971Y-104569838D01*
X155458733Y-104665076D01*
X155363495Y-104712695D01*
D14*
%TO.C,C8*%
X144831266Y-115603171D02*
X144807457Y-115626980D01*
X144736028Y-115650790D01*
X144688409Y-115650790D01*
X144616980Y-115626980D01*
X144569361Y-115579361D01*
X144545552Y-115531742D01*
X144521742Y-115436504D01*
X144521742Y-115365076D01*
X144545552Y-115269838D01*
X144569361Y-115222219D01*
X144616980Y-115174600D01*
X144688409Y-115150790D01*
X144736028Y-115150790D01*
X144807457Y-115174600D01*
X144831266Y-115198409D01*
X145116980Y-115365076D02*
X145069361Y-115341266D01*
X145045552Y-115317457D01*
X145021742Y-115269838D01*
X145021742Y-115246028D01*
X145045552Y-115198409D01*
X145069361Y-115174600D01*
X145116980Y-115150790D01*
X145212219Y-115150790D01*
X145259838Y-115174600D01*
X145283647Y-115198409D01*
X145307457Y-115246028D01*
X145307457Y-115269838D01*
X145283647Y-115317457D01*
X145259838Y-115341266D01*
X145212219Y-115365076D01*
X145116980Y-115365076D01*
X145069361Y-115388885D01*
X145045552Y-115412695D01*
X145021742Y-115460314D01*
X145021742Y-115555552D01*
X145045552Y-115603171D01*
X145069361Y-115626980D01*
X145116980Y-115650790D01*
X145212219Y-115650790D01*
X145259838Y-115626980D01*
X145283647Y-115603171D01*
X145307457Y-115555552D01*
X145307457Y-115460314D01*
X145283647Y-115412695D01*
X145259838Y-115388885D01*
X145212219Y-115365076D01*
D11*
%TO.C,J2*%
X132409266Y-101095780D02*
X132409266Y-101810066D01*
X132361647Y-101952923D01*
X132266409Y-102048161D01*
X132123552Y-102095780D01*
X132028314Y-102095780D01*
X132837838Y-101191019D02*
X132885457Y-101143400D01*
X132980695Y-101095780D01*
X133218790Y-101095780D01*
X133314028Y-101143400D01*
X133361647Y-101191019D01*
X133409266Y-101286257D01*
X133409266Y-101381495D01*
X133361647Y-101524352D01*
X132790219Y-102095780D01*
X133409266Y-102095780D01*
D14*
%TO.C,C9*%
X150616666Y-104603171D02*
X150592857Y-104626980D01*
X150521428Y-104650790D01*
X150473809Y-104650790D01*
X150402380Y-104626980D01*
X150354761Y-104579361D01*
X150330952Y-104531742D01*
X150307142Y-104436504D01*
X150307142Y-104365076D01*
X150330952Y-104269838D01*
X150354761Y-104222219D01*
X150402380Y-104174600D01*
X150473809Y-104150790D01*
X150521428Y-104150790D01*
X150592857Y-104174600D01*
X150616666Y-104198409D01*
X150854761Y-104650790D02*
X150950000Y-104650790D01*
X150997619Y-104626980D01*
X151021428Y-104603171D01*
X151069047Y-104531742D01*
X151092857Y-104436504D01*
X151092857Y-104246028D01*
X151069047Y-104198409D01*
X151045238Y-104174600D01*
X150997619Y-104150790D01*
X150902380Y-104150790D01*
X150854761Y-104174600D01*
X150830952Y-104198409D01*
X150807142Y-104246028D01*
X150807142Y-104365076D01*
X150830952Y-104412695D01*
X150854761Y-104436504D01*
X150902380Y-104460314D01*
X150997619Y-104460314D01*
X151045238Y-104436504D01*
X151069047Y-104412695D01*
X151092857Y-104365076D01*
D11*
%TO.C,J1*%
X166197380Y-92153333D02*
X166911666Y-92153333D01*
X167054523Y-92200952D01*
X167149761Y-92296190D01*
X167197380Y-92439047D01*
X167197380Y-92534285D01*
X167197380Y-91153333D02*
X167197380Y-91724761D01*
X167197380Y-91439047D02*
X166197380Y-91439047D01*
X166340238Y-91534285D01*
X166435476Y-91629523D01*
X166483095Y-91724761D01*
%TO.C,SW1*%
X134012066Y-89819361D02*
X134154923Y-89866980D01*
X134393019Y-89866980D01*
X134488257Y-89819361D01*
X134535876Y-89771742D01*
X134583495Y-89676504D01*
X134583495Y-89581266D01*
X134535876Y-89486028D01*
X134488257Y-89438409D01*
X134393019Y-89390790D01*
X134202542Y-89343171D01*
X134107304Y-89295552D01*
X134059685Y-89247933D01*
X134012066Y-89152695D01*
X134012066Y-89057457D01*
X134059685Y-88962219D01*
X134107304Y-88914600D01*
X134202542Y-88866980D01*
X134440638Y-88866980D01*
X134583495Y-88914600D01*
X134916828Y-88866980D02*
X135154923Y-89866980D01*
X135345400Y-89152695D01*
X135535876Y-89866980D01*
X135773971Y-88866980D01*
X136678733Y-89866980D02*
X136107304Y-89866980D01*
X136393019Y-89866980D02*
X136393019Y-88866980D01*
X136297780Y-89009838D01*
X136202542Y-89105076D01*
X136107304Y-89152695D01*
D14*
%TO.C,D2*%
X178352752Y-108827590D02*
X178352752Y-108327590D01*
X178471800Y-108327590D01*
X178543228Y-108351400D01*
X178590847Y-108399019D01*
X178614657Y-108446638D01*
X178638466Y-108541876D01*
X178638466Y-108613304D01*
X178614657Y-108708542D01*
X178590847Y-108756161D01*
X178543228Y-108803780D01*
X178471800Y-108827590D01*
X178352752Y-108827590D01*
X178828942Y-108375209D02*
X178852752Y-108351400D01*
X178900371Y-108327590D01*
X179019419Y-108327590D01*
X179067038Y-108351400D01*
X179090847Y-108375209D01*
X179114657Y-108422828D01*
X179114657Y-108470447D01*
X179090847Y-108541876D01*
X178805133Y-108827590D01*
X179114657Y-108827590D01*
D11*
%TO.C,J7*%
X182606980Y-101333333D02*
X183321266Y-101333333D01*
X183464123Y-101380952D01*
X183559361Y-101476190D01*
X183606980Y-101619047D01*
X183606980Y-101714285D01*
X182606980Y-100952380D02*
X182606980Y-100285714D01*
X183606980Y-100714285D01*
%TO.C,J4*%
X175897380Y-117538333D02*
X176611666Y-117538333D01*
X176754523Y-117585952D01*
X176849761Y-117681190D01*
X176897380Y-117824047D01*
X176897380Y-117919285D01*
X176230714Y-116633571D02*
X176897380Y-116633571D01*
X175849761Y-116871666D02*
X176564047Y-117109761D01*
X176564047Y-116490714D01*
D14*
%TO.C,C5*%
X151659866Y-104518171D02*
X151636057Y-104541980D01*
X151564628Y-104565790D01*
X151517009Y-104565790D01*
X151445580Y-104541980D01*
X151397961Y-104494361D01*
X151374152Y-104446742D01*
X151350342Y-104351504D01*
X151350342Y-104280076D01*
X151374152Y-104184838D01*
X151397961Y-104137219D01*
X151445580Y-104089600D01*
X151517009Y-104065790D01*
X151564628Y-104065790D01*
X151636057Y-104089600D01*
X151659866Y-104113409D01*
X152112247Y-104065790D02*
X151874152Y-104065790D01*
X151850342Y-104303885D01*
X151874152Y-104280076D01*
X151921771Y-104256266D01*
X152040819Y-104256266D01*
X152088438Y-104280076D01*
X152112247Y-104303885D01*
X152136057Y-104351504D01*
X152136057Y-104470552D01*
X152112247Y-104518171D01*
X152088438Y-104541980D01*
X152040819Y-104565790D01*
X151921771Y-104565790D01*
X151874152Y-104541980D01*
X151850342Y-104518171D01*
D11*
%TO.C,J3*%
X172266666Y-121652380D02*
X172266666Y-122366666D01*
X172219047Y-122509523D01*
X172123809Y-122604761D01*
X171980952Y-122652380D01*
X171885714Y-122652380D01*
X172647619Y-121652380D02*
X173266666Y-121652380D01*
X172933333Y-122033333D01*
X173076190Y-122033333D01*
X173171428Y-122080952D01*
X173219047Y-122128571D01*
X173266666Y-122223809D01*
X173266666Y-122461904D01*
X173219047Y-122557142D01*
X173171428Y-122604761D01*
X173076190Y-122652380D01*
X172790476Y-122652380D01*
X172695238Y-122604761D01*
X172647619Y-122557142D01*
D14*
%TO.C,L1*%
X166980790Y-107508733D02*
X166980790Y-107746828D01*
X166480790Y-107746828D01*
X166980790Y-107080161D02*
X166980790Y-107365876D01*
X166980790Y-107223019D02*
X166480790Y-107223019D01*
X166552219Y-107270638D01*
X166599838Y-107318257D01*
X166623647Y-107365876D01*
%TO.C,FB1*%
X148003133Y-116608085D02*
X147836466Y-116608085D01*
X147836466Y-116869990D02*
X147836466Y-116369990D01*
X148074561Y-116369990D01*
X148431704Y-116608085D02*
X148503133Y-116631895D01*
X148526942Y-116655704D01*
X148550752Y-116703323D01*
X148550752Y-116774752D01*
X148526942Y-116822371D01*
X148503133Y-116846180D01*
X148455514Y-116869990D01*
X148265038Y-116869990D01*
X148265038Y-116369990D01*
X148431704Y-116369990D01*
X148479323Y-116393800D01*
X148503133Y-116417609D01*
X148526942Y-116465228D01*
X148526942Y-116512847D01*
X148503133Y-116560466D01*
X148479323Y-116584276D01*
X148431704Y-116608085D01*
X148265038Y-116608085D01*
X149026942Y-116869990D02*
X148741228Y-116869990D01*
X148884085Y-116869990D02*
X148884085Y-116369990D01*
X148836466Y-116441419D01*
X148788847Y-116489038D01*
X148741228Y-116512847D01*
D11*
%TO.C,R1*%
X140568733Y-96206980D02*
X140235400Y-95730790D01*
X139997304Y-96206980D02*
X139997304Y-95206980D01*
X140378257Y-95206980D01*
X140473495Y-95254600D01*
X140521114Y-95302219D01*
X140568733Y-95397457D01*
X140568733Y-95540314D01*
X140521114Y-95635552D01*
X140473495Y-95683171D01*
X140378257Y-95730790D01*
X139997304Y-95730790D01*
X141521114Y-96206980D02*
X140949685Y-96206980D01*
X141235400Y-96206980D02*
X141235400Y-95206980D01*
X141140161Y-95349838D01*
X141044923Y-95445076D01*
X140949685Y-95492695D01*
D14*
%TO.C,Y1*%
X140991095Y-110808695D02*
X141229190Y-110808695D01*
X140729190Y-110975361D02*
X140991095Y-110808695D01*
X140729190Y-110642028D01*
X141229190Y-110213457D02*
X141229190Y-110499171D01*
X141229190Y-110356314D02*
X140729190Y-110356314D01*
X140800619Y-110403933D01*
X140848238Y-110451552D01*
X140872047Y-110499171D01*
%TO.C,U2*%
X171993647Y-109301590D02*
X171993647Y-109706352D01*
X172017457Y-109753971D01*
X172041266Y-109777780D01*
X172088885Y-109801590D01*
X172184123Y-109801590D01*
X172231742Y-109777780D01*
X172255552Y-109753971D01*
X172279361Y-109706352D01*
X172279361Y-109301590D01*
X172493647Y-109349209D02*
X172517457Y-109325400D01*
X172565076Y-109301590D01*
X172684123Y-109301590D01*
X172731742Y-109325400D01*
X172755552Y-109349209D01*
X172779361Y-109396828D01*
X172779361Y-109444447D01*
X172755552Y-109515876D01*
X172469838Y-109801590D01*
X172779361Y-109801590D01*
%TO.C,D1*%
X178352352Y-111623790D02*
X178352352Y-111123790D01*
X178471400Y-111123790D01*
X178542828Y-111147600D01*
X178590447Y-111195219D01*
X178614257Y-111242838D01*
X178638066Y-111338076D01*
X178638066Y-111409504D01*
X178614257Y-111504742D01*
X178590447Y-111552361D01*
X178542828Y-111599980D01*
X178471400Y-111623790D01*
X178352352Y-111623790D01*
X179114257Y-111623790D02*
X178828542Y-111623790D01*
X178971400Y-111623790D02*
X178971400Y-111123790D01*
X178923780Y-111195219D01*
X178876161Y-111242838D01*
X178828542Y-111266647D01*
%TO.C,C6*%
X149478571Y-112383333D02*
X149502380Y-112407142D01*
X149526190Y-112478571D01*
X149526190Y-112526190D01*
X149502380Y-112597619D01*
X149454761Y-112645238D01*
X149407142Y-112669047D01*
X149311904Y-112692857D01*
X149240476Y-112692857D01*
X149145238Y-112669047D01*
X149097619Y-112645238D01*
X149050000Y-112597619D01*
X149026190Y-112526190D01*
X149026190Y-112478571D01*
X149050000Y-112407142D01*
X149073809Y-112383333D01*
X149026190Y-111954761D02*
X149026190Y-112050000D01*
X149050000Y-112097619D01*
X149073809Y-112121428D01*
X149145238Y-112169047D01*
X149240476Y-112192857D01*
X149430952Y-112192857D01*
X149478571Y-112169047D01*
X149502380Y-112145238D01*
X149526190Y-112097619D01*
X149526190Y-112002380D01*
X149502380Y-111954761D01*
X149478571Y-111930952D01*
X149430952Y-111907142D01*
X149311904Y-111907142D01*
X149264285Y-111930952D01*
X149240476Y-111954761D01*
X149216666Y-112002380D01*
X149216666Y-112097619D01*
X149240476Y-112145238D01*
X149264285Y-112169047D01*
X149311904Y-112192857D01*
%TO.C,C1*%
X166716666Y-105178571D02*
X166692857Y-105202380D01*
X166621428Y-105226190D01*
X166573809Y-105226190D01*
X166502380Y-105202380D01*
X166454761Y-105154761D01*
X166430952Y-105107142D01*
X166407142Y-105011904D01*
X166407142Y-104940476D01*
X166430952Y-104845238D01*
X166454761Y-104797619D01*
X166502380Y-104750000D01*
X166573809Y-104726190D01*
X166621428Y-104726190D01*
X166692857Y-104750000D01*
X166716666Y-104773809D01*
X167192857Y-105226190D02*
X166907142Y-105226190D01*
X167050000Y-105226190D02*
X167050000Y-104726190D01*
X167002380Y-104797619D01*
X166954761Y-104845238D01*
X166907142Y-104869047D01*
%TO.C,C3*%
X158516666Y-117678571D02*
X158492857Y-117702380D01*
X158421428Y-117726190D01*
X158373809Y-117726190D01*
X158302380Y-117702380D01*
X158254761Y-117654761D01*
X158230952Y-117607142D01*
X158207142Y-117511904D01*
X158207142Y-117440476D01*
X158230952Y-117345238D01*
X158254761Y-117297619D01*
X158302380Y-117250000D01*
X158373809Y-117226190D01*
X158421428Y-117226190D01*
X158492857Y-117250000D01*
X158516666Y-117273809D01*
X158683333Y-117226190D02*
X158992857Y-117226190D01*
X158826190Y-117416666D01*
X158897619Y-117416666D01*
X158945238Y-117440476D01*
X158969047Y-117464285D01*
X158992857Y-117511904D01*
X158992857Y-117630952D01*
X158969047Y-117678571D01*
X158945238Y-117702380D01*
X158897619Y-117726190D01*
X158754761Y-117726190D01*
X158707142Y-117702380D01*
X158683333Y-117678571D01*
%TO.C,C11*%
X146878571Y-112521428D02*
X146902380Y-112545238D01*
X146926190Y-112616666D01*
X146926190Y-112664285D01*
X146902380Y-112735714D01*
X146854761Y-112783333D01*
X146807142Y-112807142D01*
X146711904Y-112830952D01*
X146640476Y-112830952D01*
X146545238Y-112807142D01*
X146497619Y-112783333D01*
X146450000Y-112735714D01*
X146426190Y-112664285D01*
X146426190Y-112616666D01*
X146450000Y-112545238D01*
X146473809Y-112521428D01*
X146926190Y-112045238D02*
X146926190Y-112330952D01*
X146926190Y-112188095D02*
X146426190Y-112188095D01*
X146497619Y-112235714D01*
X146545238Y-112283333D01*
X146569047Y-112330952D01*
X146926190Y-111569047D02*
X146926190Y-111854761D01*
X146926190Y-111711904D02*
X146426190Y-111711904D01*
X146497619Y-111759523D01*
X146545238Y-111807142D01*
X146569047Y-111854761D01*
D15*
%TO.C,C4*%
X149505400Y-107632436D02*
X149505400Y-107416764D01*
X148785400Y-107632436D02*
X148785400Y-107416764D01*
%TO.C,C13*%
X167444600Y-109784820D02*
X167444600Y-110065980D01*
X168464600Y-109784820D02*
X168464600Y-110065980D01*
%TO.C,R2*%
X173480000Y-116853641D02*
X173480000Y-116546359D01*
X172720000Y-116853641D02*
X172720000Y-116546359D01*
%TO.C,C7*%
X146546436Y-113515200D02*
X146330764Y-113515200D01*
X146546436Y-114235200D02*
X146330764Y-114235200D01*
%TO.C,R3*%
X170634600Y-109829041D02*
X170634600Y-109521759D01*
X169874600Y-109829041D02*
X169874600Y-109521759D01*
%TO.C,C10*%
X145596000Y-109738636D02*
X145596000Y-109522964D01*
X146316000Y-109738636D02*
X146316000Y-109522964D01*
%TO.C,C12*%
X175211800Y-108605820D02*
X175211800Y-108886980D01*
X176231800Y-108605820D02*
X176231800Y-108886980D01*
%TO.C,C2*%
X160531200Y-107973564D02*
X160531200Y-108189236D01*
X161251200Y-107973564D02*
X161251200Y-108189236D01*
%TO.C,J5*%
X144769605Y-136123400D02*
X144769605Y-127493400D01*
X162845800Y-136123400D02*
X162845800Y-127493400D01*
X160245800Y-136123400D02*
X160245800Y-127493400D01*
X143352465Y-136123400D02*
X143352465Y-127493400D01*
X150085800Y-136123400D02*
X150085800Y-127493400D01*
X144533415Y-136123400D02*
X144533415Y-127493400D01*
X143706750Y-136123400D02*
X143706750Y-127493400D01*
X143588655Y-136123400D02*
X143588655Y-127493400D01*
X147545800Y-136123400D02*
X147545800Y-127493400D01*
X144887700Y-136123400D02*
X144887700Y-127493400D01*
X143375800Y-127493400D02*
X143375800Y-127143400D01*
X144651510Y-136123400D02*
X144651510Y-127493400D01*
X145915800Y-127493400D02*
X145915800Y-127083400D01*
X161155800Y-127493400D02*
X161155800Y-127083400D01*
X142761990Y-136123400D02*
X142761990Y-127493400D01*
X142405800Y-124923400D02*
X143735800Y-124923400D01*
X142405800Y-136123400D02*
X142405800Y-127493400D01*
X146635800Y-127493400D02*
X146635800Y-127083400D01*
X143942940Y-136123400D02*
X143942940Y-127493400D01*
X157705800Y-136123400D02*
X157705800Y-127493400D01*
X142405800Y-127493400D02*
X162845800Y-127493400D01*
X142405800Y-136123400D02*
X162845800Y-136123400D01*
X151715800Y-127493400D02*
X151715800Y-127083400D01*
X143824845Y-136123400D02*
X143824845Y-127493400D01*
X142405800Y-126033400D02*
X142405800Y-124923400D01*
X153535800Y-127493400D02*
X153535800Y-127083400D01*
X148455800Y-127493400D02*
X148455800Y-127083400D01*
X156075800Y-127493400D02*
X156075800Y-127083400D01*
X155165800Y-136123400D02*
X155165800Y-127493400D01*
X143116275Y-136123400D02*
X143116275Y-127493400D01*
X142998180Y-136123400D02*
X142998180Y-127493400D01*
X144095800Y-127493400D02*
X144095800Y-127143400D01*
X152625800Y-136123400D02*
X152625800Y-127493400D01*
X159335800Y-127493400D02*
X159335800Y-127083400D01*
X142880085Y-136123400D02*
X142880085Y-127493400D01*
X144297225Y-136123400D02*
X144297225Y-127493400D01*
X156795800Y-127493400D02*
X156795800Y-127083400D01*
X143234370Y-136123400D02*
X143234370Y-127493400D01*
X158615800Y-127493400D02*
X158615800Y-127083400D01*
X144061035Y-136123400D02*
X144061035Y-127493400D01*
X142525800Y-136123400D02*
X142525800Y-127493400D01*
X143470560Y-136123400D02*
X143470560Y-127493400D01*
X154255800Y-127493400D02*
X154255800Y-127083400D01*
X142643895Y-136123400D02*
X142643895Y-127493400D01*
X144179130Y-136123400D02*
X144179130Y-127493400D01*
X144415320Y-136123400D02*
X144415320Y-127493400D01*
X145005800Y-136123400D02*
X145005800Y-127493400D01*
X161875800Y-127493400D02*
X161875800Y-127083400D01*
X149175800Y-127493400D02*
X149175800Y-127083400D01*
X150995800Y-127493400D02*
X150995800Y-127083400D01*
%TO.C,U1*%
X151965400Y-107214600D02*
X151515400Y-107214600D01*
X151965400Y-114434600D02*
X151515400Y-114434600D01*
X158285400Y-107214600D02*
X158735400Y-107214600D01*
X151515400Y-107664600D02*
X150225400Y-107664600D01*
X151515400Y-114434600D02*
X151515400Y-113984600D01*
X158285400Y-114434600D02*
X158735400Y-114434600D01*
X158735400Y-114434600D02*
X158735400Y-113984600D01*
X158735400Y-107214600D02*
X158735400Y-107664600D01*
X151515400Y-107214600D02*
X151515400Y-107664600D01*
%TO.C,C8*%
X146546436Y-115090000D02*
X146330764Y-115090000D01*
X146546436Y-115810000D02*
X146330764Y-115810000D01*
%TO.C,J6*%
X182590000Y-86800000D02*
X173960000Y-86800000D01*
X182590000Y-94480000D02*
X173960000Y-94480000D01*
X182590000Y-96841905D02*
X173960000Y-96841905D01*
X182590000Y-95897145D02*
X173960000Y-95897145D01*
X182590000Y-96251430D02*
X173960000Y-96251430D01*
X182590000Y-97080000D02*
X173960000Y-97080000D01*
X182590000Y-94834290D02*
X173960000Y-94834290D01*
X182590000Y-95188575D02*
X173960000Y-95188575D01*
X173960000Y-97080000D02*
X173960000Y-86800000D01*
X182590000Y-96605715D02*
X173960000Y-96605715D01*
X182590000Y-94716195D02*
X173960000Y-94716195D01*
X182590000Y-89400000D02*
X173960000Y-89400000D01*
X182590000Y-95424765D02*
X173960000Y-95424765D01*
X182590000Y-91940000D02*
X173960000Y-91940000D01*
X173960000Y-91030000D02*
X173550000Y-91030000D01*
X182590000Y-97080000D02*
X182590000Y-86800000D01*
X173960000Y-87770000D02*
X173550000Y-87770000D01*
X182590000Y-96960000D02*
X173960000Y-96960000D01*
X182590000Y-95306670D02*
X173960000Y-95306670D01*
X182590000Y-95779050D02*
X173960000Y-95779050D01*
X182590000Y-94598100D02*
X173960000Y-94598100D01*
X182590000Y-95542860D02*
X173960000Y-95542860D01*
X173960000Y-95390000D02*
X173610000Y-95390000D01*
X182590000Y-95660955D02*
X173960000Y-95660955D01*
X173960000Y-93570000D02*
X173550000Y-93570000D01*
X173960000Y-92850000D02*
X173550000Y-92850000D01*
X182590000Y-96723810D02*
X173960000Y-96723810D01*
X182590000Y-94952385D02*
X173960000Y-94952385D01*
X182590000Y-96487620D02*
X173960000Y-96487620D01*
X182590000Y-96015240D02*
X173960000Y-96015240D01*
X173960000Y-90310000D02*
X173550000Y-90310000D01*
X172500000Y-97080000D02*
X171390000Y-97080000D01*
X173960000Y-88490000D02*
X173550000Y-88490000D01*
X173960000Y-96110000D02*
X173610000Y-96110000D01*
X182590000Y-96133335D02*
X173960000Y-96133335D01*
X182590000Y-96369525D02*
X173960000Y-96369525D01*
X182590000Y-95070480D02*
X173960000Y-95070480D01*
X171390000Y-97080000D02*
X171390000Y-95750000D01*
%TO.C,J2*%
X135662600Y-122553400D02*
X136072600Y-122553400D01*
X127032600Y-115843400D02*
X135662600Y-115843400D01*
X127032600Y-104738635D02*
X135662600Y-104738635D01*
X135662600Y-106593400D02*
X136072600Y-106593400D01*
X135662600Y-109133400D02*
X136072600Y-109133400D01*
X127032600Y-103083400D02*
X135662600Y-103083400D01*
X135662600Y-107313400D02*
X136072600Y-107313400D01*
X127032600Y-105329110D02*
X135662600Y-105329110D01*
X127032600Y-103675780D02*
X135662600Y-103675780D01*
X127032600Y-103557685D02*
X135662600Y-103557685D01*
X127032600Y-105092920D02*
X135662600Y-105092920D01*
X127032600Y-103321495D02*
X135662600Y-103321495D01*
X135662600Y-114213400D02*
X136072600Y-114213400D01*
X127032600Y-103083400D02*
X127032600Y-123523400D01*
X135662600Y-117473400D02*
X136072600Y-117473400D01*
X135662600Y-111673400D02*
X136072600Y-111673400D01*
X127032600Y-105447205D02*
X135662600Y-105447205D01*
X127032600Y-105565300D02*
X135662600Y-105565300D01*
X127032600Y-110763400D02*
X135662600Y-110763400D01*
X127032600Y-104502445D02*
X135662600Y-104502445D01*
X135662600Y-119293400D02*
X136072600Y-119293400D01*
X135662600Y-116753400D02*
X136072600Y-116753400D01*
X127032600Y-103793875D02*
X135662600Y-103793875D01*
X135662600Y-109853400D02*
X136072600Y-109853400D01*
X138232600Y-103083400D02*
X138232600Y-104413400D01*
X135662600Y-103083400D02*
X135662600Y-123523400D01*
X127032600Y-113303400D02*
X135662600Y-113303400D01*
X135662600Y-104053400D02*
X136012600Y-104053400D01*
X127032600Y-120923400D02*
X135662600Y-120923400D01*
X127032600Y-105683400D02*
X135662600Y-105683400D01*
X127032600Y-105211015D02*
X135662600Y-105211015D01*
X127032600Y-103203400D02*
X135662600Y-103203400D01*
X127032600Y-104620540D02*
X135662600Y-104620540D01*
X127032600Y-103911970D02*
X135662600Y-103911970D01*
X135662600Y-104773400D02*
X136012600Y-104773400D01*
X127032600Y-103439590D02*
X135662600Y-103439590D01*
X127032600Y-108223400D02*
X135662600Y-108223400D01*
X127032600Y-118383400D02*
X135662600Y-118383400D01*
X127032600Y-104384350D02*
X135662600Y-104384350D01*
X137122600Y-103083400D02*
X138232600Y-103083400D01*
X127032600Y-104148160D02*
X135662600Y-104148160D01*
X127032600Y-104030065D02*
X135662600Y-104030065D01*
X127032600Y-104974825D02*
X135662600Y-104974825D01*
X135662600Y-121833400D02*
X136072600Y-121833400D01*
X127032600Y-123523400D02*
X135662600Y-123523400D01*
X135662600Y-120013400D02*
X136072600Y-120013400D01*
X127032600Y-104266255D02*
X135662600Y-104266255D01*
X135662600Y-112393400D02*
X136072600Y-112393400D01*
X135662600Y-114933400D02*
X136072600Y-114933400D01*
X127032600Y-104856730D02*
X135662600Y-104856730D01*
%TO.C,C9*%
X151105400Y-105732436D02*
X151105400Y-105516764D01*
X150385400Y-105732436D02*
X150385400Y-105516764D01*
%TO.C,J1*%
X154175000Y-94740000D02*
X154175000Y-95150000D01*
X164335000Y-94740000D02*
X164335000Y-95090000D01*
X163413575Y-86110000D02*
X163413575Y-94740000D01*
X163615000Y-94740000D02*
X163615000Y-95090000D01*
X164122145Y-86110000D02*
X164122145Y-94740000D01*
X150005000Y-86110000D02*
X150005000Y-94740000D01*
X164948810Y-86110000D02*
X164948810Y-94740000D01*
X161075000Y-94740000D02*
X161075000Y-95150000D01*
X164240240Y-86110000D02*
X164240240Y-94740000D01*
X157625000Y-86110000D02*
X157625000Y-94740000D01*
X164476430Y-86110000D02*
X164476430Y-94740000D01*
X163767860Y-86110000D02*
X163767860Y-94740000D01*
X148375000Y-94740000D02*
X148375000Y-95150000D01*
X163295480Y-86110000D02*
X163295480Y-94740000D01*
X164004050Y-86110000D02*
X164004050Y-94740000D01*
X163885955Y-86110000D02*
X163885955Y-94740000D01*
X152545000Y-86110000D02*
X152545000Y-94740000D01*
X165185000Y-86110000D02*
X165185000Y-94740000D01*
X165305000Y-97310000D02*
X163975000Y-97310000D01*
X150915000Y-94740000D02*
X150915000Y-95150000D01*
X155995000Y-94740000D02*
X155995000Y-95150000D01*
X164830715Y-86110000D02*
X164830715Y-94740000D01*
X165305000Y-86110000D02*
X165305000Y-94740000D01*
X153455000Y-94740000D02*
X153455000Y-95150000D01*
X162941195Y-86110000D02*
X162941195Y-94740000D01*
X147465000Y-86110000D02*
X147465000Y-94740000D01*
X165066905Y-86110000D02*
X165066905Y-94740000D01*
X155085000Y-86110000D02*
X155085000Y-94740000D01*
X145835000Y-94740000D02*
X145835000Y-95150000D01*
X163177385Y-86110000D02*
X163177385Y-94740000D01*
X146555000Y-94740000D02*
X146555000Y-95150000D01*
X162705000Y-86110000D02*
X162705000Y-94740000D01*
X156715000Y-94740000D02*
X156715000Y-95150000D01*
X161795000Y-94740000D02*
X161795000Y-95150000D01*
X165305000Y-94740000D02*
X144865000Y-94740000D01*
X144865000Y-86110000D02*
X144865000Y-94740000D01*
X160165000Y-86110000D02*
X160165000Y-94740000D01*
X163649765Y-86110000D02*
X163649765Y-94740000D01*
X163059290Y-86110000D02*
X163059290Y-94740000D01*
X165305000Y-96200000D02*
X165305000Y-97310000D01*
X151635000Y-94740000D02*
X151635000Y-95150000D01*
X149095000Y-94740000D02*
X149095000Y-95150000D01*
X164594525Y-86110000D02*
X164594525Y-94740000D01*
X163531670Y-86110000D02*
X163531670Y-94740000D01*
X165305000Y-86110000D02*
X144865000Y-86110000D01*
X164712620Y-86110000D02*
X164712620Y-94740000D01*
X164358335Y-86110000D02*
X164358335Y-94740000D01*
X159255000Y-94740000D02*
X159255000Y-95150000D01*
X162823100Y-86110000D02*
X162823100Y-94740000D01*
X158535000Y-94740000D02*
X158535000Y-95150000D01*
%TO.C,SW1*%
X131935400Y-90414600D02*
X138755400Y-90414600D01*
X133535400Y-92369600D02*
X134742067Y-92369600D01*
X133535400Y-92249600D02*
X134742067Y-92249600D01*
X133535400Y-92729600D02*
X134742067Y-92729600D01*
X133535400Y-91889600D02*
X133535400Y-93159600D01*
X133535400Y-92969600D02*
X134742067Y-92969600D01*
X131935400Y-90414600D02*
X131935400Y-91724600D01*
X131935400Y-94634600D02*
X138755400Y-94634600D01*
X133535400Y-92609600D02*
X134742067Y-92609600D01*
X138755400Y-93324600D02*
X138755400Y-94634600D01*
X133535400Y-93159600D02*
X137155400Y-93159600D01*
X133535400Y-93089600D02*
X134742067Y-93089600D01*
X134742067Y-91889600D02*
X134742067Y-93159600D01*
X131695400Y-90174600D02*
X133078400Y-90174600D01*
X137155400Y-91889600D02*
X133535400Y-91889600D01*
X131935400Y-93324600D02*
X131935400Y-94634600D01*
X133535400Y-92129600D02*
X134742067Y-92129600D01*
X133535400Y-92009600D02*
X134742067Y-92009600D01*
X137155400Y-93159600D02*
X137155400Y-91889600D01*
X133535400Y-92489600D02*
X134742067Y-92489600D01*
X131695400Y-90174600D02*
X131695400Y-91557600D01*
X133535400Y-92849600D02*
X134742067Y-92849600D01*
X138755400Y-90414600D02*
X138755400Y-91724600D01*
%TO.C,D2*%
X177921800Y-107906400D02*
X180206800Y-107906400D01*
X180206800Y-106436400D02*
X177921800Y-106436400D01*
X180206800Y-107906400D02*
X180206800Y-106436400D01*
%TO.C,J7*%
X179249600Y-101120000D02*
X179249600Y-103720000D01*
X181909600Y-101120000D02*
X181909600Y-103720000D01*
X179249600Y-101120000D02*
X181909600Y-101120000D01*
X179249600Y-103720000D02*
X181909600Y-103720000D01*
X180579600Y-98520000D02*
X181909600Y-98520000D01*
X181909600Y-98520000D02*
X181909600Y-99850000D01*
D11*
%TO.C,J4*%
X183695000Y-113355000D02*
X183245000Y-113355000D01*
X177545000Y-115405000D02*
X177545000Y-114405000D01*
X183245000Y-121055000D02*
X183695000Y-121055000D01*
X177545000Y-119005000D02*
X177545000Y-120005000D01*
X177120000Y-119005000D02*
X177545000Y-119005000D01*
X177120000Y-118280000D02*
X177120000Y-119005000D01*
X183245000Y-113055000D02*
X183095000Y-113055000D01*
X180695000Y-113055000D02*
X179295000Y-113055000D01*
X183095000Y-121355000D02*
X183245000Y-121355000D01*
X183245000Y-121355000D02*
X183245000Y-121055000D01*
X179295000Y-121355000D02*
X180695000Y-121355000D01*
X183245000Y-113355000D02*
X183245000Y-113055000D01*
D15*
%TO.C,C5*%
X152092164Y-104740000D02*
X152307836Y-104740000D01*
X152092164Y-105460000D02*
X152307836Y-105460000D01*
%TO.C,J3*%
X174314600Y-132995400D02*
X173904600Y-132995400D01*
X182944600Y-135086355D02*
X174314600Y-135086355D01*
X182944600Y-135913020D02*
X174314600Y-135913020D01*
X182944600Y-134377785D02*
X174314600Y-134377785D01*
X174314600Y-127915400D02*
X173904600Y-127915400D01*
X182944600Y-135676830D02*
X174314600Y-135676830D01*
X182944600Y-134495880D02*
X174314600Y-134495880D01*
X182944600Y-123685400D02*
X174314600Y-123685400D01*
X174314600Y-129735400D02*
X173904600Y-129735400D01*
X174314600Y-132275400D02*
X173904600Y-132275400D01*
X182944600Y-136505400D02*
X174314600Y-136505400D01*
X182944600Y-136505400D02*
X182944600Y-123685400D01*
X182944600Y-128825400D02*
X174314600Y-128825400D01*
X172854600Y-136505400D02*
X171744600Y-136505400D01*
X182944600Y-135794925D02*
X174314600Y-135794925D01*
X182944600Y-136149210D02*
X174314600Y-136149210D01*
X182944600Y-134968260D02*
X174314600Y-134968260D01*
X174314600Y-130455400D02*
X173904600Y-130455400D01*
X182944600Y-134732070D02*
X174314600Y-134732070D01*
X174314600Y-136505400D02*
X174314600Y-123685400D01*
X182944600Y-135204450D02*
X174314600Y-135204450D01*
X182944600Y-135322545D02*
X174314600Y-135322545D01*
X182944600Y-134850165D02*
X174314600Y-134850165D01*
X182944600Y-134259690D02*
X174314600Y-134259690D01*
X182944600Y-133905400D02*
X174314600Y-133905400D01*
X182944600Y-135558735D02*
X174314600Y-135558735D01*
X174314600Y-125375400D02*
X173904600Y-125375400D01*
X174314600Y-127195400D02*
X173904600Y-127195400D01*
X182944600Y-126285400D02*
X174314600Y-126285400D01*
X182944600Y-136267305D02*
X174314600Y-136267305D01*
X174314600Y-134815400D02*
X173964600Y-134815400D01*
X182944600Y-136385400D02*
X174314600Y-136385400D01*
X182944600Y-136031115D02*
X174314600Y-136031115D01*
X182944600Y-134141595D02*
X174314600Y-134141595D01*
X182944600Y-134613975D02*
X174314600Y-134613975D01*
X174314600Y-135535400D02*
X173964600Y-135535400D01*
X182944600Y-131365400D02*
X174314600Y-131365400D01*
X174314600Y-124655400D02*
X173904600Y-124655400D01*
X171744600Y-136505400D02*
X171744600Y-135175400D01*
X182944600Y-135440640D02*
X174314600Y-135440640D01*
X182944600Y-134023500D02*
X174314600Y-134023500D01*
%TO.C,L1*%
X169404222Y-107890800D02*
X168604978Y-107890800D01*
X169404222Y-106770800D02*
X168604978Y-106770800D01*
%TO.C,FB1*%
X147884400Y-114499821D02*
X147884400Y-114825379D01*
X148904400Y-114499821D02*
X148904400Y-114825379D01*
%TO.C,R1*%
X140581759Y-96544600D02*
X140889041Y-96544600D01*
X140581759Y-97304600D02*
X140889041Y-97304600D01*
%TO.C,Y1*%
X141893000Y-108799200D02*
X141893000Y-112799200D01*
X145193000Y-108799200D02*
X141893000Y-108799200D01*
%TO.C,U2*%
X172254600Y-106555400D02*
X173254600Y-106555400D01*
X174254600Y-108795400D02*
X172254600Y-108795400D01*
%TO.C,D1*%
X180206400Y-109232600D02*
X177921400Y-109232600D01*
X177921400Y-110702600D02*
X180206400Y-110702600D01*
X180206400Y-110702600D02*
X180206400Y-109232600D01*
%TO.C,C6*%
X148059800Y-112001836D02*
X148059800Y-111786164D01*
X148779800Y-112001836D02*
X148779800Y-111786164D01*
%TO.C,C1*%
X166538748Y-104265000D02*
X167061252Y-104265000D01*
X166538748Y-105735000D02*
X167061252Y-105735000D01*
%TO.C,C3*%
X158307836Y-116255800D02*
X158092164Y-116255800D01*
X158307836Y-116975800D02*
X158092164Y-116975800D01*
%TO.C,C11*%
X145596000Y-111834364D02*
X145596000Y-112050036D01*
X146316000Y-111834364D02*
X146316000Y-112050036D01*
%TD*%
M02*
